<?xml version="1.0" encoding="UTF-8" standalone="no"?><!DOCTYPE svg PUBLIC "-//W3C//DTD SVG 1.1//EN" "http://www.w3.org/Graphics/SVG/1.1/DTD/svg11.dtd"><!-- Generated by graphviz version 2.40.1 (20161225.0304)
 --><!-- Title: G Pages: 1 --><svg xmlns="http://www.w3.org/2000/svg" xmlns:xlink="http://www.w3.org/1999/xlink" width="474pt" height="377pt" viewBox="0.00 0.00 474.28 377.00">
<g id="graph0" class="graph" transform="scale(1 1) rotate(0) translate(4 373)">
<title>G</title>
<polygon fill="#2e3e56" stroke="transparent" points="-4,4 -4,-373 470.2778,-373 470.2778,4 -4,4"/>
<g id="clust1" class="cluster">
<title>clusterITreasury</title>
<path fill="#445773" stroke="#445773" d="M28.5754,-8C28.5754,-8 145.632,-8 145.632,-8 151.632,-8 157.632,-14 157.632,-20 157.632,-20 157.632,-73 157.632,-73 157.632,-79 151.632,-85 145.632,-85 145.632,-85 28.5754,-85 28.5754,-85 22.5754,-85 16.5754,-79 16.5754,-73 16.5754,-73 16.5754,-20 16.5754,-20 16.5754,-14 22.5754,-8 28.5754,-8"/>
<text text-anchor="middle" x="87.1037" y="-68.4" font-family="Times,serif" font-size="14.00" fill="#f0f0f0">ITreasury  (iface)</text>
</g>
<g id="clust2" class="cluster">
<title>clusterDistributorFacet</title>
<path fill="#445773" stroke="#445773" d="M20,-93C20,-93 446.2778,-93 446.2778,-93 452.2778,-93 458.2778,-99 458.2778,-105 458.2778,-105 458.2778,-212 458.2778,-212 458.2778,-218 452.2778,-224 446.2778,-224 446.2778,-224 20,-224 20,-224 14,-224 8,-218 8,-212 8,-212 8,-105 8,-105 8,-99 14,-93 20,-93"/>
<text text-anchor="middle" x="233.1389" y="-207.4" font-family="Times,serif" font-size="14.00" fill="#f0f0f0">DistributorFacet</text>
</g>
<g id="clust3" class="cluster">
<title>clusterEnumerableSet</title>
<path fill="#3b4b63" stroke="#e8726d" stroke-dasharray="5,2" d="M223.3785,-8C223.3785,-8 300.7304,-8 300.7304,-8 306.7304,-8 312.7304,-14 312.7304,-20 312.7304,-20 312.7304,-73 312.7304,-73 312.7304,-79 306.7304,-85 300.7304,-85 300.7304,-85 223.3785,-85 223.3785,-85 217.3785,-85 211.3785,-79 211.3785,-73 211.3785,-73 211.3785,-20 211.3785,-20 211.3785,-14 217.3785,-8 223.3785,-8"/>
<text text-anchor="middle" x="262.0545" y="-68.4" font-family="Times,serif" font-size="14.00" fill="#f0f0f0">EnumerableSet</text>
</g>
<g id="clust4" class="cluster">
<title>cluster_01</title>
<polygon fill="#2e3e56" stroke="#000000" points="14.1037,-232 14.1037,-361 296.5545,-361 296.5545,-232 14.1037,-232"/>
<text text-anchor="middle" x="155.3291" y="-344.4" font-family="Times,serif" font-size="14.00" fill="#000000">Legend</text>
</g>
<!-- ITreasury.mintRewards -->
<g id="node1" class="node">
<title>ITreasury.mintRewards</title>
<ellipse fill="#ffbdb9" stroke="#ffbdb9" stroke-width="3" cx="87.1037" cy="-34" rx="62.5566" ry="18"/>
<text text-anchor="middle" x="87.1037" y="-29.8" font-family="Times,serif" font-size="14.00" fill="#000000">mintRewards</text>
</g>
<!-- DistributorFacet.distribute -->
<g id="node2" class="node">
<title>DistributorFacet.distribute</title>
<ellipse fill="#ffbdb9" stroke="#ffbdb9" stroke-width="3" cx="87.1037" cy="-119" rx="47.5274" ry="18"/>
<text text-anchor="middle" x="87.1037" y="-114.8" font-family="Times,serif" font-size="14.00" fill="#000000">distribute</text>
</g>
<!-- DistributorFacet.adjust -->
<g id="node3" class="node">
<title>DistributorFacet.adjust</title>
<ellipse fill="#edad56" stroke="#edad56" stroke-width="3" cx="261.5545" cy="-119" rx="34.2065" ry="18"/>
<text text-anchor="middle" x="261.5545" y="-114.8" font-family="Times,serif" font-size="14.00" fill="#000000">adjust</text>
</g>
<!-- DistributorFacet.distribute&#45;&gt;DistributorFacet.adjust -->
<g id="edge3" class="edge">
<title>DistributorFacet.distribute-&gt;DistributorFacet.adjust</title>
<path fill="none" stroke="#1bc6a6" stroke-width="2" d="M134.7731,-119C160.4862,-119 192.0178,-119 217.2024,-119"/>
<polygon fill="#1bc6a6" stroke="#1bc6a6" stroke-width="2" points="217.2188,-122.5001 227.2187,-119 217.2187,-115.5001 217.2188,-122.5001"/>
</g>
<!-- DistributorFacet.nextRewardAt -->
<g id="node4" class="node">
<title>DistributorFacet.nextRewardAt</title>
<ellipse fill="#edad56" stroke="#edad56" stroke-width="3" cx="261.5545" cy="-173" rx="67.1946" ry="18"/>
<text text-anchor="middle" x="261.5545" y="-168.8" font-family="Times,serif" font-size="14.00" fill="#000000">nextRewardAt</text>
</g>
<!-- DistributorFacet.distribute&#45;&gt;DistributorFacet.nextRewardAt -->
<g id="edge2" class="edge">
<title>DistributorFacet.distribute-&gt;DistributorFacet.nextRewardAt</title>
<path fill="none" stroke="#1bc6a6" stroke-width="2" d="M124.1002,-130.452C148.4183,-137.9795 180.6378,-147.9528 207.7701,-156.3514"/>
<polygon fill="#1bc6a6" stroke="#1bc6a6" stroke-width="2" points="206.9242,-159.7534 217.512,-159.367 208.9942,-153.0664 206.9242,-159.7534"/>
</g>
<!-- EnumerableSet.length -->
<g id="node7" class="node">
<title>EnumerableSet.length</title>
<ellipse fill="#edad56" stroke="#edad56" stroke-width="3" cx="261.5545" cy="-34" rx="35.3528" ry="18"/>
<text text-anchor="middle" x="261.5545" y="-29.8" font-family="Times,serif" font-size="14.00" fill="#000000">length</text>
</g>
<!-- DistributorFacet.distribute&#45;&gt;EnumerableSet.length -->
<g id="edge1" class="edge">
<title>DistributorFacet.distribute-&gt;EnumerableSet.length</title>
<path fill="none" stroke="#ffffff" stroke-width="2" d="M119.9419,-105.8677C132.0728,-100.8277 145.8672,-94.8723 158.2073,-89 182.2394,-77.5638 208.7259,-63.4369 228.8682,-52.364"/>
<polygon fill="#ffffff" stroke="#ffffff" stroke-width="2" points="230.5865,-55.4134 237.6448,-47.512 227.1997,-49.2872 230.5865,-55.4134"/>
</g>
<!-- DistributorFacet.IERC20 -->
<g id="node6" class="node">
<title>DistributorFacet.IERC20</title>
<ellipse fill="#edad56" stroke="#edad56" stroke-width="3" cx="407.5897" cy="-173" rx="42.8771" ry="18"/>
<text text-anchor="middle" x="407.5897" y="-168.8" font-family="Times,serif" font-size="14.00" fill="#000000">IERC20</text>
</g>
<!-- DistributorFacet.nextRewardAt&#45;&gt;DistributorFacet.IERC20 -->
<g id="edge4" class="edge">
<title>DistributorFacet.nextRewardAt-&gt;DistributorFacet.IERC20</title>
<path fill="none" stroke="#1bc6a6" stroke-width="2" d="M329.015,-173C337.5276,-173 346.1416,-173 354.3905,-173"/>
<polygon fill="#1bc6a6" stroke="#1bc6a6" stroke-width="2" points="354.6088,-176.5001 364.6088,-173 354.6087,-169.5001 354.6088,-176.5001"/>
</g>
<!-- DistributorFacet.nextRewardFor -->
<g id="node5" class="node">
<title>DistributorFacet.nextRewardFor</title>
<ellipse fill="#ff9797" stroke="#ff9797" stroke-width="3" cx="87.1037" cy="-173" rx="71.2075" ry="18"/>
<text text-anchor="middle" x="87.1037" y="-168.8" font-family="Times,serif" font-size="14.00" fill="#000000">nextRewardFor</text>
</g>
<!-- DistributorFacet.nextRewardFor&#45;&gt;DistributorFacet.nextRewardAt -->
<g id="edge5" class="edge">
<title>DistributorFacet.nextRewardFor-&gt;DistributorFacet.nextRewardAt</title>
<path fill="none" stroke="#1bc6a6" stroke-width="2" d="M158.3111,-173C166.6836,-173 175.2601,-173 183.7174,-173"/>
<polygon fill="#1bc6a6" stroke="#1bc6a6" stroke-width="2" points="183.9527,-176.5001 193.9527,-173 183.9526,-169.5001 183.9527,-176.5001"/>
</g>
<!-- key -->
<g id="node8" class="node">
<title>key</title>
<polygon fill="#edad56" stroke="transparent" stroke-width="3" points="152.1037,-328 22.1037,-328 22.1037,-240 152.1037,-240 152.1037,-328"/>
<text text-anchor="start" x="71.7397" y="-309.4" font-family="Times,serif" font-size="14.00" fill="#000000">Internal Call</text>
<text text-anchor="start" x="67.8477" y="-289.4" font-family="Times,serif" font-size="14.00" fill="#000000">External Call</text>
<text text-anchor="start" x="45.3091" y="-269.4" font-family="Times,serif" font-size="14.00" fill="#000000">Defined Contract</text>
<text text-anchor="start" x="31.7064" y="-249.4" font-family="Times,serif" font-size="14.00" fill="#000000">Undefined Contract</text>
</g>
<!-- key2 -->
<g id="node9" class="node">
<title>key2</title>
<polygon fill="#edad56" stroke="transparent" stroke-width="3" points="288.5545,-328 234.5545,-328 234.5545,-240 288.5545,-240 288.5545,-328"/>
<text text-anchor="start" x="249.3136" y="-309.4" font-family="Times,serif" font-size="14.00" fill="#000000">   </text>
<text text-anchor="start" x="249.3136" y="-289.4" font-family="Times,serif" font-size="14.00" fill="#000000">   </text>
<polygon fill="#445773" stroke="transparent" points="247.5545,-264 247.5545,-284 275.5545,-284 275.5545,-264 247.5545,-264"/>
<text text-anchor="start" x="249.3136" y="-269.4" font-family="Times,serif" font-size="14.00" fill="#000000">   </text>
<polygon fill="none" stroke="#e8726d" points="249.5545,-246 249.5545,-262 273.5545,-262 273.5545,-246 249.5545,-246"/>
</g>
<!-- key&#45;&gt;key2 -->
<g id="edge6" class="edge">
<title>key:e-&gt;key2:w</title>
<path fill="none" stroke="#1bc6a6" stroke-width="2" d="M144.1037,-314C186.4898,-314 199.5698,-314 237.3769,-314"/>
<polygon fill="#1bc6a6" stroke="#1bc6a6" stroke-width="2" points="237.5545,-317.5001 247.5545,-314 237.5544,-310.5001 237.5545,-317.5001"/>
</g>
<!-- key&#45;&gt;key2 -->
<g id="edge7" class="edge">
<title>key:e-&gt;key2:w</title>
<path fill="none" stroke="#ffffff" stroke-width="2" d="M144.1037,-294C186.4898,-294 199.5698,-294 237.3769,-294"/>
<polygon fill="#ffffff" stroke="#ffffff" stroke-width="2" points="237.5545,-297.5001 247.5545,-294 237.5544,-290.5001 237.5545,-297.5001"/>
</g>
</g>
</svg>