<?xml version="1.0" encoding="UTF-8" standalone="no"?><!DOCTYPE svg PUBLIC "-//W3C//DTD SVG 1.1//EN" "http://www.w3.org/Graphics/SVG/1.1/DTD/svg11.dtd"><!-- Generated by graphviz version 2.40.1 (20161225.0304)
 --><!-- Title: G Pages: 1 --><svg xmlns="http://www.w3.org/2000/svg" xmlns:xlink="http://www.w3.org/1999/xlink" width="458pt" height="971pt" viewBox="0.00 0.00 458.00 971.00">
<g id="graph0" class="graph" transform="scale(1 1) rotate(0) translate(4 967)">
<title>G</title>
<polygon fill="#2e3e56" stroke="transparent" points="-4,4 -4,-967 454.0039,-967 454.0039,4 -4,4"/>
<g id="clust1" class="cluster">
<title>clusterRouterFacet</title>
<path fill="#445773" stroke="#445773" d="M20,-309C20,-309 376.3895,-309 376.3895,-309 382.3895,-309 388.3895,-315 388.3895,-321 388.3895,-321 388.3895,-806 388.3895,-806 388.3895,-812 382.3895,-818 376.3895,-818 376.3895,-818 20,-818 20,-818 14,-818 8,-812 8,-806 8,-806 8,-321 8,-321 8,-315 14,-309 20,-309"/>
<text text-anchor="middle" x="198.1948" y="-801.4" font-family="Times,serif" font-size="14.00" fill="#f0f0f0">RouterFacet</text>
</g>
<g id="clust2" class="cluster">
<title>clusterRouterLib</title>
<path fill="#3b4b63" stroke="#e8726d" stroke-dasharray="5,2" d="M245.3989,-8C245.3989,-8 430.0039,-8 430.0039,-8 436.0039,-8 442.0039,-14 442.0039,-20 442.0039,-20 442.0039,-289 442.0039,-289 442.0039,-295 436.0039,-301 430.0039,-301 430.0039,-301 245.3989,-301 245.3989,-301 239.3989,-301 233.3989,-295 233.3989,-289 233.3989,-289 233.3989,-20 233.3989,-20 233.3989,-14 239.3989,-8 245.3989,-8"/>
<text text-anchor="middle" x="337.7014" y="-284.4" font-family="Times,serif" font-size="14.00" fill="#f0f0f0">RouterLib</text>
</g>
<g id="clust3" class="cluster">
<title>cluster_01</title>
<polygon fill="#2e3e56" stroke="#000000" points="37.6994,-826 37.6994,-955 372.7014,-955 372.7014,-826 37.6994,-826"/>
<text text-anchor="middle" x="205.2004" y="-938.4" font-family="Times,serif" font-size="14.00" fill="#000000">Legend</text>
</g>
<!-- RouterFacet.&lt;Receive Ether&gt; -->
<g id="node1" class="node">
<title>RouterFacet.&lt;Receive Ether&gt;</title>
<ellipse fill="#ffbdb9" stroke="#a52a2a" stroke-width="3" cx="110.6994" cy="-767" rx="76.2086" ry="18"/>
<text text-anchor="middle" x="110.6994" y="-762.8" font-family="Times,serif" font-size="14.00" fill="#000000">&lt;Receive Ether&gt;</text>
</g>
<!-- RouterFacet._sender -->
<g id="node2" class="node">
<title>RouterFacet._sender</title>
<ellipse fill="#edad56" stroke="#edad56" stroke-width="3" cx="337.7014" cy="-659" rx="41.1316" ry="18"/>
<text text-anchor="middle" x="337.7014" y="-654.8" font-family="Times,serif" font-size="14.00" fill="#000000">_sender</text>
</g>
<!-- RouterFacet.directPoolDeposit -->
<g id="node3" class="node">
<title>RouterFacet.directPoolDeposit</title>
<ellipse fill="#ffbdb9" stroke="#ffbdb9" stroke-width="3" cx="110.6994" cy="-713" rx="80.5354" ry="18"/>
<text text-anchor="middle" x="110.6994" y="-708.8" font-family="Times,serif" font-size="14.00" fill="#000000">directPoolDeposit</text>
</g>
<!-- RouterFacet.directPoolDeposit&#45;&gt;RouterFacet._sender -->
<g id="edge2" class="edge">
<title>RouterFacet.directPoolDeposit-&gt;RouterFacet._sender</title>
<path fill="none" stroke="#1bc6a6" stroke-width="2" d="M165.9401,-699.8592C204.4468,-690.6991 255.2279,-678.6191 291.569,-669.9741"/>
<polygon fill="#1bc6a6" stroke="#1bc6a6" stroke-width="2" points="292.4955,-673.3515 301.414,-667.6322 290.8754,-666.5415 292.4955,-673.3515"/>
</g>
<!-- RouterFacet.IERC20 -->
<g id="node11" class="node">
<title>RouterFacet.IERC20</title>
<ellipse fill="#edad56" stroke="#edad56" stroke-width="3" cx="337.7014" cy="-605" rx="42.8771" ry="18"/>
<text text-anchor="middle" x="337.7014" y="-600.8" font-family="Times,serif" font-size="14.00" fill="#000000">IERC20</text>
</g>
<!-- RouterFacet.directPoolDeposit&#45;&gt;RouterFacet.IERC20 -->
<g id="edge1" class="edge">
<title>RouterFacet.directPoolDeposit-&gt;RouterFacet.IERC20</title>
<path fill="none" stroke="#1bc6a6" stroke-width="2" d="M175.8137,-702.0801C186.4535,-698.2327 196.7939,-693.0313 205.3989,-686 226.3333,-668.894 212.257,-648.8489 233.3989,-632 248.2097,-620.1967 267.6205,-613.5065 285.676,-609.7312"/>
<polygon fill="#1bc6a6" stroke="#1bc6a6" stroke-width="2" points="286.3272,-613.1702 295.5295,-607.9197 285.0615,-606.2856 286.3272,-613.1702"/>
</g>
<!-- RouterFacet.IVault -->
<g id="node12" class="node">
<title>RouterFacet.IVault</title>
<ellipse fill="#edad56" stroke="#edad56" stroke-width="3" cx="337.7014" cy="-713" rx="35.9115" ry="18"/>
<text text-anchor="middle" x="337.7014" y="-708.8" font-family="Times,serif" font-size="14.00" fill="#000000">IVault</text>
</g>
<!-- RouterFacet.directPoolDeposit&#45;&gt;RouterFacet.IVault -->
<g id="edge3" class="edge">
<title>RouterFacet.directPoolDeposit-&gt;RouterFacet.IVault</title>
<path fill="none" stroke="#1bc6a6" stroke-width="2" d="M191.691,-713C225.2577,-713 262.9674,-713 291.6546,-713"/>
<polygon fill="#1bc6a6" stroke="#1bc6a6" stroke-width="2" points="291.791,-716.5001 301.791,-713 291.791,-709.5001 291.791,-716.5001"/>
</g>
<!-- RouterFacet.swap -->
<g id="node4" class="node">
<title>RouterFacet.swap</title>
<ellipse fill="#ffbdb9" stroke="#ffbdb9" stroke-width="3" cx="110.6994" cy="-659" rx="30.7577" ry="18"/>
<text text-anchor="middle" x="110.6994" y="-654.8" font-family="Times,serif" font-size="14.00" fill="#000000">swap</text>
</g>
<!-- RouterFacet.swap&#45;&gt;RouterFacet._sender -->
<g id="edge5" class="edge">
<title>RouterFacet.swap-&gt;RouterFacet._sender</title>
<path fill="none" stroke="#1bc6a6" stroke-width="2" d="M141.7871,-659C179.0746,-659 242.1087,-659 286.5925,-659"/>
<polygon fill="#1bc6a6" stroke="#1bc6a6" stroke-width="2" points="286.6291,-662.5001 296.629,-659 286.629,-655.5001 286.6291,-662.5001"/>
</g>
<!-- RouterFacet.swap&#45;&gt;RouterFacet.IERC20 -->
<g id="edge4" class="edge">
<title>RouterFacet.swap-&gt;RouterFacet.IERC20</title>
<path fill="none" stroke="#1bc6a6" stroke-width="2" d="M139.4494,-652.1609C177.3821,-643.1373 244.6569,-627.1338 290.2022,-616.2993"/>
<polygon fill="#1bc6a6" stroke="#1bc6a6" stroke-width="2" points="291.2225,-619.6543 300.1411,-613.935 289.6025,-612.8443 291.2225,-619.6543"/>
</g>
<!-- RouterLib._swap -->
<g id="node13" class="node">
<title>RouterLib._swap</title>
<ellipse fill="#edad56" stroke="#edad56" stroke-width="3" cx="337.7014" cy="-196" rx="35.9154" ry="18"/>
<text text-anchor="middle" x="337.7014" y="-191.8" font-family="Times,serif" font-size="14.00" fill="#000000">_swap</text>
</g>
<!-- RouterFacet.swap&#45;&gt;RouterLib._swap -->
<g id="edge6" class="edge">
<title>RouterFacet.swap-&gt;RouterLib._swap</title>
<path fill="none" stroke="#ffffff" stroke-width="2" d="M141.6764,-658.8904C163.0411,-657.0212 190.2284,-650.7331 205.3989,-632 262.7328,-561.2022 175.2042,-293.0919 233.3989,-223 247.5177,-205.9947 270.8248,-198.9355 291.8298,-196.2636"/>
<polygon fill="#ffffff" stroke="#ffffff" stroke-width="2" points="292.2935,-199.7351 301.9061,-195.2801 291.6134,-192.7682 292.2935,-199.7351"/>
</g>
<!-- RouterFacet.swapETHToTokens -->
<g id="node5" class="node">
<title>RouterFacet.swapETHToTokens</title>
<ellipse fill="#ffbdb9" stroke="#a52a2a" stroke-width="3" cx="110.6994" cy="-443" rx="88.6082" ry="18"/>
<text text-anchor="middle" x="110.6994" y="-438.8" font-family="Times,serif" font-size="14.00" fill="#000000">swapETHToTokens</text>
</g>
<!-- RouterFacet.swapETHToTokens&#45;&gt;RouterLib._swap -->
<g id="edge8" class="edge">
<title>RouterFacet.swapETHToTokens-&gt;RouterLib._swap</title>
<path fill="none" stroke="#ffffff" stroke-width="2" d="M182.716,-432.2934C191.3077,-428.3609 199.209,-423.078 205.3989,-416 262.4579,-350.7546 175.5469,-287.5433 233.3989,-223 248.044,-206.661 271.1678,-199.6267 291.925,-196.8004"/>
<polygon fill="#ffffff" stroke="#ffffff" stroke-width="2" points="292.3096,-200.2794 301.8773,-195.7287 291.56,-193.3196 292.3096,-200.2794"/>
</g>
<!-- RouterLib._transferETHToVault -->
<g id="node14" class="node">
<title>RouterLib._transferETHToVault</title>
<ellipse fill="#edad56" stroke="#edad56" stroke-width="3" cx="337.7014" cy="-88" rx="96.1054" ry="18"/>
<text text-anchor="middle" x="337.7014" y="-83.8" font-family="Times,serif" font-size="14.00" fill="#000000">_transferETHToVault</text>
</g>
<!-- RouterFacet.swapETHToTokens&#45;&gt;RouterLib._transferETHToVault -->
<g id="edge7" class="edge">
<title>RouterFacet.swapETHToTokens-&gt;RouterLib._transferETHToVault</title>
<path fill="none" stroke="#ffffff" stroke-width="2" d="M183.5207,-432.3645C191.8789,-428.4107 199.5018,-423.1029 205.3989,-416 248.3103,-364.3139 189.8591,-166.1578 233.3989,-115 237.5757,-110.0924 242.5175,-106.0167 247.9426,-102.6378"/>
<polygon fill="#ffffff" stroke="#ffffff" stroke-width="2" points="249.661,-105.6879 256.8252,-97.8825 246.3571,-99.5166 249.661,-105.6879"/>
</g>
<!-- RouterFacet.swapTokensToETH -->
<g id="node6" class="node">
<title>RouterFacet.swapTokensToETH</title>
<ellipse fill="#ffbdb9" stroke="#ffbdb9" stroke-width="3" cx="110.6994" cy="-551" rx="88.6082" ry="18"/>
<text text-anchor="middle" x="110.6994" y="-546.8" font-family="Times,serif" font-size="14.00" fill="#000000">swapTokensToETH</text>
</g>
<!-- RouterFacet.swapTokensToETH&#45;&gt;RouterFacet._sender -->
<g id="edge10" class="edge">
<title>RouterFacet.swapTokensToETH-&gt;RouterFacet._sender</title>
<path fill="none" stroke="#1bc6a6" stroke-width="2" d="M178.263,-562.832C188.034,-566.5783 197.4558,-571.5095 205.3989,-578 226.3333,-595.106 212.257,-615.1511 233.3989,-632 248.5799,-644.0984 268.594,-650.8248 287.0275,-654.5466"/>
<polygon fill="#1bc6a6" stroke="#1bc6a6" stroke-width="2" points="286.6086,-658.0267 297.065,-656.3201 287.8266,-651.1334 286.6086,-658.0267"/>
</g>
<!-- RouterFacet.swapTokensToETH&#45;&gt;RouterFacet.IERC20 -->
<g id="edge9" class="edge">
<title>RouterFacet.swapTokensToETH-&gt;RouterFacet.IERC20</title>
<path fill="none" stroke="#1bc6a6" stroke-width="2" d="M168.569,-564.7662C206.229,-573.7249 254.7451,-585.2661 290.1509,-593.6885"/>
<polygon fill="#1bc6a6" stroke="#1bc6a6" stroke-width="2" points="289.691,-597.1767 300.2296,-596.0861 291.3111,-590.3668 289.691,-597.1767"/>
</g>
<!-- RouterFacet.swapTokensToETH&#45;&gt;RouterLib._swap -->
<g id="edge11" class="edge">
<title>RouterFacet.swapTokensToETH-&gt;RouterLib._swap</title>
<path fill="none" stroke="#ffffff" stroke-width="2" d="M183.5207,-540.3645C191.8789,-536.4107 199.5018,-531.1029 205.3989,-524 248.3103,-472.3139 189.8591,-274.1578 233.3989,-223 247.6721,-206.2295 270.8776,-199.1737 291.7806,-196.4443"/>
<polygon fill="#ffffff" stroke="#ffffff" stroke-width="2" points="292.2117,-199.9186 301.8079,-195.4283 291.506,-192.9543 292.2117,-199.9186"/>
</g>
<!-- RouterLib._transferOutETH -->
<g id="node15" class="node">
<title>RouterLib._transferOutETH</title>
<ellipse fill="#edad56" stroke="#edad56" stroke-width="3" cx="337.7014" cy="-142" rx="78.7086" ry="18"/>
<text text-anchor="middle" x="337.7014" y="-137.8" font-family="Times,serif" font-size="14.00" fill="#000000">_transferOutETH</text>
</g>
<!-- RouterFacet.swapTokensToETH&#45;&gt;RouterLib._transferOutETH -->
<g id="edge12" class="edge">
<title>RouterFacet.swapTokensToETH-&gt;RouterLib._transferOutETH</title>
<path fill="none" stroke="#ffffff" stroke-width="2" d="M183.6142,-540.4416C191.9579,-536.4758 199.5518,-531.1442 205.3989,-524 255.5188,-462.7614 182.5344,-229.6216 233.3989,-169 239.3587,-161.897 246.9212,-156.5324 255.2422,-152.4993"/>
<polygon fill="#ffffff" stroke="#ffffff" stroke-width="2" points="256.6468,-155.7058 264.5292,-148.6264 253.9525,-149.2451 256.6468,-155.7058"/>
</g>
<!-- RouterFacet.increasePosition -->
<g id="node7" class="node">
<title>RouterFacet.increasePosition</title>
<ellipse fill="#ffbdb9" stroke="#ffbdb9" stroke-width="3" cx="110.6994" cy="-605" rx="74.1528" ry="18"/>
<text text-anchor="middle" x="110.6994" y="-600.8" font-family="Times,serif" font-size="14.00" fill="#000000">increasePosition</text>
</g>
<!-- RouterFacet.increasePosition&#45;&gt;RouterFacet._sender -->
<g id="edge14" class="edge">
<title>RouterFacet.increasePosition-&gt;RouterFacet._sender</title>
<path fill="none" stroke="#1bc6a6" stroke-width="2" d="M163.9213,-617.6606C202.6113,-626.8643 254.4657,-639.1996 291.4371,-647.9945"/>
<polygon fill="#1bc6a6" stroke="#1bc6a6" stroke-width="2" points="290.9083,-651.4663 301.4469,-650.3757 292.5284,-644.6563 290.9083,-651.4663"/>
</g>
<!-- RouterFacet.increasePosition&#45;&gt;RouterFacet.IERC20 -->
<g id="edge13" class="edge">
<title>RouterFacet.increasePosition-&gt;RouterFacet.IERC20</title>
<path fill="none" stroke="#1bc6a6" stroke-width="2" d="M180.6598,-598.7124C214.8355,-597.951 255.2189,-598.13 286.4758,-599.2493"/>
<polygon fill="#1bc6a6" stroke="#1bc6a6" stroke-width="2" points="286.5701,-602.756 296.704,-599.665 286.8544,-595.7617 286.5701,-602.756"/>
</g>
<!-- RouterFacet.increasePosition&#45;&gt;RouterFacet.IERC20 -->
<g id="edge16" class="edge">
<title>RouterFacet.increasePosition-&gt;RouterFacet.IERC20</title>
<path fill="none" stroke="#1bc6a6" stroke-width="2" d="M180.6598,-611.2876C214.8355,-612.049 255.2189,-611.87 286.4758,-610.7507"/>
<polygon fill="#1bc6a6" stroke="#1bc6a6" stroke-width="2" points="286.8544,-614.2383 296.704,-610.335 286.5701,-607.244 286.8544,-614.2383"/>
</g>
<!-- RouterFacet.increasePosition&#45;&gt;RouterLib._swap -->
<g id="edge15" class="edge">
<title>RouterFacet.increasePosition-&gt;RouterLib._swap</title>
<path fill="none" stroke="#ffffff" stroke-width="2" d="M177.4717,-597.0745C188.2003,-592.9378 198.1442,-586.8641 205.3989,-578 255.5188,-516.7614 182.5344,-283.6216 233.3989,-223 247.6056,-206.0681 270.9194,-199.0145 291.9063,-196.3274"/>
<polygon fill="#ffffff" stroke="#ffffff" stroke-width="2" points="292.3636,-199.7994 301.9719,-195.3349 291.6767,-192.8332 292.3636,-199.7994"/>
</g>
<!-- RouterLib._increasePosition -->
<g id="node16" class="node">
<title>RouterLib._increasePosition</title>
<ellipse fill="#edad56" stroke="#edad56" stroke-width="3" cx="337.7014" cy="-250" rx="79.3096" ry="18"/>
<text text-anchor="middle" x="337.7014" y="-245.8" font-family="Times,serif" font-size="14.00" fill="#000000">_increasePosition</text>
</g>
<!-- RouterFacet.increasePosition&#45;&gt;RouterLib._increasePosition -->
<g id="edge17" class="edge">
<title>RouterFacet.increasePosition-&gt;RouterLib._increasePosition</title>
<path fill="none" stroke="#ffffff" stroke-width="2" d="M177.3023,-596.9342C188.0473,-592.811 198.0406,-586.7782 205.3989,-578 283.7527,-484.5264 165.1477,-406.0862 233.3989,-305 244.4707,-288.6017 262.0498,-276.7458 279.6443,-268.3399"/>
<polygon fill="#ffffff" stroke="#ffffff" stroke-width="2" points="281.1038,-271.5214 288.8121,-264.2528 278.2535,-265.1279 281.1038,-271.5214"/>
</g>
<!-- RouterFacet.increasePositionETH -->
<g id="node8" class="node">
<title>RouterFacet.increasePositionETH</title>
<ellipse fill="#ffbdb9" stroke="#a52a2a" stroke-width="3" cx="110.6994" cy="-497" rx="93.1929" ry="18"/>
<text text-anchor="middle" x="110.6994" y="-492.8" font-family="Times,serif" font-size="14.00" fill="#000000">increasePositionETH</text>
</g>
<!-- RouterFacet.increasePositionETH&#45;&gt;RouterFacet.IERC20 -->
<g id="edge20" class="edge">
<title>RouterFacet.increasePositionETH-&gt;RouterFacet.IERC20</title>
<path fill="none" stroke="#1bc6a6" stroke-width="2" d="M169.4207,-511.0524C181.5327,-514.6938 194.0491,-519.019 205.3989,-524 242.6226,-540.3361 281.9441,-565.5666 307.9498,-583.5242"/>
<polygon fill="#1bc6a6" stroke="#1bc6a6" stroke-width="2" points="306.0339,-586.4553 316.2363,-589.3121 310.0422,-580.7165 306.0339,-586.4553"/>
</g>
<!-- RouterFacet.increasePositionETH&#45;&gt;RouterLib._swap -->
<g id="edge19" class="edge">
<title>RouterFacet.increasePositionETH-&gt;RouterLib._swap</title>
<path fill="none" stroke="#ffffff" stroke-width="2" d="M184.3158,-485.8101C192.332,-481.9235 199.6517,-476.7824 205.3989,-470 276.8229,-385.711 160.9502,-306.4099 233.3989,-223 247.8401,-206.3739 271.0591,-199.3298 291.9276,-196.5707"/>
<polygon fill="#ffffff" stroke="#ffffff" stroke-width="2" points="292.3471,-200.0461 301.9346,-195.5372 291.6279,-193.0831 292.3471,-200.0461"/>
</g>
<!-- RouterFacet.increasePositionETH&#45;&gt;RouterLib._transferETHToVault -->
<g id="edge18" class="edge">
<title>RouterFacet.increasePositionETH-&gt;RouterLib._transferETHToVault</title>
<path fill="none" stroke="#ffffff" stroke-width="2" d="M184.5381,-485.9953C192.518,-482.0783 199.7684,-476.8796 205.3989,-470 255.5188,-408.7614 182.5344,-175.6216 233.3989,-115 237.5412,-110.0632 242.4576,-105.9661 247.8649,-102.5722"/>
<polygon fill="#ffffff" stroke="#ffffff" stroke-width="2" points="249.5821,-105.6227 256.7253,-97.7981 246.2617,-99.4603 249.5821,-105.6227"/>
</g>
<!-- RouterFacet.increasePositionETH&#45;&gt;RouterLib._increasePosition -->
<g id="edge21" class="edge">
<title>RouterFacet.increasePositionETH-&gt;RouterLib._increasePosition</title>
<path fill="none" stroke="#ffffff" stroke-width="2" d="M183.4968,-485.723C191.7508,-481.8599 199.3526,-476.7485 205.3989,-470 255.0336,-414.6011 189.7688,-365.2417 233.3989,-305 245.1071,-288.8341 263.0272,-277.0039 280.729,-268.5519"/>
<polygon fill="#ffffff" stroke="#ffffff" stroke-width="2" points="282.2329,-271.7134 289.9319,-264.4349 279.3744,-265.3237 282.2329,-271.7134"/>
</g>
<!-- RouterFacet.decreasePosition -->
<g id="node9" class="node">
<title>RouterFacet.decreasePosition</title>
<ellipse fill="#ffbdb9" stroke="#ffbdb9" stroke-width="3" cx="110.6994" cy="-335" rx="75.8586" ry="18"/>
<text text-anchor="middle" x="110.6994" y="-330.8" font-family="Times,serif" font-size="14.00" fill="#000000">decreasePosition</text>
</g>
<!-- RouterLib._decreasePosition -->
<g id="node17" class="node">
<title>RouterLib._decreasePosition</title>
<ellipse fill="#edad56" stroke="#edad56" stroke-width="3" cx="337.7014" cy="-34" rx="80.5162" ry="18"/>
<text text-anchor="middle" x="337.7014" y="-29.8" font-family="Times,serif" font-size="14.00" fill="#000000">_decreasePosition</text>
</g>
<!-- RouterFacet.decreasePosition&#45;&gt;RouterLib._decreasePosition -->
<g id="edge22" class="edge">
<title>RouterFacet.decreasePosition-&gt;RouterLib._decreasePosition</title>
<path fill="none" stroke="#ffffff" stroke-width="2" d="M113.3473,-316.7386C121.4849,-267.4619 150.787,-130.8 233.3989,-61 240.6628,-54.8626 249.1552,-50.0981 258.1017,-46.4031"/>
<polygon fill="#ffffff" stroke="#ffffff" stroke-width="2" points="259.3786,-49.6628 267.5567,-42.9271 256.9632,-43.0927 259.3786,-49.6628"/>
</g>
<!-- RouterFacet.decreasePositionETH -->
<g id="node10" class="node">
<title>RouterFacet.decreasePositionETH</title>
<ellipse fill="#ffbdb9" stroke="#ffbdb9" stroke-width="3" cx="110.6994" cy="-389" rx="94.8993" ry="18"/>
<text text-anchor="middle" x="110.6994" y="-384.8" font-family="Times,serif" font-size="14.00" fill="#000000">decreasePositionETH</text>
</g>
<!-- RouterFacet.decreasePositionETH&#45;&gt;RouterLib._transferOutETH -->
<g id="edge24" class="edge">
<title>RouterFacet.decreasePositionETH-&gt;RouterLib._transferOutETH</title>
<path fill="none" stroke="#ffffff" stroke-width="2" d="M184.5792,-377.4138C192.4479,-373.583 199.6592,-368.5632 205.3989,-362 262.4579,-296.7546 175.5469,-233.5433 233.3989,-169 239.5876,-162.0955 247.2903,-156.8526 255.6887,-152.8866"/>
<polygon fill="#ffffff" stroke="#ffffff" stroke-width="2" points="257.1038,-156.0894 265.0362,-149.0661 254.4553,-149.6097 257.1038,-156.0894"/>
</g>
<!-- RouterFacet.decreasePositionETH&#45;&gt;RouterLib._decreasePosition -->
<g id="edge23" class="edge">
<title>RouterFacet.decreasePositionETH-&gt;RouterLib._decreasePosition</title>
<path fill="none" stroke="#ffffff" stroke-width="2" d="M184.9068,-377.693C192.7206,-373.8154 199.8294,-368.7083 205.3989,-362 248.3103,-310.3139 189.8591,-112.1578 233.3989,-61 239.0627,-54.3452 246.133,-49.2201 253.9079,-45.2881"/>
<polygon fill="#ffffff" stroke="#ffffff" stroke-width="2" points="255.5396,-48.3953 263.3164,-41.2 252.7499,-41.9751 255.5396,-48.3953"/>
</g>
<!-- key -->
<g id="node18" class="node">
<title>key</title>
<polygon fill="#edad56" stroke="transparent" stroke-width="3" points="175.6994,-922 45.6994,-922 45.6994,-834 175.6994,-834 175.6994,-922"/>
<text text-anchor="start" x="95.3354" y="-903.4" font-family="Times,serif" font-size="14.00" fill="#000000">Internal Call</text>
<text text-anchor="start" x="91.4434" y="-883.4" font-family="Times,serif" font-size="14.00" fill="#000000">External Call</text>
<text text-anchor="start" x="68.9048" y="-863.4" font-family="Times,serif" font-size="14.00" fill="#000000">Defined Contract</text>
<text text-anchor="start" x="55.3021" y="-843.4" font-family="Times,serif" font-size="14.00" fill="#000000">Undefined Contract</text>
</g>
<!-- key2 -->
<g id="node19" class="node">
<title>key2</title>
<polygon fill="#edad56" stroke="transparent" stroke-width="3" points="364.7014,-922 310.7014,-922 310.7014,-834 364.7014,-834 364.7014,-922"/>
<text text-anchor="start" x="325.4605" y="-903.4" font-family="Times,serif" font-size="14.00" fill="#000000">   </text>
<text text-anchor="start" x="325.4605" y="-883.4" font-family="Times,serif" font-size="14.00" fill="#000000">   </text>
<polygon fill="#445773" stroke="transparent" points="323.7014,-858 323.7014,-878 351.7014,-878 351.7014,-858 323.7014,-858"/>
<text text-anchor="start" x="325.4605" y="-863.4" font-family="Times,serif" font-size="14.00" fill="#000000">   </text>
<polygon fill="none" stroke="#e8726d" points="325.7014,-840 325.7014,-856 349.7014,-856 349.7014,-840 325.7014,-840"/>
</g>
<!-- key&#45;&gt;key2 -->
<g id="edge25" class="edge">
<title>key:e-&gt;key2:w</title>
<path fill="none" stroke="#1bc6a6" stroke-width="2" d="M167.6994,-908C233.5128,-908 252.4727,-908 313.5274,-908"/>
<polygon fill="#1bc6a6" stroke="#1bc6a6" stroke-width="2" points="313.7014,-911.5001 323.7014,-908 313.7014,-904.5001 313.7014,-911.5001"/>
</g>
<!-- key&#45;&gt;key2 -->
<g id="edge26" class="edge">
<title>key:e-&gt;key2:w</title>
<path fill="none" stroke="#ffffff" stroke-width="2" d="M167.6994,-888C233.5128,-888 252.4727,-888 313.5274,-888"/>
<polygon fill="#ffffff" stroke="#ffffff" stroke-width="2" points="313.7014,-891.5001 323.7014,-888 313.7014,-884.5001 313.7014,-891.5001"/>
</g>
</g>
</svg>