<?xml version="1.0" encoding="UTF-8" standalone="no"?><!DOCTYPE svg PUBLIC "-//W3C//DTD SVG 1.1//EN" "http://www.w3.org/Graphics/SVG/1.1/DTD/svg11.dtd"><!-- Generated by graphviz version 2.40.1 (20161225.0304)
 --><!-- Title: G Pages: 1 --><svg xmlns="http://www.w3.org/2000/svg" xmlns:xlink="http://www.w3.org/1999/xlink" width="644pt" height="1002pt" viewBox="0.00 0.00 644.40 1002.00">
<g id="graph0" class="graph" transform="scale(1 1) rotate(0) translate(4 998)">
<title>G</title>
<polygon fill="#2e3e56" stroke="transparent" points="-4,4 -4,-998 640.3975,-998 640.3975,4 -4,4"/>
<g id="clust1" class="cluster">
<title>clusterIDistributor</title>
<path fill="#445773" stroke="#445773" d="M45.1837,-8C45.1837,-8 146.2111,-8 146.2111,-8 152.2111,-8 158.2111,-14 158.2111,-20 158.2111,-20 158.2111,-73 158.2111,-73 158.2111,-79 152.2111,-85 146.2111,-85 146.2111,-85 45.1837,-85 45.1837,-85 39.1837,-85 33.1837,-79 33.1837,-73 33.1837,-73 33.1837,-20 33.1837,-20 33.1837,-14 39.1837,-8 45.1837,-8"/>
<text text-anchor="middle" x="95.6974" y="-68.4" font-family="Times,serif" font-size="14.00" fill="#f0f0f0">IDistributor  (iface)</text>
</g>
<g id="clust2" class="cluster">
<title>clusterInNecc</title>
<path fill="#445773" stroke="#445773" d="M20,-93C20,-93 171.3948,-93 171.3948,-93 177.3948,-93 183.3948,-99 183.3948,-105 183.3948,-105 183.3948,-428 183.3948,-428 183.3948,-434 177.3948,-440 171.3948,-440 171.3948,-440 20,-440 20,-440 14,-440 8,-434 8,-428 8,-428 8,-105 8,-105 8,-99 14,-93 20,-93"/>
<text text-anchor="middle" x="95.6974" y="-423.4" font-family="Times,serif" font-size="14.00" fill="#f0f0f0">InNecc  (iface)</text>
</g>
<g id="clust3" class="cluster">
<title>clusterStakingFacet</title>
<path fill="#445773" stroke="#445773" d="M21.0787,-448C21.0787,-448 616.3975,-448 616.3975,-448 622.3975,-448 628.3975,-454 628.3975,-460 628.3975,-460 628.3975,-837 628.3975,-837 628.3975,-843 622.3975,-849 616.3975,-849 616.3975,-849 21.0787,-849 21.0787,-849 15.0787,-849 9.0787,-843 9.0787,-837 9.0787,-837 9.0787,-460 9.0787,-460 9.0787,-454 15.0787,-448 21.0787,-448"/>
<text text-anchor="middle" x="318.7381" y="-832.4" font-family="Times,serif" font-size="14.00" fill="#f0f0f0">StakingFacet</text>
</g>
<g id="clust4" class="cluster">
<title>clusterLibBondStorage</title>
<path fill="#3b4b63" stroke="#e8726d" stroke-dasharray="5,2" d="M216.4474,-363C216.4474,-363 300.7332,-363 300.7332,-363 306.7332,-363 312.7332,-369 312.7332,-375 312.7332,-375 312.7332,-428 312.7332,-428 312.7332,-434 306.7332,-440 300.7332,-440 300.7332,-440 216.4474,-440 216.4474,-440 210.4474,-440 204.4474,-434 204.4474,-428 204.4474,-428 204.4474,-375 204.4474,-375 204.4474,-369 210.4474,-363 216.4474,-363"/>
<text text-anchor="middle" x="258.5903" y="-423.4" font-family="Times,serif" font-size="14.00" fill="#f0f0f0">LibBondStorage</text>
</g>
<g id="clust5" class="cluster">
<title>clusterbalance</title>
<path fill="#3b4b63" stroke="#e8726d" stroke-dasharray="5,2" d="M397.4035,-363C397.4035,-363 443.4035,-363 443.4035,-363 449.4035,-363 455.4035,-369 455.4035,-375 455.4035,-375 455.4035,-428 455.4035,-428 455.4035,-434 449.4035,-440 443.4035,-440 443.4035,-440 397.4035,-440 397.4035,-440 391.4035,-440 385.4035,-434 385.4035,-428 385.4035,-428 385.4035,-375 385.4035,-375 385.4035,-369 391.4035,-363 397.4035,-363"/>
<text text-anchor="middle" x="420.4035" y="-423.4" font-family="Times,serif" font-size="14.00" fill="#f0f0f0">balance</text>
</g>
<g id="clust6" class="cluster">
<title>cluster_01</title>
<polygon fill="#2e3e56" stroke="#000000" points="22.6974,-857 22.6974,-986 293.0903,-986 293.0903,-857 22.6974,-857"/>
<text text-anchor="middle" x="157.8938" y="-969.4" font-family="Times,serif" font-size="14.00" fill="#000000">Legend</text>
</g>
<!-- IDistributor.distribute -->
<g id="node1" class="node">
<title>IDistributor.distribute</title>
<ellipse fill="#ffbdb9" stroke="#ffbdb9" stroke-width="3" cx="95.6974" cy="-34" rx="47.5274" ry="18"/>
<text text-anchor="middle" x="95.6974" y="-29.8" font-family="Times,serif" font-size="14.00" fill="#000000">distribute</text>
</g>
<!-- InNecc.rebase -->
<g id="node2" class="node">
<title>InNecc.rebase</title>
<ellipse fill="#ffbdb9" stroke="#ffbdb9" stroke-width="3" cx="95.6974" cy="-389" rx="35.8921" ry="18"/>
<text text-anchor="middle" x="95.6974" y="-384.8" font-family="Times,serif" font-size="14.00" fill="#000000">rebase</text>
</g>
<!-- InNecc.circulatingSupply -->
<g id="node3" class="node">
<title>InNecc.circulatingSupply</title>
<ellipse fill="#ffbdb9" stroke="#ffbdb9" stroke-width="3" cx="95.6974" cy="-335" rx="79.8953" ry="18"/>
<text text-anchor="middle" x="95.6974" y="-330.8" font-family="Times,serif" font-size="14.00" fill="#000000">circulatingSupply</text>
</g>
<!-- InNecc.balanceOf -->
<g id="node4" class="node">
<title>InNecc.balanceOf</title>
<ellipse fill="#ffbdb9" stroke="#ffbdb9" stroke-width="3" cx="95.6974" cy="-281" rx="50.9211" ry="18"/>
<text text-anchor="middle" x="95.6974" y="-276.8" font-family="Times,serif" font-size="14.00" fill="#000000">balanceOf</text>
</g>
<!-- InNecc.gonsForBalance -->
<g id="node5" class="node">
<title>InNecc.gonsForBalance</title>
<ellipse fill="#ffbdb9" stroke="#ffbdb9" stroke-width="3" cx="95.6974" cy="-227" rx="73.5772" ry="18"/>
<text text-anchor="middle" x="95.6974" y="-222.8" font-family="Times,serif" font-size="14.00" fill="#000000">gonsForBalance</text>
</g>
<!-- InNecc.balanceForGons -->
<g id="node6" class="node">
<title>InNecc.balanceForGons</title>
<ellipse fill="#ffbdb9" stroke="#ffbdb9" stroke-width="3" cx="95.6974" cy="-173" rx="74.1393" ry="18"/>
<text text-anchor="middle" x="95.6974" y="-168.8" font-family="Times,serif" font-size="14.00" fill="#000000">balanceForGons</text>
</g>
<!-- InNecc.index -->
<g id="node7" class="node">
<title>InNecc.index</title>
<ellipse fill="#ffbdb9" stroke="#ffbdb9" stroke-width="3" cx="95.6974" cy="-119" rx="32.4846" ry="18"/>
<text text-anchor="middle" x="95.6974" y="-114.8" font-family="Times,serif" font-size="14.00" fill="#000000">index</text>
</g>
<!-- StakingFacet.stake -->
<g id="node8" class="node">
<title>StakingFacet.stake</title>
<ellipse fill="#ffbdb9" stroke="#ffbdb9" stroke-width="3" cx="95.6974" cy="-744" rx="30.7558" ry="18"/>
<text text-anchor="middle" x="95.6974" y="-739.8" font-family="Times,serif" font-size="14.00" fill="#000000">stake</text>
</g>
<!-- StakingFacet._send -->
<g id="node12" class="node">
<title>StakingFacet._send</title>
<ellipse fill="#edad56" stroke="#edad56" stroke-width="3" cx="258.0903" cy="-771" rx="33.6286" ry="18"/>
<text text-anchor="middle" x="258.0903" y="-766.8" font-family="Times,serif" font-size="14.00" fill="#000000">_send</text>
</g>
<!-- StakingFacet.stake&#45;&gt;StakingFacet._send -->
<g id="edge3" class="edge">
<title>StakingFacet.stake-&gt;StakingFacet._send</title>
<path fill="none" stroke="#1bc6a6" stroke-width="2" d="M125.4827,-748.9522C150.8449,-753.169 187.5755,-759.276 215.9517,-763.9939"/>
<polygon fill="#1bc6a6" stroke="#1bc6a6" stroke-width="2" points="215.5529,-767.4756 225.9915,-765.6631 216.701,-760.5703 215.5529,-767.4756"/>
</g>
<!-- StakingFacet.rebase -->
<g id="node14" class="node">
<title>StakingFacet.rebase</title>
<ellipse fill="#edad56" stroke="#edad56" stroke-width="3" cx="258.0903" cy="-643" rx="35.8921" ry="18"/>
<text text-anchor="middle" x="258.0903" y="-638.8" font-family="Times,serif" font-size="14.00" fill="#000000">rebase</text>
</g>
<!-- StakingFacet.stake&#45;&gt;StakingFacet.rebase -->
<g id="edge1" class="edge">
<title>StakingFacet.stake-&gt;StakingFacet.rebase</title>
<path fill="none" stroke="#1bc6a6" stroke-width="2" d="M125.1998,-738.6449C142.9475,-734.5428 165.492,-727.724 183.3948,-717 204.7312,-704.2192 224.5146,-684.0813 238.3543,-668.038"/>
<polygon fill="#1bc6a6" stroke="#1bc6a6" stroke-width="2" points="241.2823,-669.9935 245.0265,-660.0823 235.9188,-665.4953 241.2823,-669.9935"/>
</g>
<!-- StakingFacet.IERC20 -->
<g id="node21" class="node">
<title>StakingFacet.IERC20</title>
<ellipse fill="#edad56" stroke="#edad56" stroke-width="3" cx="577.7094" cy="-670" rx="42.8771" ry="18"/>
<text text-anchor="middle" x="577.7094" y="-665.8" font-family="Times,serif" font-size="14.00" fill="#000000">IERC20</text>
</g>
<!-- StakingFacet.stake&#45;&gt;StakingFacet.IERC20 -->
<g id="edge2" class="edge">
<title>StakingFacet.stake-&gt;StakingFacet.IERC20</title>
<path fill="none" stroke="#1bc6a6" stroke-width="2" d="M126.0517,-740.643C216.7869,-730.5845 480.8252,-701.1316 499.0213,-697 511.4552,-694.1768 524.6711,-690.0898 536.6511,-685.9466"/>
<polygon fill="#1bc6a6" stroke="#1bc6a6" stroke-width="2" points="538.1346,-689.1335 546.3792,-682.4794 535.7845,-682.5398 538.1346,-689.1335"/>
</g>
<!-- LibBondStorage.Claim -->
<g id="node22" class="node">
<title>LibBondStorage.Claim</title>
<ellipse fill="#edad56" stroke="#edad56" stroke-width="3" cx="258.0903" cy="-389" rx="34.7864" ry="18"/>
<text text-anchor="middle" x="258.0903" y="-384.8" font-family="Times,serif" font-size="14.00" fill="#000000">Claim</text>
</g>
<!-- StakingFacet.stake&#45;&gt;LibBondStorage.Claim -->
<g id="edge4" class="edge">
<title>StakingFacet.stake-&gt;LibBondStorage.Claim</title>
<path fill="none" stroke="#ffffff" stroke-width="2" d="M126.5212,-742.9176C145.9589,-740.4831 169.8638,-733.9205 183.3948,-717 221.3962,-669.4792 179.3626,-499.4354 204.4474,-444 210.2182,-431.2471 220.2724,-419.7072 230.1284,-410.5289"/>
<polygon fill="#ffffff" stroke="#ffffff" stroke-width="2" points="232.7026,-412.9262 237.9045,-403.6964 228.0821,-407.6677 232.7026,-412.9262"/>
</g>
<!-- StakingFacet.claim -->
<g id="node9" class="node">
<title>StakingFacet.claim</title>
<ellipse fill="#ff9797" stroke="#ff9797" stroke-width="3" cx="95.6974" cy="-798" rx="32.4788" ry="18"/>
<text text-anchor="middle" x="95.6974" y="-793.8" font-family="Times,serif" font-size="14.00" fill="#000000">claim</text>
</g>
<!-- StakingFacet.claim&#45;&gt;StakingFacet._send -->
<g id="edge5" class="edge">
<title>StakingFacet.claim-&gt;StakingFacet._send</title>
<path fill="none" stroke="#1bc6a6" stroke-width="2" d="M127.0084,-792.7941C152.18,-788.609 187.7949,-782.6875 215.5496,-778.073"/>
<polygon fill="#1bc6a6" stroke="#1bc6a6" stroke-width="2" points="216.4734,-781.4675 225.7639,-776.3747 215.3253,-774.5623 216.4734,-781.4675"/>
</g>
<!-- StakingFacet.forfeit -->
<g id="node10" class="node">
<title>StakingFacet.forfeit</title>
<ellipse fill="#ffbdb9" stroke="#ffbdb9" stroke-width="3" cx="420.4035" cy="-670" rx="35.3276" ry="18"/>
<text text-anchor="middle" x="420.4035" y="-665.8" font-family="Times,serif" font-size="14.00" fill="#000000">forfeit</text>
</g>
<!-- StakingFacet.forfeit&#45;&gt;StakingFacet.IERC20 -->
<g id="edge6" class="edge">
<title>StakingFacet.forfeit-&gt;StakingFacet.IERC20</title>
<path fill="none" stroke="#1bc6a6" stroke-width="2" d="M455.706,-670C476.0513,-670 502.0245,-670 524.7727,-670"/>
<polygon fill="#1bc6a6" stroke="#1bc6a6" stroke-width="2" points="524.9659,-673.5001 534.9659,-670 524.9659,-666.5001 524.9659,-673.5001"/>
</g>
<!-- StakingFacet.unstake -->
<g id="node11" class="node">
<title>StakingFacet.unstake</title>
<ellipse fill="#ffbdb9" stroke="#ffbdb9" stroke-width="3" cx="95.6974" cy="-690" rx="40.5693" ry="18"/>
<text text-anchor="middle" x="95.6974" y="-685.8" font-family="Times,serif" font-size="14.00" fill="#000000">unstake</text>
</g>
<!-- StakingFacet.unstake&#45;&gt;StakingFacet.rebase -->
<g id="edge7" class="edge">
<title>StakingFacet.unstake-&gt;StakingFacet.rebase</title>
<path fill="none" stroke="#1bc6a6" stroke-width="2" d="M129.7403,-680.1473C155.2234,-672.7719 190.1894,-662.652 217.1908,-654.8372"/>
<polygon fill="#1bc6a6" stroke="#1bc6a6" stroke-width="2" points="218.4803,-658.1077 227.113,-651.9655 216.5342,-651.3836 218.4803,-658.1077"/>
</g>
<!-- StakingFacet.unstake&#45;&gt;StakingFacet.IERC20 -->
<g id="edge8" class="edge">
<title>StakingFacet.unstake-&gt;StakingFacet.IERC20</title>
<path fill="none" stroke="#1bc6a6" stroke-width="2" d="M127.667,-678.862C145.8535,-674.3644 168.0015,-667.6148 183.3948,-654 200.5396,-638.8359 186.5336,-621.2475 204.4474,-607 253.1339,-568.2777 279.8709,-586.0284 341.7858,-580 411.3393,-573.2279 434.6536,-552.7905 499.0213,-580 528.0954,-592.2902 551.7227,-621.159 565.2547,-643.1313"/>
<polygon fill="#1bc6a6" stroke="#1bc6a6" stroke-width="2" points="562.3831,-645.1568 570.4226,-652.0573 568.441,-641.6494 562.3831,-645.1568"/>
</g>
<!-- StakingFacet.unstake&#45;&gt;StakingFacet.IERC20 -->
<g id="edge9" class="edge">
<title>StakingFacet.unstake-&gt;StakingFacet.IERC20</title>
<path fill="none" stroke="#1bc6a6" stroke-width="2" d="M135.9265,-693.2854C152.2312,-690.2272 170.2687,-683.6096 183.3948,-672 200.5396,-656.8359 186.5336,-639.2475 204.4474,-625 253.1339,-586.2777 279.8709,-604.0284 341.7858,-598 411.3393,-591.2279 434.6536,-570.7905 499.0213,-598 522.2997,-607.8403 542.0865,-628.3083 555.9957,-645.0571"/>
<polygon fill="#1bc6a6" stroke="#1bc6a6" stroke-width="2" points="553.3364,-647.335 562.3412,-652.9176 558.7831,-642.938 553.3364,-647.335"/>
</g>
<!-- StakingFacet.index -->
<g id="node13" class="node">
<title>StakingFacet.index</title>
<ellipse fill="#ff9797" stroke="#ff9797" stroke-width="3" cx="95.6974" cy="-636" rx="32.4846" ry="18"/>
<text text-anchor="middle" x="95.6974" y="-631.8" font-family="Times,serif" font-size="14.00" fill="#000000">index</text>
</g>
<!-- StakingFacet.contractBalance -->
<g id="node15" class="node">
<title>StakingFacet.contractBalance</title>
<ellipse fill="#edad56" stroke="#edad56" stroke-width="3" cx="420.4035" cy="-616" rx="73.4707" ry="18"/>
<text text-anchor="middle" x="420.4035" y="-611.8" font-family="Times,serif" font-size="14.00" fill="#000000">contractBalance</text>
</g>
<!-- StakingFacet.rebase&#45;&gt;StakingFacet.contractBalance -->
<g id="edge10" class="edge">
<title>StakingFacet.rebase-&gt;StakingFacet.contractBalance</title>
<path fill="none" stroke="#1bc6a6" stroke-width="2" d="M292.1165,-637.3399C308.8166,-634.5619 329.5912,-631.1062 349.5252,-627.7903"/>
<polygon fill="#1bc6a6" stroke="#1bc6a6" stroke-width="2" points="350.2429,-631.2191 359.533,-626.1255 349.0942,-624.3139 350.2429,-631.2191"/>
</g>
<!-- balance.sub -->
<g id="node23" class="node">
<title>balance.sub</title>
<ellipse fill="#edad56" stroke="#edad56" stroke-width="3" cx="420.4035" cy="-389" rx="27" ry="18"/>
<text text-anchor="middle" x="420.4035" y="-384.8" font-family="Times,serif" font-size="14.00" fill="#000000">sub</text>
</g>
<!-- StakingFacet.rebase&#45;&gt;balance.sub -->
<g id="edge11" class="edge">
<title>StakingFacet.rebase-&gt;balance.sub</title>
<path fill="none" stroke="#ffffff" stroke-width="2" d="M262.0545,-625.0335C270.9682,-587.8826 295.5203,-501.3021 341.7858,-444 354.7319,-427.9656 373.5266,-414.5837 389.4932,-405.0355"/>
<polygon fill="#ffffff" stroke="#ffffff" stroke-width="2" points="391.5706,-407.8787 398.5017,-399.8656 388.0864,-401.8075 391.5706,-407.8787"/>
</g>
<!-- StakingFacet.contractBalance&#45;&gt;StakingFacet.IERC20 -->
<g id="edge12" class="edge">
<title>StakingFacet.contractBalance-&gt;StakingFacet.IERC20</title>
<path fill="none" stroke="#1bc6a6" stroke-width="2" d="M463.3881,-630.7557C485.6548,-638.3995 512.7604,-647.7043 534.9888,-655.3349"/>
<polygon fill="#1bc6a6" stroke="#1bc6a6" stroke-width="2" points="533.9104,-658.6651 544.5051,-658.6016 536.1832,-652.0443 533.9104,-658.6651"/>
</g>
<!-- StakingFacet.giveLockBonus -->
<g id="node16" class="node">
<title>StakingFacet.giveLockBonus</title>
<ellipse fill="#ffbdb9" stroke="#ffbdb9" stroke-width="3" cx="420.4035" cy="-798" rx="72.3768" ry="18"/>
<text text-anchor="middle" x="420.4035" y="-793.8" font-family="Times,serif" font-size="14.00" fill="#000000">giveLockBonus</text>
</g>
<!-- StakingFacet.giveLockBonus&#45;&gt;StakingFacet.IERC20 -->
<g id="edge13" class="edge">
<title>StakingFacet.giveLockBonus-&gt;StakingFacet.IERC20</title>
<path fill="none" stroke="#1bc6a6" stroke-width="2" d="M471.5797,-785.2462C481.1948,-781.5465 490.7988,-776.8686 499.0213,-771 526.5313,-751.3655 549.1214,-719.4245 562.9312,-696.7225"/>
<polygon fill="#1bc6a6" stroke="#1bc6a6" stroke-width="2" points="566.0573,-698.3117 568.1291,-687.9214 560.03,-694.752 566.0573,-698.3117"/>
</g>
<!-- StakingFacet.returnLockBonus -->
<g id="node17" class="node">
<title>StakingFacet.returnLockBonus</title>
<ellipse fill="#ffbdb9" stroke="#ffbdb9" stroke-width="3" cx="420.4035" cy="-744" rx="78.7357" ry="18"/>
<text text-anchor="middle" x="420.4035" y="-739.8" font-family="Times,serif" font-size="14.00" fill="#000000">returnLockBonus</text>
</g>
<!-- StakingFacet.returnLockBonus&#45;&gt;StakingFacet.IERC20 -->
<g id="edge14" class="edge">
<title>StakingFacet.returnLockBonus-&gt;StakingFacet.IERC20</title>
<path fill="none" stroke="#1bc6a6" stroke-width="2" d="M460.7454,-728.5138C473.1402,-723.5067 486.7461,-717.7552 499.0213,-712 513.7168,-705.11 529.5692,-696.8215 543.1679,-689.4346"/>
<polygon fill="#1bc6a6" stroke="#1bc6a6" stroke-width="2" points="545.0947,-692.3697 552.1804,-684.4929 541.7292,-686.2319 545.0947,-692.3697"/>
</g>
<!-- StakingFacet.epoch -->
<g id="node18" class="node">
<title>StakingFacet.epoch</title>
<ellipse fill="#ff9797" stroke="#ff9797" stroke-width="3" cx="95.6974" cy="-582" rx="34.191" ry="18"/>
<text text-anchor="middle" x="95.6974" y="-577.8" font-family="Times,serif" font-size="14.00" fill="#000000">epoch</text>
</g>
<!-- StakingFacet.warmupInfo -->
<g id="node19" class="node">
<title>StakingFacet.warmupInfo</title>
<ellipse fill="#ff9797" stroke="#ff9797" stroke-width="3" cx="95.6974" cy="-528" rx="58.5309" ry="18"/>
<text text-anchor="middle" x="95.6974" y="-523.8" font-family="Times,serif" font-size="14.00" fill="#000000">warmupInfo</text>
</g>
<!-- StakingFacet.supplyInWarmup -->
<g id="node20" class="node">
<title>StakingFacet.supplyInWarmup</title>
<ellipse fill="#ff9797" stroke="#ff9797" stroke-width="3" cx="95.6974" cy="-474" rx="78.7376" ry="18"/>
<text text-anchor="middle" x="95.6974" y="-469.8" font-family="Times,serif" font-size="14.00" fill="#000000">supplyInWarmup</text>
</g>
<!-- key -->
<g id="node24" class="node">
<title>key</title>
<polygon fill="#edad56" stroke="transparent" stroke-width="3" points="160.6974,-953 30.6974,-953 30.6974,-865 160.6974,-865 160.6974,-953"/>
<text text-anchor="start" x="80.3334" y="-934.4" font-family="Times,serif" font-size="14.00" fill="#000000">Internal Call</text>
<text text-anchor="start" x="76.4414" y="-914.4" font-family="Times,serif" font-size="14.00" fill="#000000">External Call</text>
<text text-anchor="start" x="53.9028" y="-894.4" font-family="Times,serif" font-size="14.00" fill="#000000">Defined Contract</text>
<text text-anchor="start" x="40.3001" y="-874.4" font-family="Times,serif" font-size="14.00" fill="#000000">Undefined Contract</text>
</g>
<!-- key2 -->
<g id="node25" class="node">
<title>key2</title>
<polygon fill="#edad56" stroke="transparent" stroke-width="3" points="285.0903,-953 231.0903,-953 231.0903,-865 285.0903,-865 285.0903,-953"/>
<text text-anchor="start" x="245.8494" y="-934.4" font-family="Times,serif" font-size="14.00" fill="#000000">   </text>
<text text-anchor="start" x="245.8494" y="-914.4" font-family="Times,serif" font-size="14.00" fill="#000000">   </text>
<polygon fill="#445773" stroke="transparent" points="244.0903,-889 244.0903,-909 272.0903,-909 272.0903,-889 244.0903,-889"/>
<text text-anchor="start" x="245.8494" y="-894.4" font-family="Times,serif" font-size="14.00" fill="#000000">   </text>
<polygon fill="none" stroke="#e8726d" points="246.0903,-871 246.0903,-887 270.0903,-887 270.0903,-871 246.0903,-871"/>
</g>
<!-- key&#45;&gt;key2 -->
<g id="edge15" class="edge">
<title>key:e-&gt;key2:w</title>
<path fill="none" stroke="#1bc6a6" stroke-width="2" d="M152.6974,-939C189.6671,-939 201.4006,-939 233.8357,-939"/>
<polygon fill="#1bc6a6" stroke="#1bc6a6" stroke-width="2" points="234.0903,-942.5001 244.0903,-939 234.0903,-935.5001 234.0903,-942.5001"/>
</g>
<!-- key&#45;&gt;key2 -->
<g id="edge16" class="edge">
<title>key:e-&gt;key2:w</title>
<path fill="none" stroke="#ffffff" stroke-width="2" d="M152.6974,-919C189.6671,-919 201.4006,-919 233.8357,-919"/>
<polygon fill="#ffffff" stroke="#ffffff" stroke-width="2" points="234.0903,-922.5001 244.0903,-919 234.0903,-915.5001 234.0903,-922.5001"/>
</g>
</g>
</svg>