<?xml version="1.0" encoding="UTF-8" standalone="no"?><!DOCTYPE svg PUBLIC "-//W3C//DTD SVG 1.1//EN" "http://www.w3.org/Graphics/SVG/1.1/DTD/svg11.dtd"><!-- Generated by graphviz version 2.40.1 (20161225.0304)
 --><!-- Title: G Pages: 1 --><svg xmlns="http://www.w3.org/2000/svg" xmlns:xlink="http://www.w3.org/1999/xlink" width="720pt" height="988pt" viewBox="0.00 0.00 719.73 988.00">
<g id="graph0" class="graph" transform="scale(1 1) rotate(0) translate(4 984)">
<title>G</title>
<polygon fill="#2e3e56" stroke="transparent" points="-4,4 -4,-984 715.7295,-984 715.7295,4 -4,4"/>
<g id="clust1" class="cluster">
<title>clusterIBondCalculator</title>
<path fill="#445773" stroke="#445773" d="M42.4196,-8C42.4196,-8 170.3692,-8 170.3692,-8 176.3692,-8 182.3692,-14 182.3692,-20 182.3692,-20 182.3692,-73 182.3692,-73 182.3692,-79 176.3692,-85 170.3692,-85 170.3692,-85 42.4196,-85 42.4196,-85 36.4196,-85 30.4196,-79 30.4196,-73 30.4196,-73 30.4196,-20 30.4196,-20 30.4196,-14 36.4196,-8 42.4196,-8"/>
<text text-anchor="middle" x="106.3944" y="-68.4" font-family="Times,serif" font-size="14.00" fill="#f0f0f0">IBondCalculator  (iface)</text>
</g>
<g id="clust2" class="cluster">
<title>clusterIERC20Mintable</title>
<path fill="#445773" stroke="#445773" d="M40.734,-93C40.734,-93 172.0548,-93 172.0548,-93 178.0548,-93 184.0548,-99 184.0548,-105 184.0548,-105 184.0548,-266 184.0548,-266 184.0548,-272 178.0548,-278 172.0548,-278 172.0548,-278 40.734,-278 40.734,-278 34.734,-278 28.734,-272 28.734,-266 28.734,-266 28.734,-105 28.734,-105 28.734,-99 34.734,-93 40.734,-93"/>
<text text-anchor="middle" x="106.3944" y="-261.4" font-family="Times,serif" font-size="14.00" fill="#f0f0f0">IERC20Mintable  (iface)</text>
</g>
<g id="clust3" class="cluster">
<title>clusterTreasuryFacet</title>
<path fill="#445773" stroke="#445773" d="M20,-286C20,-286 601.7295,-286 601.7295,-286 607.7295,-286 613.7295,-292 613.7295,-298 613.7295,-298 613.7295,-823 613.7295,-823 613.7295,-829 607.7295,-835 601.7295,-835 601.7295,-835 20,-835 20,-835 14,-835 8,-829 8,-823 8,-823 8,-298 8,-298 8,-292 14,-286 20,-286"/>
<text text-anchor="middle" x="310.8647" y="-818.4" font-family="Times,serif" font-size="14.00" fill="#f0f0f0">TreasuryFacet</text>
</g>
<g id="clust4" class="cluster">
<title>clustervalue</title>
<path fill="#3b4b63" stroke="#e8726d" stroke-dasharray="5,2" d="M515.9212,-201C515.9212,-201 561.9212,-201 561.9212,-201 567.9212,-201 573.9212,-207 573.9212,-213 573.9212,-213 573.9212,-266 573.9212,-266 573.9212,-272 567.9212,-278 561.9212,-278 561.9212,-278 515.9212,-278 515.9212,-278 509.9212,-278 503.9212,-272 503.9212,-266 503.9212,-266 503.9212,-213 503.9212,-213 503.9212,-207 509.9212,-201 515.9212,-201"/>
<text text-anchor="middle" x="538.9212" y="-261.4" font-family="Times,serif" font-size="14.00" fill="#f0f0f0">value</text>
</g>
<g id="clust5" class="cluster">
<title>clustermaximumDebt</title>
<path fill="#3b4b63" stroke="#e8726d" stroke-dasharray="5,2" d="M501.9212,-116C501.9212,-116 576.9212,-116 576.9212,-116 582.9212,-116 588.9212,-122 588.9212,-128 588.9212,-128 588.9212,-181 588.9212,-181 588.9212,-187 582.9212,-193 576.9212,-193 576.9212,-193 501.9212,-193 501.9212,-193 495.9212,-193 489.9212,-187 489.9212,-181 489.9212,-181 489.9212,-128 489.9212,-128 489.9212,-122 495.9212,-116 501.9212,-116"/>
<text text-anchor="middle" x="539.4212" y="-176.4" font-family="Times,serif" font-size="14.00" fill="#f0f0f0">maximumDebt</text>
</g>
<g id="clust6" class="cluster">
<title>clusterreserves</title>
<path fill="#3b4b63" stroke="#e8726d" stroke-dasharray="5,2" d="M515.9212,-31C515.9212,-31 561.9212,-31 561.9212,-31 567.9212,-31 573.9212,-37 573.9212,-43 573.9212,-43 573.9212,-96 573.9212,-96 573.9212,-102 567.9212,-108 561.9212,-108 561.9212,-108 515.9212,-108 515.9212,-108 509.9212,-108 503.9212,-102 503.9212,-96 503.9212,-96 503.9212,-43 503.9212,-43 503.9212,-37 509.9212,-31 515.9212,-31"/>
<text text-anchor="middle" x="538.9212" y="-91.4" font-family="Times,serif" font-size="14.00" fill="#f0f0f0">reserves</text>
</g>
<g id="clust7" class="cluster">
<title>cluster_amount</title>
<path fill="#3b4b63" stroke="#e8726d" stroke-dasharray="5,2" d="M645.7295,-522C645.7295,-522 691.7295,-522 691.7295,-522 697.7295,-522 703.7295,-528 703.7295,-534 703.7295,-534 703.7295,-587 703.7295,-587 703.7295,-593 697.7295,-599 691.7295,-599 691.7295,-599 645.7295,-599 645.7295,-599 639.7295,-599 633.7295,-593 633.7295,-587 633.7295,-587 633.7295,-534 633.7295,-534 633.7295,-528 639.7295,-522 645.7295,-522"/>
<text text-anchor="middle" x="668.7295" y="-582.4" font-family="Times,serif" font-size="14.00" fill="#f0f0f0">_amount</text>
</g>
<g id="clust8" class="cluster">
<title>cluster_01</title>
<polygon fill="#2e3e56" stroke="#000000" points="33.3944,-843 33.3944,-972 369.4509,-972 369.4509,-843 33.3944,-843"/>
<text text-anchor="middle" x="201.4226" y="-955.4" font-family="Times,serif" font-size="14.00" fill="#000000">Legend</text>
</g>
<!-- IBondCalculator.valuation -->
<g id="node1" class="node">
<title>IBondCalculator.valuation</title>
<ellipse fill="#ffbdb9" stroke="#ffbdb9" stroke-width="3" cx="106.3944" cy="-34" rx="46.9497" ry="18"/>
<text text-anchor="middle" x="106.3944" y="-29.8" font-family="Times,serif" font-size="14.00" fill="#000000">valuation</text>
</g>
<!-- IERC20Mintable.decimals -->
<g id="node2" class="node">
<title>IERC20Mintable.decimals</title>
<ellipse fill="#ffbdb9" stroke="#ffbdb9" stroke-width="3" cx="106.3944" cy="-227" rx="45.2208" ry="18"/>
<text text-anchor="middle" x="106.3944" y="-222.8" font-family="Times,serif" font-size="14.00" fill="#000000">decimals</text>
</g>
<!-- IERC20Mintable.mint -->
<g id="node3" class="node">
<title>IERC20Mintable.mint</title>
<ellipse fill="#ffbdb9" stroke="#ffbdb9" stroke-width="3" cx="106.3944" cy="-173" rx="28.991" ry="18"/>
<text text-anchor="middle" x="106.3944" y="-168.8" font-family="Times,serif" font-size="14.00" fill="#000000">mint</text>
</g>
<!-- IERC20Mintable.burnFrom -->
<g id="node4" class="node">
<title>IERC20Mintable.burnFrom</title>
<ellipse fill="#ffbdb9" stroke="#ffbdb9" stroke-width="3" cx="106.3944" cy="-119" rx="49.8214" ry="18"/>
<text text-anchor="middle" x="106.3944" y="-114.8" font-family="Times,serif" font-size="14.00" fill="#000000">burnFrom</text>
</g>
<!-- TreasuryFacet.initializeTreasury -->
<g id="node5" class="node">
<title>TreasuryFacet.initializeTreasury</title>
<ellipse fill="#ffbdb9" stroke="#ffbdb9" stroke-width="3" cx="334.4509" cy="-420" rx="79.2845" ry="18"/>
<text text-anchor="middle" x="334.4509" y="-415.8" font-family="Times,serif" font-size="14.00" fill="#000000">initializeTreasury</text>
</g>
<!-- TreasuryFacet.onlyGov -->
<g id="node20" class="node">
<title>TreasuryFacet.onlyGov</title>
<ellipse fill="#edad56" stroke="#edad56" stroke-width="3" cx="538.9212" cy="-420" rx="44.6684" ry="18"/>
<text text-anchor="middle" x="538.9212" y="-415.8" font-family="Times,serif" font-size="14.00" fill="#000000">onlyGov</text>
</g>
<!-- TreasuryFacet.initializeTreasury&#45;&gt;TreasuryFacet.onlyGov -->
<g id="edge1" class="edge">
<title>TreasuryFacet.initializeTreasury-&gt;TreasuryFacet.onlyGov</title>
<path fill="none" stroke="#1bc6a6" stroke-width="2" d="M413.7971,-420C437.1429,-420 462.1672,-420 483.6547,-420"/>
<polygon fill="#1bc6a6" stroke="#1bc6a6" stroke-width="2" points="483.8962,-423.5001 493.8961,-420 483.8961,-416.5001 483.8962,-423.5001"/>
</g>
<!-- TreasuryFacet.mintRewards -->
<g id="node6" class="node">
<title>TreasuryFacet.mintRewards</title>
<ellipse fill="#ffbdb9" stroke="#ffbdb9" stroke-width="3" cx="106.3944" cy="-784" rx="62.5566" ry="18"/>
<text text-anchor="middle" x="106.3944" y="-779.8" font-family="Times,serif" font-size="14.00" fill="#000000">mintRewards</text>
</g>
<!-- TreasuryFacet.excessReserves -->
<g id="node13" class="node">
<title>TreasuryFacet.excessReserves</title>
<ellipse fill="#edad56" stroke="#edad56" stroke-width="3" cx="334.4509" cy="-784" rx="71.1823" ry="18"/>
<text text-anchor="middle" x="334.4509" y="-779.8" font-family="Times,serif" font-size="14.00" fill="#000000">excessReserves</text>
</g>
<!-- TreasuryFacet.mintRewards&#45;&gt;TreasuryFacet.excessReserves -->
<g id="edge2" class="edge">
<title>TreasuryFacet.mintRewards-&gt;TreasuryFacet.excessReserves</title>
<path fill="none" stroke="#1bc6a6" stroke-width="2" d="M169.0135,-784C194.9678,-784 225.4163,-784 253.0678,-784"/>
<polygon fill="#1bc6a6" stroke="#1bc6a6" stroke-width="2" points="253.1152,-787.5001 263.1152,-784 253.1152,-780.5001 253.1152,-787.5001"/>
</g>
<!-- TreasuryFacet.deposit -->
<g id="node7" class="node">
<title>TreasuryFacet.deposit</title>
<ellipse fill="#ffbdb9" stroke="#ffbdb9" stroke-width="3" cx="334.4509" cy="-548" rx="38.8632" ry="18"/>
<text text-anchor="middle" x="334.4509" y="-543.8" font-family="Times,serif" font-size="14.00" fill="#000000">deposit</text>
</g>
<!-- TreasuryFacet.valueOfToken -->
<g id="node15" class="node">
<title>TreasuryFacet.valueOfToken</title>
<ellipse fill="#edad56" stroke="#edad56" stroke-width="3" cx="538.9212" cy="-548" rx="66.6171" ry="18"/>
<text text-anchor="middle" x="538.9212" y="-543.8" font-family="Times,serif" font-size="14.00" fill="#000000">valueOfToken</text>
</g>
<!-- TreasuryFacet.deposit&#45;&gt;TreasuryFacet.valueOfToken -->
<g id="edge4" class="edge">
<title>TreasuryFacet.deposit-&gt;TreasuryFacet.valueOfToken</title>
<path fill="none" stroke="#1bc6a6" stroke-width="2" d="M373.3915,-548C398.3758,-548 431.6748,-548 461.8538,-548"/>
<polygon fill="#1bc6a6" stroke="#1bc6a6" stroke-width="2" points="461.9523,-551.5001 471.9523,-548 461.9523,-544.5001 461.9523,-551.5001"/>
</g>
<!-- TreasuryFacet.IERC20 -->
<g id="node21" class="node">
<title>TreasuryFacet.IERC20</title>
<ellipse fill="#edad56" stroke="#edad56" stroke-width="3" cx="538.9212" cy="-602" rx="42.8771" ry="18"/>
<text text-anchor="middle" x="538.9212" y="-597.8" font-family="Times,serif" font-size="14.00" fill="#000000">IERC20</text>
</g>
<!-- TreasuryFacet.deposit&#45;&gt;TreasuryFacet.IERC20 -->
<g id="edge3" class="edge">
<title>TreasuryFacet.deposit-&gt;TreasuryFacet.IERC20</title>
<path fill="none" stroke="#1bc6a6" stroke-width="2" d="M368.6746,-557.0384C402.6963,-566.0234 455.1082,-579.8652 492.7898,-589.8168"/>
<polygon fill="#1bc6a6" stroke="#1bc6a6" stroke-width="2" points="491.953,-593.2158 502.5152,-592.3853 493.7404,-586.4478 491.953,-593.2158"/>
</g>
<!-- value.sub -->
<g id="node22" class="node">
<title>value.sub</title>
<ellipse fill="#edad56" stroke="#edad56" stroke-width="3" cx="538.9212" cy="-227" rx="27" ry="18"/>
<text text-anchor="middle" x="538.9212" y="-222.8" font-family="Times,serif" font-size="14.00" fill="#000000">sub</text>
</g>
<!-- TreasuryFacet.deposit&#45;&gt;value.sub -->
<g id="edge5" class="edge">
<title>TreasuryFacet.deposit-&gt;value.sub</title>
<path fill="none" stroke="#ffffff" stroke-width="2" d="M369.9686,-540.5738C392.4109,-533.996 420.1019,-522.0468 436.113,-501 495.8348,-422.4947 422.8886,-367.4795 472.113,-282 480.969,-266.6212 495.8767,-253.7245 509.3656,-244.2936"/>
<polygon fill="#ffffff" stroke="#ffffff" stroke-width="2" points="511.5456,-247.0478 517.947,-238.6054 507.6781,-241.2131 511.5456,-247.0478"/>
</g>
<!-- TreasuryFacet.withdraw -->
<g id="node8" class="node">
<title>TreasuryFacet.withdraw</title>
<ellipse fill="#ffbdb9" stroke="#ffbdb9" stroke-width="3" cx="334.4509" cy="-710" rx="47.51" ry="18"/>
<text text-anchor="middle" x="334.4509" y="-705.8" font-family="Times,serif" font-size="14.00" fill="#000000">withdraw</text>
</g>
<!-- TreasuryFacet.withdraw&#45;&gt;TreasuryFacet.valueOfToken -->
<g id="edge6" class="edge">
<title>TreasuryFacet.withdraw-&gt;TreasuryFacet.valueOfToken</title>
<path fill="none" stroke="#1bc6a6" stroke-width="2" d="M381.3905,-707.1401C400.4563,-703.7381 421.4078,-696.8184 436.113,-683 472.9845,-648.3519 437.4679,-611.8744 472.113,-575 475.2824,-571.6266 478.9313,-568.6643 482.8547,-566.0648"/>
<polygon fill="#1bc6a6" stroke="#1bc6a6" stroke-width="2" points="484.8685,-568.9447 491.8031,-560.9346 481.3869,-562.872 484.8685,-568.9447"/>
</g>
<!-- TreasuryFacet.withdraw&#45;&gt;TreasuryFacet.IERC20 -->
<g id="edge7" class="edge">
<title>TreasuryFacet.withdraw-&gt;TreasuryFacet.IERC20</title>
<path fill="none" stroke="#1bc6a6" stroke-width="2" d="M377.8977,-702.5476C396.4599,-698.3411 417.9809,-692.0615 436.113,-683 465.9,-668.1139 495.274,-643.7273 514.9466,-625.5955"/>
<polygon fill="#1bc6a6" stroke="#1bc6a6" stroke-width="2" points="517.3514,-628.1387 522.2463,-618.7424 512.5602,-623.0353 517.3514,-628.1387"/>
</g>
<!-- TreasuryFacet.incurDebt -->
<g id="node9" class="node">
<title>TreasuryFacet.incurDebt</title>
<ellipse fill="#ffbdb9" stroke="#ffbdb9" stroke-width="3" cx="334.4509" cy="-602" rx="49.7981" ry="18"/>
<text text-anchor="middle" x="334.4509" y="-597.8" font-family="Times,serif" font-size="14.00" fill="#000000">incurDebt</text>
</g>
<!-- TreasuryFacet.incurDebt&#45;&gt;TreasuryFacet.valueOfToken -->
<g id="edge8" class="edge">
<title>TreasuryFacet.incurDebt-&gt;TreasuryFacet.valueOfToken</title>
<path fill="none" stroke="#1bc6a6" stroke-width="2" d="M374.8476,-591.3313C405.249,-583.3024 447.3363,-572.1873 481.2723,-563.2249"/>
<polygon fill="#1bc6a6" stroke="#1bc6a6" stroke-width="2" points="482.2899,-566.5762 491.0647,-560.6388 480.5025,-559.8083 482.2899,-566.5762"/>
</g>
<!-- TreasuryFacet.incurDebt&#45;&gt;TreasuryFacet.IERC20 -->
<g id="edge9" class="edge">
<title>TreasuryFacet.incurDebt-&gt;TreasuryFacet.IERC20</title>
<path fill="none" stroke="#1bc6a6" stroke-width="2" d="M381.6172,-596.2091C413.4374,-594.9783 455.4024,-594.9321 487.9846,-596.0705"/>
<polygon fill="#1bc6a6" stroke="#1bc6a6" stroke-width="2" points="488.0762,-599.5769 498.2088,-596.4817 488.3575,-592.5825 488.0762,-599.5769"/>
</g>
<!-- TreasuryFacet.incurDebt&#45;&gt;TreasuryFacet.IERC20 -->
<g id="edge11" class="edge">
<title>TreasuryFacet.incurDebt-&gt;TreasuryFacet.IERC20</title>
<path fill="none" stroke="#1bc6a6" stroke-width="2" d="M381.6172,-607.7909C413.4374,-609.0217 455.4024,-609.0679 487.9846,-607.9295"/>
<polygon fill="#1bc6a6" stroke="#1bc6a6" stroke-width="2" points="488.3575,-611.4175 498.2088,-607.5183 488.0762,-604.4231 488.3575,-611.4175"/>
</g>
<!-- maximumDebt.sub -->
<g id="node23" class="node">
<title>maximumDebt.sub</title>
<ellipse fill="#edad56" stroke="#edad56" stroke-width="3" cx="538.9212" cy="-142" rx="27" ry="18"/>
<text text-anchor="middle" x="538.9212" y="-137.8" font-family="Times,serif" font-size="14.00" fill="#000000">sub</text>
</g>
<!-- TreasuryFacet.incurDebt&#45;&gt;maximumDebt.sub -->
<g id="edge10" class="edge">
<title>TreasuryFacet.incurDebt-&gt;maximumDebt.sub</title>
<path fill="none" stroke="#ffffff" stroke-width="2" d="M384.049,-600.4923C403.0888,-597.2677 423.302,-590.115 436.113,-575 490.6705,-510.6301 432.5136,-271.511 472.113,-197 480.4413,-181.3291 495.3083,-168.4099 508.9064,-159.0395"/>
<polygon fill="#ffffff" stroke="#ffffff" stroke-width="2" points="511.1021,-161.7866 517.5776,-153.401 507.2861,-155.9182 511.1021,-161.7866"/>
</g>
<!-- TreasuryFacet.repayDebtWithReserve -->
<g id="node10" class="node">
<title>TreasuryFacet.repayDebtWithReserve</title>
<ellipse fill="#ffbdb9" stroke="#ffbdb9" stroke-width="3" cx="334.4509" cy="-656" rx="101.8245" ry="18"/>
<text text-anchor="middle" x="334.4509" y="-651.8" font-family="Times,serif" font-size="14.00" fill="#000000">repayDebtWithReserve</text>
</g>
<!-- TreasuryFacet.repayDebtWithReserve&#45;&gt;TreasuryFacet.valueOfToken -->
<g id="edge13" class="edge">
<title>TreasuryFacet.repayDebtWithReserve-&gt;TreasuryFacet.valueOfToken</title>
<path fill="none" stroke="#1bc6a6" stroke-width="2" d="M407.6293,-643.4974C417.7425,-639.8394 427.5742,-635.1113 436.113,-629 459.5688,-612.2124 449.7467,-593.214 472.113,-575 476.1326,-571.7266 480.6013,-568.8055 485.2685,-566.2084"/>
<polygon fill="#1bc6a6" stroke="#1bc6a6" stroke-width="2" points="487.0603,-569.2251 494.4223,-561.606 483.9158,-562.9711 487.0603,-569.2251"/>
</g>
<!-- TreasuryFacet.repayDebtWithReserve&#45;&gt;TreasuryFacet.IERC20 -->
<g id="edge12" class="edge">
<title>TreasuryFacet.repayDebtWithReserve-&gt;TreasuryFacet.IERC20</title>
<path fill="none" stroke="#1bc6a6" stroke-width="2" d="M391.1357,-641.0297C423.0971,-632.5888 462.5244,-622.1762 492.6143,-614.2295"/>
<polygon fill="#1bc6a6" stroke="#1bc6a6" stroke-width="2" points="493.6617,-617.573 502.4365,-611.6355 491.8743,-610.805 493.6617,-617.573"/>
</g>
<!-- TreasuryFacet.repayDebtWithNecc -->
<g id="node11" class="node">
<title>TreasuryFacet.repayDebtWithNecc</title>
<ellipse fill="#ffbdb9" stroke="#ffbdb9" stroke-width="3" cx="106.3944" cy="-730" rx="90.2889" ry="18"/>
<text text-anchor="middle" x="106.3944" y="-725.8" font-family="Times,serif" font-size="14.00" fill="#000000">repayDebtWithNecc</text>
</g>
<!-- TreasuryFacet.manage -->
<g id="node12" class="node">
<title>TreasuryFacet.manage</title>
<ellipse fill="#ffbdb9" stroke="#ffbdb9" stroke-width="3" cx="106.3944" cy="-676" rx="41.1316" ry="18"/>
<text text-anchor="middle" x="106.3944" y="-671.8" font-family="Times,serif" font-size="14.00" fill="#000000">manage</text>
</g>
<!-- TreasuryFacet.manage&#45;&gt;TreasuryFacet.excessReserves -->
<g id="edge15" class="edge">
<title>TreasuryFacet.manage-&gt;TreasuryFacet.excessReserves</title>
<path fill="none" stroke="#1bc6a6" stroke-width="2" d="M145.3367,-681.8848C162.2728,-685.8316 181.6583,-692.3413 196.7888,-703 218.881,-718.563 210.8115,-736.2751 232.7888,-752 243.4012,-759.5933 255.8818,-765.4314 268.3958,-769.9052"/>
<polygon fill="#1bc6a6" stroke="#1bc6a6" stroke-width="2" points="267.3481,-773.2451 277.9415,-773.0668 269.5491,-766.6001 267.3481,-773.2451"/>
</g>
<!-- TreasuryFacet.manage&#45;&gt;TreasuryFacet.valueOfToken -->
<g id="edge14" class="edge">
<title>TreasuryFacet.manage-&gt;TreasuryFacet.valueOfToken</title>
<path fill="none" stroke="#1bc6a6" stroke-width="2" d="M114.3371,-658.2139C130.7293,-624.0099 171.9398,-549.8962 232.7888,-521 273.6035,-501.6177 391.3018,-515.2138 436.113,-521 452.7092,-523.1429 470.4474,-527.1554 486.4363,-531.4442"/>
<polygon fill="#1bc6a6" stroke="#1bc6a6" stroke-width="2" points="485.568,-534.8354 496.1397,-534.136 487.4392,-528.0901 485.568,-534.8354"/>
</g>
<!-- TreasuryFacet.manage&#45;&gt;TreasuryFacet.IERC20 -->
<g id="edge16" class="edge">
<title>TreasuryFacet.manage-&gt;TreasuryFacet.IERC20</title>
<path fill="none" stroke="#1bc6a6" stroke-width="2" d="M144.4959,-683.2006C161.2693,-687.402 180.7601,-693.747 196.7888,-703 215.8487,-714.0029 212.338,-728.8692 232.7888,-737 274.7752,-753.6929 395.626,-757.0579 436.113,-737 481.3279,-714.5998 512.0614,-661.7412 527.451,-629.2091"/>
<polygon fill="#1bc6a6" stroke="#1bc6a6" stroke-width="2" points="530.7673,-630.3724 531.7336,-619.8217 524.3987,-627.467 530.7673,-630.3724"/>
</g>
<!-- TreasuryFacet.excessReserves&#45;&gt;TreasuryFacet.IERC20 -->
<g id="edge17" class="edge">
<title>TreasuryFacet.excessReserves-&gt;TreasuryFacet.IERC20</title>
<path fill="none" stroke="#1bc6a6" stroke-width="2" d="M391.6915,-773.1831C407.1086,-768.4229 423.102,-761.6357 436.113,-752 479.7564,-719.6784 511.1671,-663.0661 527.0789,-629.4012"/>
<polygon fill="#1bc6a6" stroke="#1bc6a6" stroke-width="2" points="530.336,-630.6957 531.3348,-620.1481 523.9764,-627.7707 530.336,-630.6957"/>
</g>
<!-- TreasuryFacet.auditReserves -->
<g id="node14" class="node">
<title>TreasuryFacet.auditReserves</title>
<ellipse fill="#ffbdb9" stroke="#ffbdb9" stroke-width="3" cx="334.4509" cy="-474" rx="65.4053" ry="18"/>
<text text-anchor="middle" x="334.4509" y="-469.8" font-family="Times,serif" font-size="14.00" fill="#000000">auditReserves</text>
</g>
<!-- TreasuryFacet.auditReserves&#45;&gt;TreasuryFacet.valueOfToken -->
<g id="edge20" class="edge">
<title>TreasuryFacet.auditReserves-&gt;TreasuryFacet.valueOfToken</title>
<path fill="none" stroke="#1bc6a6" stroke-width="2" d="M391.9905,-482.489C406.4717,-486.7769 421.9284,-491.8801 436.113,-497 460.0666,-505.646 486.6702,-516.5506 506.8129,-526.3178"/>
<polygon fill="#1bc6a6" stroke="#1bc6a6" stroke-width="2" points="505.3532,-529.5012 515.8606,-530.8592 508.4934,-523.2451 505.3532,-529.5012"/>
</g>
<!-- TreasuryFacet.auditReserves&#45;&gt;TreasuryFacet.valueOfToken -->
<g id="edge23" class="edge">
<title>TreasuryFacet.auditReserves-&gt;TreasuryFacet.valueOfToken</title>
<path fill="none" stroke="#1bc6a6" stroke-width="2" d="M364.0284,-490.1933C384.4296,-497.7092 412.095,-506.3308 436.113,-515 450.6922,-520.2623 466.253,-526.3613 480.7413,-531.9739"/>
<polygon fill="#1bc6a6" stroke="#1bc6a6" stroke-width="2" points="479.4966,-535.2451 490.0862,-535.5783 482.0157,-528.7141 479.4966,-535.2451"/>
</g>
<!-- TreasuryFacet.auditReserves&#45;&gt;TreasuryFacet.onlyGov -->
<g id="edge18" class="edge">
<title>TreasuryFacet.auditReserves-&gt;TreasuryFacet.onlyGov</title>
<path fill="none" stroke="#1bc6a6" stroke-width="2" d="M381.6172,-461.5435C414.5371,-452.8495 458.3151,-441.2878 491.3282,-432.5692"/>
<polygon fill="#1bc6a6" stroke="#1bc6a6" stroke-width="2" points="492.4294,-435.8984 501.2042,-429.961 490.6419,-429.1305 492.4294,-435.8984"/>
</g>
<!-- TreasuryFacet.auditReserves&#45;&gt;TreasuryFacet.IERC20 -->
<g id="edge21" class="edge">
<title>TreasuryFacet.auditReserves-&gt;TreasuryFacet.IERC20</title>
<path fill="none" stroke="#1bc6a6" stroke-width="2" d="M388.902,-484.0284C405.2014,-490.8231 422.3747,-500.2411 436.113,-512 458.0265,-530.7562 449.7467,-547.786 472.113,-566 481.3413,-573.5151 492.9368,-579.1734 503.8658,-583.7789"/>
<polygon fill="#1bc6a6" stroke="#1bc6a6" stroke-width="2" points="502.64,-587.0586 513.2222,-587.5754 505.272,-580.5723 502.64,-587.0586"/>
</g>
<!-- TreasuryFacet.auditReserves&#45;&gt;TreasuryFacet.IERC20 -->
<g id="edge24" class="edge">
<title>TreasuryFacet.auditReserves-&gt;TreasuryFacet.IERC20</title>
<path fill="none" stroke="#1bc6a6" stroke-width="2" d="M364.04,-490.2508C385.7427,-499.3727 414.9885,-511.9191 436.113,-530 458.0265,-548.7562 449.7467,-565.786 472.113,-584 476.7737,-587.7955 482.0383,-591.1174 487.5159,-593.9502"/>
<polygon fill="#1bc6a6" stroke="#1bc6a6" stroke-width="2" points="486.3189,-597.2521 496.8663,-598.2532 489.2453,-590.8932 486.3189,-597.2521"/>
</g>
<!-- reserves.add -->
<g id="node24" class="node">
<title>reserves.add</title>
<ellipse fill="#edad56" stroke="#edad56" stroke-width="3" cx="538.9212" cy="-57" rx="27" ry="18"/>
<text text-anchor="middle" x="538.9212" y="-52.8" font-family="Times,serif" font-size="14.00" fill="#000000">add</text>
</g>
<!-- TreasuryFacet.auditReserves&#45;&gt;reserves.add -->
<g id="edge19" class="edge">
<title>TreasuryFacet.auditReserves-&gt;reserves.add</title>
<path fill="none" stroke="#ffffff" stroke-width="2" d="M387.3886,-463.3595C405.3809,-459.2942 423.9837,-452.1364 436.113,-438 484.8682,-381.1766 436.5759,-168.9021 472.113,-103 479.6296,-89.0606 492.2838,-77.2753 504.57,-68.862"/>
<polygon fill="#ffffff" stroke="#ffffff" stroke-width="2" points="506.7551,-71.6233 513.3725,-63.3492 503.0397,-65.6907 506.7551,-71.6233"/>
</g>
<!-- TreasuryFacet.auditReserves&#45;&gt;reserves.add -->
<g id="edge22" class="edge">
<title>TreasuryFacet.auditReserves-&gt;reserves.add</title>
<path fill="none" stroke="#ffffff" stroke-width="2" d="M398.2534,-477.9213C412.597,-474.1352 426.4215,-467.2953 436.113,-456 484.8682,-399.1766 436.5759,-186.9021 472.113,-121 481.7694,-103.0926 499.9046,-88.7401 514.846,-77.8604"/>
<polygon fill="#ffffff" stroke="#ffffff" stroke-width="2" points="517.1159,-80.5389 523.1859,-71.8552 513.0256,-74.8582 517.1159,-80.5389"/>
</g>
<!-- _amount.mul -->
<g id="node25" class="node">
<title>_amount.mul</title>
<ellipse fill="#edad56" stroke="#edad56" stroke-width="3" cx="668.7295" cy="-548" rx="27" ry="18"/>
<text text-anchor="middle" x="668.7295" y="-543.8" font-family="Times,serif" font-size="14.00" fill="#000000">mul</text>
</g>
<!-- TreasuryFacet.valueOfToken&#45;&gt;_amount.mul -->
<g id="edge25" class="edge">
<title>TreasuryFacet.valueOfToken-&gt;_amount.mul</title>
<path fill="none" stroke="#ffffff" stroke-width="2" d="M606.1067,-548C614.8817,-548 623.6009,-548 631.6219,-548"/>
<polygon fill="#ffffff" stroke="#ffffff" stroke-width="2" points="631.71,-551.5001 641.71,-548 631.7099,-544.5001 631.71,-551.5001"/>
</g>
<!-- TreasuryFacet.queue -->
<g id="node16" class="node">
<title>TreasuryFacet.queue</title>
<ellipse fill="#ffbdb9" stroke="#ffbdb9" stroke-width="3" cx="334.4509" cy="-366" rx="34.191" ry="18"/>
<text text-anchor="middle" x="334.4509" y="-361.8" font-family="Times,serif" font-size="14.00" fill="#000000">queue</text>
</g>
<!-- TreasuryFacet.queue&#45;&gt;TreasuryFacet.onlyGov -->
<g id="edge26" class="edge">
<title>TreasuryFacet.queue-&gt;TreasuryFacet.onlyGov</title>
<path fill="none" stroke="#1bc6a6" stroke-width="2" d="M365.0621,-374.0843C398.4016,-382.8892 452.1628,-397.0874 491.0837,-407.3662"/>
<polygon fill="#1bc6a6" stroke="#1bc6a6" stroke-width="2" points="490.5748,-410.8518 501.1371,-410.0213 492.3623,-404.0838 490.5748,-410.8518"/>
</g>
<!-- TreasuryFacet.toggle -->
<g id="node17" class="node">
<title>TreasuryFacet.toggle</title>
<ellipse fill="#ffbdb9" stroke="#ffbdb9" stroke-width="3" cx="334.4509" cy="-312" rx="35.3528" ry="18"/>
<text text-anchor="middle" x="334.4509" y="-307.8" font-family="Times,serif" font-size="14.00" fill="#000000">toggle</text>
</g>
<!-- TreasuryFacet.requirements -->
<g id="node18" class="node">
<title>TreasuryFacet.requirements</title>
<ellipse fill="#edad56" stroke="#edad56" stroke-width="3" cx="538.9212" cy="-312" rx="61.3935" ry="18"/>
<text text-anchor="middle" x="538.9212" y="-307.8" font-family="Times,serif" font-size="14.00" fill="#000000">requirements</text>
</g>
<!-- TreasuryFacet.toggle&#45;&gt;TreasuryFacet.requirements -->
<g id="edge28" class="edge">
<title>TreasuryFacet.toggle-&gt;TreasuryFacet.requirements</title>
<path fill="none" stroke="#1bc6a6" stroke-width="2" d="M339.3035,-293.992C365.3839,-249.0264 489.1477,-246.1932 527.5377,-285.4924"/>
<polygon fill="#1bc6a6" stroke="#1bc6a6" stroke-width="2" points="525.1487,-288.1266 534.0232,-293.914 530.6948,-283.8556 525.1487,-288.1266"/>
</g>
<!-- TreasuryFacet.toggle&#45;&gt;TreasuryFacet.requirements -->
<g id="edge30" class="edge">
<title>TreasuryFacet.toggle-&gt;TreasuryFacet.requirements</title>
<path fill="none" stroke="#1bc6a6" stroke-width="2" d="M342.9764,-294.5192C373.7533,-266.125 479.5166,-263.999 521.5228,-288.1411"/>
<polygon fill="#1bc6a6" stroke="#1bc6a6" stroke-width="2" points="519.715,-291.1495 529.8996,-294.0695 523.7588,-285.4357 519.715,-291.1495"/>
</g>
<!-- TreasuryFacet.toggle&#45;&gt;TreasuryFacet.requirements -->
<g id="edge32" class="edge">
<title>TreasuryFacet.toggle-&gt;TreasuryFacet.requirements</title>
<path fill="none" stroke="#1bc6a6" stroke-width="2" d="M351.5322,-296.2164C386.1867,-282.762 465.1514,-281.4118 508.6994,-292.1657"/>
<polygon fill="#1bc6a6" stroke="#1bc6a6" stroke-width="2" points="507.8703,-295.5693 518.449,-294.9855 509.8151,-288.8449 507.8703,-295.5693"/>
</g>
<!-- TreasuryFacet.toggle&#45;&gt;TreasuryFacet.requirements -->
<g id="edge34" class="edge">
<title>TreasuryFacet.toggle-&gt;TreasuryFacet.requirements</title>
<path fill="none" stroke="#1bc6a6" stroke-width="2" d="M364.1826,-302.1438C394.7577,-298.3131 443.1577,-297.5028 481.2741,-299.7128"/>
<polygon fill="#1bc6a6" stroke="#1bc6a6" stroke-width="2" points="481.5163,-303.2369 491.7288,-300.4162 481.9863,-296.2527 481.5163,-303.2369"/>
</g>
<!-- TreasuryFacet.toggle&#45;&gt;TreasuryFacet.requirements -->
<g id="edge36" class="edge">
<title>TreasuryFacet.toggle-&gt;TreasuryFacet.requirements</title>
<path fill="none" stroke="#1bc6a6" stroke-width="2" d="M370.0669,-312C396.8193,-312 434.3513,-312 467.2386,-312"/>
<polygon fill="#1bc6a6" stroke="#1bc6a6" stroke-width="2" points="467.2788,-315.5001 477.2788,-312 467.2787,-308.5001 467.2788,-315.5001"/>
</g>
<!-- TreasuryFacet.toggle&#45;&gt;TreasuryFacet.requirements -->
<g id="edge38" class="edge">
<title>TreasuryFacet.toggle-&gt;TreasuryFacet.requirements</title>
<path fill="none" stroke="#1bc6a6" stroke-width="2" d="M364.1826,-321.8562C394.7577,-325.6869 443.1577,-326.4972 481.2741,-324.2872"/>
<polygon fill="#1bc6a6" stroke="#1bc6a6" stroke-width="2" points="481.9863,-327.7473 491.7288,-323.5838 481.5163,-320.7631 481.9863,-327.7473"/>
</g>
<!-- TreasuryFacet.toggle&#45;&gt;TreasuryFacet.requirements -->
<g id="edge40" class="edge">
<title>TreasuryFacet.toggle-&gt;TreasuryFacet.requirements</title>
<path fill="none" stroke="#1bc6a6" stroke-width="2" d="M351.5322,-327.7836C386.1867,-341.238 465.1514,-342.5882 508.6994,-331.8343"/>
<polygon fill="#1bc6a6" stroke="#1bc6a6" stroke-width="2" points="509.8151,-335.1551 518.449,-329.0145 507.8703,-328.4307 509.8151,-335.1551"/>
</g>
<!-- TreasuryFacet.toggle&#45;&gt;TreasuryFacet.requirements -->
<g id="edge42" class="edge">
<title>TreasuryFacet.toggle-&gt;TreasuryFacet.requirements</title>
<path fill="none" stroke="#1bc6a6" stroke-width="2" d="M342.9764,-329.4808C373.7533,-357.875 479.5166,-360.001 521.5228,-335.8589"/>
<polygon fill="#1bc6a6" stroke="#1bc6a6" stroke-width="2" points="523.7588,-338.5643 529.8996,-329.9305 519.715,-332.8505 523.7588,-338.5643"/>
</g>
<!-- TreasuryFacet.toggle&#45;&gt;TreasuryFacet.requirements -->
<g id="edge44" class="edge">
<title>TreasuryFacet.toggle-&gt;TreasuryFacet.requirements</title>
<path fill="none" stroke="#1bc6a6" stroke-width="2" d="M339.3035,-330.008C365.3839,-374.9736 489.1477,-377.8068 527.5377,-338.5076"/>
<polygon fill="#1bc6a6" stroke="#1bc6a6" stroke-width="2" points="530.6948,-340.1444 534.0232,-330.086 525.1487,-335.8734 530.6948,-340.1444"/>
</g>
<!-- TreasuryFacet.listContains -->
<g id="node19" class="node">
<title>TreasuryFacet.listContains</title>
<ellipse fill="#edad56" stroke="#edad56" stroke-width="3" cx="538.9212" cy="-366" rx="57.3573" ry="18"/>
<text text-anchor="middle" x="538.9212" y="-361.8" font-family="Times,serif" font-size="14.00" fill="#000000">listContains</text>
</g>
<!-- TreasuryFacet.toggle&#45;&gt;TreasuryFacet.listContains -->
<g id="edge29" class="edge">
<title>TreasuryFacet.toggle-&gt;TreasuryFacet.listContains</title>
<path fill="none" stroke="#1bc6a6" stroke-width="2" d="M340.133,-294.1282C368.3629,-257.206 493.5944,-288.5564 529.356,-338.9328"/>
<polygon fill="#1bc6a6" stroke="#1bc6a6" stroke-width="2" points="526.5283,-341.0276 534.6281,-347.8573 532.5553,-337.4672 526.5283,-341.0276"/>
</g>
<!-- TreasuryFacet.toggle&#45;&gt;TreasuryFacet.listContains -->
<g id="edge31" class="edge">
<title>TreasuryFacet.toggle-&gt;TreasuryFacet.listContains</title>
<path fill="none" stroke="#1bc6a6" stroke-width="2" d="M346.3279,-294.8823C381.7376,-277.7921 486.488,-304.9153 524.7355,-340.376"/>
<polygon fill="#1bc6a6" stroke="#1bc6a6" stroke-width="2" points="522.4795,-343.0915 531.8389,-348.0566 527.6186,-338.3386 522.4795,-343.0915"/>
</g>
<!-- TreasuryFacet.toggle&#45;&gt;TreasuryFacet.listContains -->
<g id="edge33" class="edge">
<title>TreasuryFacet.toggle-&gt;TreasuryFacet.listContains</title>
<path fill="none" stroke="#1bc6a6" stroke-width="2" d="M361.1818,-300.1345C402.097,-299.6992 479.4658,-320.6273 517.1692,-342.8159"/>
<polygon fill="#1bc6a6" stroke="#1bc6a6" stroke-width="2" points="515.5642,-345.9474 525.8538,-348.472 519.3844,-340.0818 515.5642,-345.9474"/>
</g>
<!-- TreasuryFacet.toggle&#45;&gt;TreasuryFacet.listContains -->
<g id="edge35" class="edge">
<title>TreasuryFacet.toggle-&gt;TreasuryFacet.listContains</title>
<path fill="none" stroke="#1bc6a6" stroke-width="2" d="M369.6006,-310.7989C407.0197,-316.6714 465.9057,-332.2115 503.448,-346.1131"/>
<polygon fill="#1bc6a6" stroke="#1bc6a6" stroke-width="2" points="502.3812,-349.453 512.9706,-349.7925 504.9042,-342.9235 502.3812,-349.453"/>
</g>
<!-- TreasuryFacet.toggle&#45;&gt;TreasuryFacet.listContains -->
<g id="edge37" class="edge">
<title>TreasuryFacet.toggle-&gt;TreasuryFacet.listContains</title>
<path fill="none" stroke="#1bc6a6" stroke-width="2" d="M365.9513,-320.3192C397.6239,-328.6838 447.0621,-341.7403 484.9867,-351.7561"/>
<polygon fill="#1bc6a6" stroke="#1bc6a6" stroke-width="2" points="484.2948,-355.1933 494.857,-354.3628 486.0822,-348.4253 484.2948,-355.1933"/>
</g>
<!-- TreasuryFacet.toggle&#45;&gt;TreasuryFacet.listContains -->
<g id="edge39" class="edge">
<title>TreasuryFacet.toggle-&gt;TreasuryFacet.listContains</title>
<path fill="none" stroke="#1bc6a6" stroke-width="2" d="M355.9463,-326.3548C383.3579,-338.0813 432.0308,-352.2912 472.2878,-361.1468"/>
<polygon fill="#1bc6a6" stroke="#1bc6a6" stroke-width="2" points="471.8143,-364.6242 482.3233,-363.2781 473.2686,-357.7769 471.8143,-364.6242"/>
</g>
<!-- TreasuryFacet.toggle&#45;&gt;TreasuryFacet.listContains -->
<g id="edge41" class="edge">
<title>TreasuryFacet.toggle-&gt;TreasuryFacet.listContains</title>
<path fill="none" stroke="#1bc6a6" stroke-width="2" d="M346.9336,-329.0962C373.3483,-348.7973 436.3002,-368.9477 482.9572,-375.5945"/>
<polygon fill="#1bc6a6" stroke="#1bc6a6" stroke-width="2" points="482.5885,-379.0755 492.9435,-376.834 483.4508,-372.1288 482.5885,-379.0755"/>
</g>
<!-- TreasuryFacet.toggle&#45;&gt;TreasuryFacet.listContains -->
<g id="edge43" class="edge">
<title>TreasuryFacet.toggle-&gt;TreasuryFacet.listContains</title>
<path fill="none" stroke="#1bc6a6" stroke-width="2" d="M341.4892,-329.8861C369.112,-365.8407 470.8258,-396.1906 516.4808,-386.5636"/>
<polygon fill="#1bc6a6" stroke="#1bc6a6" stroke-width="2" points="517.5656,-389.8916 526.0678,-383.57 515.4791,-383.2098 517.5656,-389.8916"/>
</g>
<!-- TreasuryFacet.toggle&#45;&gt;TreasuryFacet.listContains -->
<g id="edge45" class="edge">
<title>TreasuryFacet.toggle-&gt;TreasuryFacet.listContains</title>
<path fill="none" stroke="#1bc6a6" stroke-width="2" d="M338.7215,-330.0952C363.0849,-381.7512 484.8496,-417.7144 525.6061,-390.8673"/>
<polygon fill="#1bc6a6" stroke="#1bc6a6" stroke-width="2" points="528.1808,-393.2557 533.1988,-383.9245 523.457,-388.0898 528.1808,-393.2557"/>
</g>
<!-- TreasuryFacet.toggle&#45;&gt;TreasuryFacet.onlyGov -->
<g id="edge27" class="edge">
<title>TreasuryFacet.toggle-&gt;TreasuryFacet.onlyGov</title>
<path fill="none" stroke="#1bc6a6" stroke-width="2" d="M369.581,-315.0669C390.4946,-318.3331 416.6595,-325.0769 436.113,-339 459.5688,-355.7876 449.7467,-374.786 472.113,-393 478.2515,-397.999 485.4375,-402.1763 492.778,-405.6328"/>
<polygon fill="#1bc6a6" stroke="#1bc6a6" stroke-width="2" points="491.5218,-408.9024 502.0915,-409.6331 494.2844,-402.4706 491.5218,-408.9024"/>
</g>
<!-- key -->
<g id="node26" class="node">
<title>key</title>
<polygon fill="#edad56" stroke="transparent" stroke-width="3" points="171.3944,-939 41.3944,-939 41.3944,-851 171.3944,-851 171.3944,-939"/>
<text text-anchor="start" x="91.0304" y="-920.4" font-family="Times,serif" font-size="14.00" fill="#000000">Internal Call</text>
<text text-anchor="start" x="87.1384" y="-900.4" font-family="Times,serif" font-size="14.00" fill="#000000">External Call</text>
<text text-anchor="start" x="64.5998" y="-880.4" font-family="Times,serif" font-size="14.00" fill="#000000">Defined Contract</text>
<text text-anchor="start" x="50.9971" y="-860.4" font-family="Times,serif" font-size="14.00" fill="#000000">Undefined Contract</text>
</g>
<!-- key2 -->
<g id="node27" class="node">
<title>key2</title>
<polygon fill="#edad56" stroke="transparent" stroke-width="3" points="361.4509,-939 307.4509,-939 307.4509,-851 361.4509,-851 361.4509,-939"/>
<text text-anchor="start" x="322.21" y="-920.4" font-family="Times,serif" font-size="14.00" fill="#000000">   </text>
<text text-anchor="start" x="322.21" y="-900.4" font-family="Times,serif" font-size="14.00" fill="#000000">   </text>
<polygon fill="#445773" stroke="transparent" points="320.4509,-875 320.4509,-895 348.4509,-895 348.4509,-875 320.4509,-875"/>
<text text-anchor="start" x="322.21" y="-880.4" font-family="Times,serif" font-size="14.00" fill="#000000">   </text>
<polygon fill="none" stroke="#e8726d" points="322.4509,-857 322.4509,-873 346.4509,-873 346.4509,-857 322.4509,-857"/>
</g>
<!-- key&#45;&gt;key2 -->
<g id="edge46" class="edge">
<title>key:e-&gt;key2:w</title>
<path fill="none" stroke="#1bc6a6" stroke-width="2" d="M163.3944,-925C229.6526,-925 248.7406,-925 310.2081,-925"/>
<polygon fill="#1bc6a6" stroke="#1bc6a6" stroke-width="2" points="310.4509,-928.5001 320.4509,-925 310.4508,-921.5001 310.4509,-928.5001"/>
</g>
<!-- key&#45;&gt;key2 -->
<g id="edge47" class="edge">
<title>key:e-&gt;key2:w</title>
<path fill="none" stroke="#ffffff" stroke-width="2" d="M163.3944,-905C229.6526,-905 248.7406,-905 310.2081,-905"/>
<polygon fill="#ffffff" stroke="#ffffff" stroke-width="2" points="310.4509,-908.5001 320.4509,-905 310.4508,-901.5001 310.4509,-908.5001"/>
</g>
</g>
</svg>