<?xml version="1.0" encoding="UTF-8" standalone="no"?><!DOCTYPE svg PUBLIC "-//W3C//DTD SVG 1.1//EN" "http://www.w3.org/Graphics/SVG/1.1/DTD/svg11.dtd"><!-- Generated by graphviz version 2.40.1 (20161225.0304)
 --><!-- Title: G Pages: 1 --><svg xmlns="http://www.w3.org/2000/svg" xmlns:xlink="http://www.w3.org/1999/xlink" width="738pt" height="655pt" viewBox="0.00 0.00 738.07 655.00">
<g id="graph0" class="graph" transform="scale(1 1) rotate(0) translate(4 651)">
<title>G</title>
<polygon fill="#2e3e56" stroke="transparent" points="-4,4 -4,-651 734.0651,-651 734.0651,4 -4,4"/>
<g id="clust1" class="cluster">
<title>clusterVaultPriceFeedFacet</title>
<path fill="#445773" stroke="#445773" d="M42.3244,-371C42.3244,-371 710.0651,-371 710.0651,-371 716.0651,-371 722.0651,-377 722.0651,-383 722.0651,-383 722.0651,-490 722.0651,-490 722.0651,-496 716.0651,-502 710.0651,-502 710.0651,-502 42.3244,-502 42.3244,-502 36.3244,-502 30.3244,-496 30.3244,-490 30.3244,-490 30.3244,-383 30.3244,-383 30.3244,-377 36.3244,-371 42.3244,-371"/>
<text text-anchor="middle" x="376.1948" y="-485.4" font-family="Times,serif" font-size="14.00" fill="#f0f0f0">VaultPriceFeedFacet</text>
</g>
<g id="clust2" class="cluster">
<title>clusterIPriceFeed</title>
<path fill="#3b4b63" stroke="#e8726d" stroke-dasharray="5,2" d="M396.5689,-178C396.5689,-178 522.2047,-178 522.2047,-178 528.2047,-178 534.2047,-184 534.2047,-190 534.2047,-190 534.2047,-351 534.2047,-351 534.2047,-357 528.2047,-363 522.2047,-363 522.2047,-363 396.5689,-363 396.5689,-363 390.5689,-363 384.5689,-357 384.5689,-351 384.5689,-351 384.5689,-190 384.5689,-190 384.5689,-184 390.5689,-178 396.5689,-178"/>
<text text-anchor="middle" x="459.3868" y="-346.4" font-family="Times,serif" font-size="14.00" fill="#f0f0f0">IPriceFeed</text>
</g>
<g id="clust3" class="cluster">
<title>clusterprice</title>
<path fill="#3b4b63" stroke="#e8726d" stroke-dasharray="5,2" d="M436.3868,-93C436.3868,-93 482.3868,-93 482.3868,-93 488.3868,-93 494.3868,-99 494.3868,-105 494.3868,-105 494.3868,-158 494.3868,-158 494.3868,-164 488.3868,-170 482.3868,-170 482.3868,-170 436.3868,-170 436.3868,-170 430.3868,-170 424.3868,-164 424.3868,-158 424.3868,-158 424.3868,-105 424.3868,-105 424.3868,-99 430.3868,-93 436.3868,-93"/>
<text text-anchor="middle" x="459.3868" y="-153.4" font-family="Times,serif" font-size="14.00" fill="#f0f0f0">price</text>
</g>
<g id="clust4" class="cluster">
<title>clusterreserve1</title>
<path fill="#3b4b63" stroke="#e8726d" stroke-dasharray="5,2" d="M615.1349,-286C615.1349,-286 661.1349,-286 661.1349,-286 667.1349,-286 673.1349,-292 673.1349,-298 673.1349,-298 673.1349,-351 673.1349,-351 673.1349,-357 667.1349,-363 661.1349,-363 661.1349,-363 615.1349,-363 615.1349,-363 609.1349,-363 603.1349,-357 603.1349,-351 603.1349,-351 603.1349,-298 603.1349,-298 603.1349,-292 609.1349,-286 615.1349,-286"/>
<text text-anchor="middle" x="638.1349" y="-346.4" font-family="Times,serif" font-size="14.00" fill="#f0f0f0">reserve1</text>
</g>
<g id="clust5" class="cluster">
<title>clusterreserve0</title>
<path fill="#3b4b63" stroke="#e8726d" stroke-dasharray="5,2" d="M615.1349,-201C615.1349,-201 661.1349,-201 661.1349,-201 667.1349,-201 673.1349,-207 673.1349,-213 673.1349,-213 673.1349,-266 673.1349,-266 673.1349,-272 667.1349,-278 661.1349,-278 661.1349,-278 615.1349,-278 615.1349,-278 609.1349,-278 603.1349,-272 603.1349,-266 603.1349,-266 603.1349,-213 603.1349,-213 603.1349,-207 609.1349,-201 615.1349,-201"/>
<text text-anchor="middle" x="638.1349" y="-261.4" font-family="Times,serif" font-size="14.00" fill="#f0f0f0">reserve0</text>
</g>
<g id="clust6" class="cluster">
<title>cluster_price0</title>
<path fill="#3b4b63" stroke="#e8726d" stroke-dasharray="5,2" d="M436.3868,-8C436.3868,-8 482.3868,-8 482.3868,-8 488.3868,-8 494.3868,-14 494.3868,-20 494.3868,-20 494.3868,-73 494.3868,-73 494.3868,-79 488.3868,-85 482.3868,-85 482.3868,-85 436.3868,-85 436.3868,-85 430.3868,-85 424.3868,-79 424.3868,-73 424.3868,-73 424.3868,-20 424.3868,-20 424.3868,-14 430.3868,-8 436.3868,-8"/>
<text text-anchor="middle" x="459.3868" y="-68.4" font-family="Times,serif" font-size="14.00" fill="#f0f0f0">_price0</text>
</g>
<g id="clust7" class="cluster">
<title>cluster_price</title>
<path fill="#3b4b63" stroke="#e8726d" stroke-dasharray="5,2" d="M245.7844,-286C245.7844,-286 291.7844,-286 291.7844,-286 297.7844,-286 303.7844,-292 303.7844,-298 303.7844,-298 303.7844,-351 303.7844,-351 303.7844,-357 297.7844,-363 291.7844,-363 291.7844,-363 245.7844,-363 245.7844,-363 239.7844,-363 233.7844,-357 233.7844,-351 233.7844,-351 233.7844,-298 233.7844,-298 233.7844,-292 239.7844,-286 245.7844,-286"/>
<text text-anchor="middle" x="268.7844" y="-346.4" font-family="Times,serif" font-size="14.00" fill="#f0f0f0">_price</text>
</g>
<g id="clust8" class="cluster">
<title>clusterBASIS_POINTS_DIVISOR</title>
<path fill="#3b4b63" stroke="#e8726d" stroke-dasharray="5,2" d="M193.7844,-147C193.7844,-147 344.7844,-147 344.7844,-147 350.7844,-147 356.7844,-153 356.7844,-159 356.7844,-159 356.7844,-266 356.7844,-266 356.7844,-272 350.7844,-278 344.7844,-278 344.7844,-278 193.7844,-278 193.7844,-278 187.7844,-278 181.7844,-272 181.7844,-266 181.7844,-266 181.7844,-159 181.7844,-159 181.7844,-153 187.7844,-147 193.7844,-147"/>
<text text-anchor="middle" x="269.2844" y="-261.4" font-family="Times,serif" font-size="14.00" fill="#f0f0f0">BASIS_POINTS_DIVISOR</text>
</g>
<g id="clust9" class="cluster">
<title>cluster_01</title>
<polygon fill="#2e3e56" stroke="#000000" points="8,-510 8,-639 303.7844,-639 303.7844,-510 8,-510"/>
<text text-anchor="middle" x="155.8922" y="-622.4" font-family="Times,serif" font-size="14.00" fill="#000000">Legend</text>
</g>
<!-- VaultPriceFeedFacet.getPrimaryPrice -->
<g id="node1" class="node">
<title>VaultPriceFeedFacet.getPrimaryPrice</title>
<ellipse fill="#ff9797" stroke="#ff9797" stroke-width="3" cx="268.7844" cy="-451" rx="73.5695" ry="18"/>
<text text-anchor="middle" x="268.7844" y="-446.8" font-family="Times,serif" font-size="14.00" fill="#000000">getPrimaryPrice</text>
</g>
<!-- VaultPriceFeedFacet.IPriceFeed -->
<g id="node5" class="node">
<title>VaultPriceFeedFacet.IPriceFeed</title>
<ellipse fill="#edad56" stroke="#edad56" stroke-width="3" cx="459.3868" cy="-451" rx="52.7238" ry="18"/>
<text text-anchor="middle" x="459.3868" y="-446.8" font-family="Times,serif" font-size="14.00" fill="#000000">IPriceFeed</text>
</g>
<!-- VaultPriceFeedFacet.getPrimaryPrice&#45;&gt;VaultPriceFeedFacet.IPriceFeed -->
<g id="edge1" class="edge">
<title>VaultPriceFeedFacet.getPrimaryPrice-&gt;VaultPriceFeedFacet.IPriceFeed</title>
<path fill="none" stroke="#1bc6a6" stroke-width="2" d="M342.7491,-451C360.3405,-451 378.9543,-451 396.0226,-451"/>
<polygon fill="#1bc6a6" stroke="#1bc6a6" stroke-width="2" points="396.4275,-454.5001 406.4274,-451 396.4274,-447.5001 396.4275,-454.5001"/>
</g>
<!-- IPriceFeed.latestRound -->
<g id="node7" class="node">
<title>IPriceFeed.latestRound</title>
<ellipse fill="#edad56" stroke="#edad56" stroke-width="3" cx="459.3868" cy="-204" rx="57.3418" ry="18"/>
<text text-anchor="middle" x="459.3868" y="-199.8" font-family="Times,serif" font-size="14.00" fill="#000000">latestRound</text>
</g>
<!-- VaultPriceFeedFacet.getPrimaryPrice&#45;&gt;IPriceFeed.latestRound -->
<g id="edge2" class="edge">
<title>VaultPriceFeedFacet.getPrimaryPrice-&gt;IPriceFeed.latestRound</title>
<path fill="none" stroke="#ffffff" stroke-width="2" d="M331.81,-441.3295C341.3072,-437.3415 350.1329,-431.7693 356.7844,-424 413.1446,-358.168 329.8259,-298.1828 384.5689,-231 388.9644,-225.6056 394.5284,-221.2887 400.6305,-217.8341"/>
<polygon fill="#ffffff" stroke="#ffffff" stroke-width="2" points="402.4005,-220.8662 409.8825,-213.3648 399.3556,-214.5631 402.4005,-220.8662"/>
</g>
<!-- IPriceFeed.latestAnswer -->
<g id="node8" class="node">
<title>IPriceFeed.latestAnswer</title>
<ellipse fill="#edad56" stroke="#edad56" stroke-width="3" cx="459.3868" cy="-312" rx="61.3896" ry="18"/>
<text text-anchor="middle" x="459.3868" y="-307.8" font-family="Times,serif" font-size="14.00" fill="#000000">latestAnswer</text>
</g>
<!-- VaultPriceFeedFacet.getPrimaryPrice&#45;&gt;IPriceFeed.latestAnswer -->
<g id="edge3" class="edge">
<title>VaultPriceFeedFacet.getPrimaryPrice-&gt;IPriceFeed.latestAnswer</title>
<path fill="none" stroke="#ffffff" stroke-width="2" d="M328.0937,-440.1297C338.4452,-436.2781 348.5255,-431.0625 356.7844,-424 378.2035,-405.6836 366.5163,-388.6419 384.5689,-367 395.2424,-354.2044 409.4933,-342.7755 422.693,-333.6956"/>
<polygon fill="#ffffff" stroke="#ffffff" stroke-width="2" points="424.7666,-336.5202 431.1671,-328.0772 420.8984,-330.686 424.7666,-336.5202"/>
</g>
<!-- IPriceFeed.getRoundData -->
<g id="node9" class="node">
<title>IPriceFeed.getRoundData</title>
<ellipse fill="#edad56" stroke="#edad56" stroke-width="3" cx="459.3868" cy="-258" rx="66.6363" ry="18"/>
<text text-anchor="middle" x="459.3868" y="-253.8" font-family="Times,serif" font-size="14.00" fill="#000000">getRoundData</text>
</g>
<!-- VaultPriceFeedFacet.getPrimaryPrice&#45;&gt;IPriceFeed.getRoundData -->
<g id="edge4" class="edge">
<title>VaultPriceFeedFacet.getPrimaryPrice-&gt;IPriceFeed.getRoundData</title>
<path fill="none" stroke="#ffffff" stroke-width="2" d="M331.0108,-441.2041C340.7149,-437.2371 349.8173,-431.7044 356.7844,-424 399.0403,-377.2729 343.4616,-332.7407 384.5689,-285 388.2857,-280.6834 392.7472,-277.0569 397.6171,-274.0101"/>
<polygon fill="#ffffff" stroke="#ffffff" stroke-width="2" points="399.5814,-276.9288 406.7509,-269.1283 396.2818,-270.7553 399.5814,-276.9288"/>
</g>
<!-- price.mul -->
<g id="node10" class="node">
<title>price.mul</title>
<ellipse fill="#edad56" stroke="#edad56" stroke-width="3" cx="459.3868" cy="-119" rx="27" ry="18"/>
<text text-anchor="middle" x="459.3868" y="-114.8" font-family="Times,serif" font-size="14.00" fill="#000000">mul</text>
</g>
<!-- VaultPriceFeedFacet.getPrimaryPrice&#45;&gt;price.mul -->
<g id="edge5" class="edge">
<title>VaultPriceFeedFacet.getPrimaryPrice-&gt;price.mul</title>
<path fill="none" stroke="#ffffff" stroke-width="2" d="M332.0232,-441.509C341.4967,-437.5011 350.2593,-431.8757 356.7844,-424 428.1091,-337.913 328.6532,-270.807 384.5689,-174 394.4772,-156.8456 412.1122,-143.4873 427.773,-134.2332"/>
<polygon fill="#ffffff" stroke="#ffffff" stroke-width="2" points="429.6621,-137.1873 436.6925,-129.2611 426.2537,-131.0731 429.6621,-137.1873"/>
</g>
<!-- VaultPriceFeedFacet.getPairPrice -->
<g id="node2" class="node">
<title>VaultPriceFeedFacet.getPairPrice</title>
<ellipse fill="#ff9797" stroke="#ff9797" stroke-width="3" cx="459.3868" cy="-397" rx="58.459" ry="18"/>
<text text-anchor="middle" x="459.3868" y="-392.8" font-family="Times,serif" font-size="14.00" fill="#000000">getPairPrice</text>
</g>
<!-- VaultPriceFeedFacet.IUniswapV2Pair -->
<g id="node6" class="node">
<title>VaultPriceFeedFacet.IUniswapV2Pair</title>
<ellipse fill="#edad56" stroke="#edad56" stroke-width="3" cx="638.1349" cy="-397" rx="75.8605" ry="18"/>
<text text-anchor="middle" x="638.1349" y="-392.8" font-family="Times,serif" font-size="14.00" fill="#000000">IUniswapV2Pair</text>
</g>
<!-- VaultPriceFeedFacet.getPairPrice&#45;&gt;VaultPriceFeedFacet.IUniswapV2Pair -->
<g id="edge6" class="edge">
<title>VaultPriceFeedFacet.getPairPrice-&gt;VaultPriceFeedFacet.IUniswapV2Pair</title>
<path fill="none" stroke="#1bc6a6" stroke-width="2" d="M517.9156,-397C528.783,-397 540.344,-397 551.837,-397"/>
<polygon fill="#1bc6a6" stroke="#1bc6a6" stroke-width="2" points="551.9003,-400.5001 561.9003,-397 551.9002,-393.5001 551.9003,-400.5001"/>
</g>
<!-- reserve1.mul -->
<g id="node11" class="node">
<title>reserve1.mul</title>
<ellipse fill="#edad56" stroke="#edad56" stroke-width="3" cx="638.1349" cy="-312" rx="27" ry="18"/>
<text text-anchor="middle" x="638.1349" y="-307.8" font-family="Times,serif" font-size="14.00" fill="#000000">mul</text>
</g>
<!-- VaultPriceFeedFacet.getPairPrice&#45;&gt;reserve1.mul -->
<g id="edge7" class="edge">
<title>VaultPriceFeedFacet.getPairPrice-&gt;reserve1.mul</title>
<path fill="none" stroke="#ffffff" stroke-width="2" d="M496.6295,-382.9618C508.7297,-378.1637 522.1427,-372.591 534.2047,-367 559.7424,-355.1628 587.9203,-340.1215 608.486,-328.7615"/>
<polygon fill="#ffffff" stroke="#ffffff" stroke-width="2" points="610.3237,-331.7444 617.3626,-323.8258 606.9219,-325.6266 610.3237,-331.7444"/>
</g>
<!-- reserve0.mul -->
<g id="node12" class="node">
<title>reserve0.mul</title>
<ellipse fill="#edad56" stroke="#edad56" stroke-width="3" cx="638.1349" cy="-227" rx="27" ry="18"/>
<text text-anchor="middle" x="638.1349" y="-222.8" font-family="Times,serif" font-size="14.00" fill="#000000">mul</text>
</g>
<!-- VaultPriceFeedFacet.getPairPrice&#45;&gt;reserve0.mul -->
<g id="edge8" class="edge">
<title>VaultPriceFeedFacet.getPairPrice-&gt;reserve0.mul</title>
<path fill="none" stroke="#ffffff" stroke-width="2" d="M505.2079,-385.8574C515.8515,-381.4511 526.3504,-375.3664 534.2047,-367 561.428,-338.0015 538.7374,-314.114 562.2047,-282 574.006,-265.8504 591.9729,-252.5322 607.4672,-243.0482"/>
<polygon fill="#ffffff" stroke="#ffffff" stroke-width="2" points="609.376,-245.9865 616.2389,-237.9149 605.8404,-239.945 609.376,-245.9865"/>
</g>
<!-- VaultPriceFeedFacet.getAmmPrice -->
<g id="node3" class="node">
<title>VaultPriceFeedFacet.getAmmPrice</title>
<ellipse fill="#ff9797" stroke="#ff9797" stroke-width="3" cx="268.7844" cy="-397" rx="64.8428" ry="18"/>
<text text-anchor="middle" x="268.7844" y="-392.8" font-family="Times,serif" font-size="14.00" fill="#000000">getAmmPrice</text>
</g>
<!-- VaultPriceFeedFacet.getAmmPrice&#45;&gt;VaultPriceFeedFacet.getPairPrice -->
<g id="edge9" class="edge">
<title>VaultPriceFeedFacet.getAmmPrice-&gt;VaultPriceFeedFacet.getPairPrice</title>
<path fill="none" stroke="#1bc6a6" stroke-width="2" d="M329.3541,-390.6653C350.0567,-390.1486 373.2926,-390.114 394.3337,-390.5617"/>
<polygon fill="#1bc6a6" stroke="#1bc6a6" stroke-width="2" points="394.3799,-394.064 404.466,-390.8203 394.5585,-387.0662 394.3799,-394.064"/>
</g>
<!-- VaultPriceFeedFacet.getAmmPrice&#45;&gt;VaultPriceFeedFacet.getPairPrice -->
<g id="edge10" class="edge">
<title>VaultPriceFeedFacet.getAmmPrice-&gt;VaultPriceFeedFacet.getPairPrice</title>
<path fill="none" stroke="#1bc6a6" stroke-width="2" d="M329.3541,-403.3347C350.0567,-403.8514 373.2926,-403.886 394.3337,-403.4383"/>
<polygon fill="#1bc6a6" stroke="#1bc6a6" stroke-width="2" points="394.5585,-406.9338 404.466,-403.1797 394.3799,-399.936 394.5585,-406.9338"/>
</g>
<!-- _price0.mul -->
<g id="node13" class="node">
<title>_price0.mul</title>
<ellipse fill="#edad56" stroke="#edad56" stroke-width="3" cx="459.3868" cy="-34" rx="27" ry="18"/>
<text text-anchor="middle" x="459.3868" y="-29.8" font-family="Times,serif" font-size="14.00" fill="#000000">mul</text>
</g>
<!-- VaultPriceFeedFacet.getAmmPrice&#45;&gt;_price0.mul -->
<g id="edge11" class="edge">
<title>VaultPriceFeedFacet.getAmmPrice-&gt;_price0.mul</title>
<path fill="none" stroke="#ffffff" stroke-width="2" d="M312.603,-383.7466C328.9117,-378.9877 346.0468,-371.5275 356.7844,-358 395.3838,-309.3718 353.8141,-133.9329 384.5689,-80 393.6291,-64.1116 409.3534,-51.5037 424.0556,-43.1725"/>
<polygon fill="#ffffff" stroke="#ffffff" stroke-width="2" points="425.7312,-46.2463 433.0089,-38.5467 422.5181,-40.0273 425.7312,-46.2463"/>
</g>
<!-- VaultPriceFeedFacet.getAmmPrice&#45;&gt;_price0.mul -->
<g id="edge12" class="edge">
<title>VaultPriceFeedFacet.getAmmPrice-&gt;_price0.mul</title>
<path fill="none" stroke="#ffffff" stroke-width="2" d="M332.6391,-394.0031C341.9223,-389.8262 350.4623,-383.9648 356.7844,-376 395.3838,-327.3718 353.8141,-151.9329 384.5689,-98 395.5519,-78.7396 416.3279,-64.2999 433.2047,-53.6645"/>
<polygon fill="#ffffff" stroke="#ffffff" stroke-width="2" points="435.4466,-56.3921 442.0926,-48.1409 431.7517,-50.4467 435.4466,-56.3921"/>
</g>
<!-- VaultPriceFeedFacet.getPrice -->
<g id="node4" class="node">
<title>VaultPriceFeedFacet.getPrice</title>
<ellipse fill="#ff9797" stroke="#ff9797" stroke-width="3" cx="81" cy="-397" rx="42.8518" ry="18"/>
<text text-anchor="middle" x="81" y="-392.8" font-family="Times,serif" font-size="14.00" fill="#000000">getPrice</text>
</g>
<!-- VaultPriceFeedFacet.getPrice&#45;&gt;VaultPriceFeedFacet.getPrimaryPrice -->
<g id="edge13" class="edge">
<title>VaultPriceFeedFacet.getPrice-&gt;VaultPriceFeedFacet.getPrimaryPrice</title>
<path fill="none" stroke="#1bc6a6" stroke-width="2" d="M116.3208,-407.157C142.9721,-414.8209 180.1063,-425.4994 211.0538,-434.3988"/>
<polygon fill="#1bc6a6" stroke="#1bc6a6" stroke-width="2" points="210.2854,-437.8196 220.8632,-437.2196 212.22,-431.0922 210.2854,-437.8196"/>
</g>
<!-- VaultPriceFeedFacet.getPrice&#45;&gt;VaultPriceFeedFacet.getAmmPrice -->
<g id="edge14" class="edge">
<title>VaultPriceFeedFacet.getPrice-&gt;VaultPriceFeedFacet.getAmmPrice</title>
<path fill="none" stroke="#1bc6a6" stroke-width="2" d="M124.0815,-397C144.7363,-397 170.0856,-397 193.7646,-397"/>
<polygon fill="#1bc6a6" stroke="#1bc6a6" stroke-width="2" points="193.7919,-400.5001 203.7919,-397 193.7919,-393.5001 193.7919,-400.5001"/>
</g>
<!-- _price.mul -->
<g id="node14" class="node">
<title>_price.mul</title>
<ellipse fill="#edad56" stroke="#edad56" stroke-width="3" cx="268.7844" cy="-312" rx="27" ry="18"/>
<text text-anchor="middle" x="268.7844" y="-307.8" font-family="Times,serif" font-size="14.00" fill="#000000">mul</text>
</g>
<!-- VaultPriceFeedFacet.getPrice&#45;&gt;_price.mul -->
<g id="edge15" class="edge">
<title>VaultPriceFeedFacet.getPrice-&gt;_price.mul</title>
<path fill="none" stroke="#ffffff" stroke-width="2" d="M104.4033,-381.7627C136.9847,-364.4791 196.2526,-337.4057 234.0128,-322.3573"/>
<polygon fill="#ffffff" stroke="#ffffff" stroke-width="2" points="235.5395,-325.5188 243.5862,-318.6267 232.9978,-318.9965 235.5395,-325.5188"/>
</g>
<!-- VaultPriceFeedFacet.getPrice&#45;&gt;_price.mul -->
<g id="edge17" class="edge">
<title>VaultPriceFeedFacet.getPrice-&gt;_price.mul</title>
<path fill="none" stroke="#ffffff" stroke-width="2" d="M115.8807,-386.5992C151.8889,-372.2427 207.3702,-346.9942 240.6697,-329.7086"/>
<polygon fill="#ffffff" stroke="#ffffff" stroke-width="2" points="242.6501,-332.62 249.8425,-324.8406 239.3686,-326.4368 242.6501,-332.62"/>
</g>
<!-- BASIS_POINTS_DIVISOR.add -->
<g id="node15" class="node">
<title>BASIS_POINTS_DIVISOR.add</title>
<ellipse fill="#edad56" stroke="#edad56" stroke-width="3" cx="268.7844" cy="-227" rx="27" ry="18"/>
<text text-anchor="middle" x="268.7844" y="-222.8" font-family="Times,serif" font-size="14.00" fill="#000000">add</text>
</g>
<!-- VaultPriceFeedFacet.getPrice&#45;&gt;BASIS_POINTS_DIVISOR.add -->
<g id="edge16" class="edge">
<title>VaultPriceFeedFacet.getPrice-&gt;BASIS_POINTS_DIVISOR.add</title>
<path fill="none" stroke="#ffffff" stroke-width="2" d="M93.6669,-379.6293C111.5641,-355.8229 146.0722,-312.5386 181.7844,-282 199.0873,-267.2038 220.7163,-253.5124 238.0796,-243.491"/>
<polygon fill="#ffffff" stroke="#ffffff" stroke-width="2" points="240.2492,-246.2851 247.2325,-238.3174 236.8047,-240.1912 240.2492,-246.2851"/>
</g>
<!-- BASIS_POINTS_DIVISOR.sub -->
<g id="node16" class="node">
<title>BASIS_POINTS_DIVISOR.sub</title>
<ellipse fill="#edad56" stroke="#edad56" stroke-width="3" cx="268.7844" cy="-173" rx="27" ry="18"/>
<text text-anchor="middle" x="268.7844" y="-168.8" font-family="Times,serif" font-size="14.00" fill="#000000">sub</text>
</g>
<!-- VaultPriceFeedFacet.getPrice&#45;&gt;BASIS_POINTS_DIVISOR.sub -->
<g id="edge18" class="edge">
<title>VaultPriceFeedFacet.getPrice-&gt;BASIS_POINTS_DIVISOR.sub</title>
<path fill="none" stroke="#ffffff" stroke-width="2" d="M85.1377,-379.0791C94.9759,-340.4959 123.4302,-249.093 181.7844,-200 195.8149,-188.1962 214.9809,-181.5461 231.7532,-177.8027"/>
<polygon fill="#ffffff" stroke="#ffffff" stroke-width="2" points="232.6808,-181.1875 241.8197,-175.8274 231.3329,-174.3185 232.6808,-181.1875"/>
</g>
<!-- key -->
<g id="node17" class="node">
<title>key</title>
<polygon fill="#edad56" stroke="transparent" stroke-width="3" points="146,-606 16,-606 16,-518 146,-518 146,-606"/>
<text text-anchor="start" x="65.636" y="-587.4" font-family="Times,serif" font-size="14.00" fill="#000000">Internal Call</text>
<text text-anchor="start" x="61.744" y="-567.4" font-family="Times,serif" font-size="14.00" fill="#000000">External Call</text>
<text text-anchor="start" x="39.2054" y="-547.4" font-family="Times,serif" font-size="14.00" fill="#000000">Defined Contract</text>
<text text-anchor="start" x="25.6027" y="-527.4" font-family="Times,serif" font-size="14.00" fill="#000000">Undefined Contract</text>
</g>
<!-- key2 -->
<g id="node18" class="node">
<title>key2</title>
<polygon fill="#edad56" stroke="transparent" stroke-width="3" points="295.7844,-606 241.7844,-606 241.7844,-518 295.7844,-518 295.7844,-606"/>
<text text-anchor="start" x="256.5435" y="-587.4" font-family="Times,serif" font-size="14.00" fill="#000000">   </text>
<text text-anchor="start" x="256.5435" y="-567.4" font-family="Times,serif" font-size="14.00" fill="#000000">   </text>
<polygon fill="#445773" stroke="transparent" points="254.7844,-542 254.7844,-562 282.7844,-562 282.7844,-542 254.7844,-542"/>
<text text-anchor="start" x="256.5435" y="-547.4" font-family="Times,serif" font-size="14.00" fill="#000000">   </text>
<polygon fill="none" stroke="#e8726d" points="256.7844,-524 256.7844,-540 280.7844,-540 280.7844,-524 256.7844,-524"/>
</g>
<!-- key&#45;&gt;key2 -->
<g id="edge19" class="edge">
<title>key:e-&gt;key2:w</title>
<path fill="none" stroke="#1bc6a6" stroke-width="2" d="M138,-592C186.3561,-592 200.9243,-592 244.6609,-592"/>
<polygon fill="#1bc6a6" stroke="#1bc6a6" stroke-width="2" points="244.7845,-595.5001 254.7844,-592 244.7844,-588.5001 244.7845,-595.5001"/>
</g>
<!-- key&#45;&gt;key2 -->
<g id="edge20" class="edge">
<title>key:e-&gt;key2:w</title>
<path fill="none" stroke="#ffffff" stroke-width="2" d="M138,-572C186.3561,-572 200.9243,-572 244.6609,-572"/>
<polygon fill="#ffffff" stroke="#ffffff" stroke-width="2" points="244.7845,-575.5001 254.7844,-572 244.7844,-568.5001 244.7845,-575.5001"/>
</g>
</g>
</svg>