<?xml version="1.0" encoding="UTF-8" standalone="no"?><!DOCTYPE svg PUBLIC "-//W3C//DTD SVG 1.1//EN" "http://www.w3.org/Graphics/SVG/1.1/DTD/svg11.dtd"><!-- Generated by graphviz version 2.40.1 (20161225.0304)
 --><!-- Title: G Pages: 1 --><svg xmlns="http://www.w3.org/2000/svg" xmlns:xlink="http://www.w3.org/1999/xlink" width="976pt" height="2709pt" viewBox="0.00 0.00 976.46 2709.25">
<g id="graph0" class="graph" transform="scale(1 1) rotate(0) translate(4 2705.2469)">
<title>G</title>
<polygon fill="#2e3e56" stroke="transparent" points="-4,4 -4,-2705.2469 972.464,-2705.2469 972.464,4 -4,4"/>
<g id="clust1" class="cluster">
<title>clusterVaultFacet</title>
<path fill="#445773" stroke="#445773" d="M20,-1831.2469C20,-1831.2469 885.7026,-1831.2469 885.7026,-1831.2469 891.7026,-1831.2469 897.7026,-1837.2469 897.7026,-1843.2469 897.7026,-1843.2469 897.7026,-2544.2469 897.7026,-2544.2469 897.7026,-2550.2469 891.7026,-2556.2469 885.7026,-2556.2469 885.7026,-2556.2469 20,-2556.2469 20,-2556.2469 14,-2556.2469 8,-2550.2469 8,-2544.2469 8,-2544.2469 8,-1843.2469 8,-1843.2469 8,-1837.2469 14,-1831.2469 20,-1831.2469"/>
<text text-anchor="middle" x="452.8513" y="-2539.6469" font-family="Times,serif" font-size="14.00" fill="#f0f0f0">VaultFacet</text>
</g>
<g id="clust2" class="cluster">
<title>clusterVaultLib</title>
<path fill="#3b4b63" stroke="#e8726d" stroke-dasharray="5,2" d="M692.9983,-25.2469C692.9983,-25.2469 948.464,-25.2469 948.464,-25.2469 954.464,-25.2469 960.464,-31.2469 960.464,-37.2469 960.464,-37.2469 960.464,-1332.2469 960.464,-1332.2469 960.464,-1338.2469 954.464,-1344.2469 948.464,-1344.2469 948.464,-1344.2469 692.9983,-1344.2469 692.9983,-1344.2469 686.9983,-1344.2469 680.9983,-1338.2469 680.9983,-1332.2469 680.9983,-1332.2469 680.9983,-37.2469 680.9983,-37.2469 680.9983,-31.2469 686.9983,-25.2469 692.9983,-25.2469"/>
<text text-anchor="middle" x="820.7312" y="-1327.6469" font-family="Times,serif" font-size="14.00" fill="#f0f0f0">VaultLib</text>
</g>
<g id="clust3" class="cluster">
<title>cluster_sizeDelta</title>
<path fill="#3b4b63" stroke="#e8726d" stroke-dasharray="5,2" d="M322.9426,-662.2469C322.9426,-662.2469 373.9426,-662.2469 373.9426,-662.2469 379.9426,-662.2469 385.9426,-668.2469 385.9426,-674.2469 385.9426,-674.2469 385.9426,-727.2469 385.9426,-727.2469 385.9426,-733.2469 379.9426,-739.2469 373.9426,-739.2469 373.9426,-739.2469 322.9426,-739.2469 322.9426,-739.2469 316.9426,-739.2469 310.9426,-733.2469 310.9426,-727.2469 310.9426,-727.2469 310.9426,-674.2469 310.9426,-674.2469 310.9426,-668.2469 316.9426,-662.2469 322.9426,-662.2469"/>
<text text-anchor="middle" x="348.4426" y="-722.6469" font-family="Times,serif" font-size="14.00" fill="#f0f0f0">_sizeDelta</text>
</g>
<g id="clust4" class="cluster">
<title>clustercollateral</title>
<path fill="#3b4b63" stroke="#e8726d" stroke-dasharray="5,2" d="M535.8493,-1446.2469C535.8493,-1446.2469 581.8493,-1446.2469 581.8493,-1446.2469 587.8493,-1446.2469 593.8493,-1452.2469 593.8493,-1458.2469 593.8493,-1458.2469 593.8493,-1511.2469 593.8493,-1511.2469 593.8493,-1517.2469 587.8493,-1523.2469 581.8493,-1523.2469 581.8493,-1523.2469 535.8493,-1523.2469 535.8493,-1523.2469 529.8493,-1523.2469 523.8493,-1517.2469 523.8493,-1511.2469 523.8493,-1511.2469 523.8493,-1458.2469 523.8493,-1458.2469 523.8493,-1452.2469 529.8493,-1446.2469 535.8493,-1446.2469"/>
<text text-anchor="middle" x="558.8493" y="-1506.6469" font-family="Times,serif" font-size="14.00" fill="#f0f0f0">collateral</text>
</g>
<g id="clust5" class="cluster">
<title>cluster_usdOut</title>
<path fill="#3b4b63" stroke="#e8726d" stroke-dasharray="5,2" d="M535.8493,-1361.2469C535.8493,-1361.2469 581.8493,-1361.2469 581.8493,-1361.2469 587.8493,-1361.2469 593.8493,-1367.2469 593.8493,-1373.2469 593.8493,-1373.2469 593.8493,-1426.2469 593.8493,-1426.2469 593.8493,-1432.2469 587.8493,-1438.2469 581.8493,-1438.2469 581.8493,-1438.2469 535.8493,-1438.2469 535.8493,-1438.2469 529.8493,-1438.2469 523.8493,-1432.2469 523.8493,-1426.2469 523.8493,-1426.2469 523.8493,-1373.2469 523.8493,-1373.2469 523.8493,-1367.2469 529.8493,-1361.2469 535.8493,-1361.2469"/>
<text text-anchor="middle" x="558.8493" y="-1421.6469" font-family="Times,serif" font-size="14.00" fill="#f0f0f0">_usdOut</text>
</g>
<g id="clust6" class="cluster">
<title>clustermarginFees</title>
<path fill="#3b4b63" stroke="#e8726d" stroke-dasharray="5,2" d="M792.7312,-1746.2469C792.7312,-1746.2469 849.7312,-1746.2469 849.7312,-1746.2469 855.7312,-1746.2469 861.7312,-1752.2469 861.7312,-1758.2469 861.7312,-1758.2469 861.7312,-1811.2469 861.7312,-1811.2469 861.7312,-1817.2469 855.7312,-1823.2469 849.7312,-1823.2469 849.7312,-1823.2469 792.7312,-1823.2469 792.7312,-1823.2469 786.7312,-1823.2469 780.7312,-1817.2469 780.7312,-1811.2469 780.7312,-1811.2469 780.7312,-1758.2469 780.7312,-1758.2469 780.7312,-1752.2469 786.7312,-1746.2469 792.7312,-1746.2469"/>
<text text-anchor="middle" x="821.2312" y="-1806.6469" font-family="Times,serif" font-size="14.00" fill="#f0f0f0">marginFees</text>
</g>
<g id="clust7" class="cluster">
<title>clusterremainingCollateral</title>
<path fill="#3b4b63" stroke="#e8726d" stroke-dasharray="5,2" d="M769.7312,-1661.2469C769.7312,-1661.2469 872.7312,-1661.2469 872.7312,-1661.2469 878.7312,-1661.2469 884.7312,-1667.2469 884.7312,-1673.2469 884.7312,-1673.2469 884.7312,-1726.2469 884.7312,-1726.2469 884.7312,-1732.2469 878.7312,-1738.2469 872.7312,-1738.2469 872.7312,-1738.2469 769.7312,-1738.2469 769.7312,-1738.2469 763.7312,-1738.2469 757.7312,-1732.2469 757.7312,-1726.2469 757.7312,-1726.2469 757.7312,-1673.2469 757.7312,-1673.2469 757.7312,-1667.2469 763.7312,-1661.2469 769.7312,-1661.2469"/>
<text text-anchor="middle" x="821.2312" y="-1721.6469" font-family="Times,serif" font-size="14.00" fill="#f0f0f0">remainingCollateral</text>
</g>
<g id="clust8" class="cluster">
<title>cluster_size</title>
<path fill="#3b4b63" stroke="#e8726d" stroke-dasharray="5,2" d="M797.7312,-1576.2469C797.7312,-1576.2469 843.7312,-1576.2469 843.7312,-1576.2469 849.7312,-1576.2469 855.7312,-1582.2469 855.7312,-1588.2469 855.7312,-1588.2469 855.7312,-1641.2469 855.7312,-1641.2469 855.7312,-1647.2469 849.7312,-1653.2469 843.7312,-1653.2469 843.7312,-1653.2469 797.7312,-1653.2469 797.7312,-1653.2469 791.7312,-1653.2469 785.7312,-1647.2469 785.7312,-1641.2469 785.7312,-1641.2469 785.7312,-1588.2469 785.7312,-1588.2469 785.7312,-1582.2469 791.7312,-1576.2469 797.7312,-1576.2469"/>
<text text-anchor="middle" x="820.7312" y="-1636.6469" font-family="Times,serif" font-size="14.00" fill="#f0f0f0">_size</text>
</g>
<g id="clust9" class="cluster">
<title>clusternextSize</title>
<path fill="#3b4b63" stroke="#e8726d" stroke-dasharray="5,2" d="M797.7312,-1437.2469C797.7312,-1437.2469 843.7312,-1437.2469 843.7312,-1437.2469 849.7312,-1437.2469 855.7312,-1443.2469 855.7312,-1449.2469 855.7312,-1449.2469 855.7312,-1556.2469 855.7312,-1556.2469 855.7312,-1562.2469 849.7312,-1568.2469 843.7312,-1568.2469 843.7312,-1568.2469 797.7312,-1568.2469 797.7312,-1568.2469 791.7312,-1568.2469 785.7312,-1562.2469 785.7312,-1556.2469 785.7312,-1556.2469 785.7312,-1449.2469 785.7312,-1449.2469 785.7312,-1443.2469 791.7312,-1437.2469 797.7312,-1437.2469"/>
<text text-anchor="middle" x="820.7312" y="-1551.6469" font-family="Times,serif" font-size="14.00" fill="#f0f0f0">nextSize</text>
</g>
<g id="clust10" class="cluster">
<title>cluster_nextPrice</title>
<path fill="#3b4b63" stroke="#e8726d" stroke-dasharray="5,2" d="M795.7312,-1352.2469C795.7312,-1352.2469 846.7312,-1352.2469 846.7312,-1352.2469 852.7312,-1352.2469 858.7312,-1358.2469 858.7312,-1364.2469 858.7312,-1364.2469 858.7312,-1417.2469 858.7312,-1417.2469 858.7312,-1423.2469 852.7312,-1429.2469 846.7312,-1429.2469 846.7312,-1429.2469 795.7312,-1429.2469 795.7312,-1429.2469 789.7312,-1429.2469 783.7312,-1423.2469 783.7312,-1417.2469 783.7312,-1417.2469 783.7312,-1364.2469 783.7312,-1364.2469 783.7312,-1358.2469 789.7312,-1352.2469 795.7312,-1352.2469"/>
<text text-anchor="middle" x="821.2312" y="-1412.6469" font-family="Times,serif" font-size="14.00" fill="#f0f0f0">_nextPrice</text>
</g>
<g id="clust11" class="cluster">
<title>cluster_01</title>
<polygon fill="#2e3e56" stroke="#000000" points="50.5924,-2564.2469 50.5924,-2693.2469 382.9426,-2693.2469 382.9426,-2564.2469 50.5924,-2564.2469"/>
<text text-anchor="middle" x="216.7675" y="-2676.6469" font-family="Times,serif" font-size="14.00" fill="#000000">Legend</text>
</g>
<!-- VaultFacet.increasePosition -->
<g id="node1" class="node">
<title>VaultFacet.increasePosition</title>
<ellipse fill="#ffbdb9" stroke="#ffbdb9" stroke-width="3" cx="123.5924" cy="-2451.2469" rx="74.1528" ry="18"/>
<text text-anchor="middle" x="123.5924" y="-2447.0469" font-family="Times,serif" font-size="14.00" fill="#000000">increasePosition</text>
</g>
<!-- VaultFacet.validateLiquidation -->
<g id="node5" class="node">
<title>VaultFacet.validateLiquidation</title>
<ellipse fill="#edad56" stroke="#edad56" stroke-width="3" cx="558.8493" cy="-2109.2469" rx="86.8359" ry="18"/>
<text text-anchor="middle" x="558.8493" y="-2105.0469" font-family="Times,serif" font-size="14.00" fill="#000000">validateLiquidation</text>
</g>
<!-- VaultFacet.increasePosition&#45;&gt;VaultFacet.validateLiquidation -->
<g id="edge12" class="edge">
<title>VaultFacet.increasePosition-&gt;VaultFacet.validateLiquidation</title>
<path fill="none" stroke="#1bc6a6" stroke-width="2" d="M196.1253,-2446.9973C280.4393,-2441.465 410.4381,-2430.8719 428.7003,-2417.2469 521.5325,-2347.987 548.7183,-2199.5982 556.1954,-2137.4935"/>
<polygon fill="#1bc6a6" stroke="#1bc6a6" stroke-width="2" points="559.7049,-2137.6032 557.339,-2127.2759 552.7484,-2136.8245 559.7049,-2137.6032"/>
</g>
<!-- VaultFacet.getNextAveragePrice -->
<g id="node10" class="node">
<title>VaultFacet.getNextAveragePrice</title>
<ellipse fill="#edad56" stroke="#edad56" stroke-width="3" cx="558.8493" cy="-2055.2469" rx="94.2982" ry="18"/>
<text text-anchor="middle" x="558.8493" y="-2051.0469" font-family="Times,serif" font-size="14.00" fill="#000000">getNextAveragePrice</text>
</g>
<!-- VaultFacet.increasePosition&#45;&gt;VaultFacet.getNextAveragePrice -->
<g id="edge7" class="edge">
<title>VaultFacet.increasePosition-&gt;VaultFacet.getNextAveragePrice</title>
<path fill="none" stroke="#1bc6a6" stroke-width="2" d="M175.1464,-2438.2385C208.7914,-2429.9045 249.6147,-2420.1284 267.1849,-2417.2469 302.7565,-2411.4132 402.965,-2427.4871 428.7003,-2402.2469 530.8791,-2302.0338 372.3066,-2191.5472 464.7003,-2082.2469 468.1119,-2078.2111 472.0827,-2074.7572 476.4266,-2071.8035"/>
<polygon fill="#1bc6a6" stroke="#1bc6a6" stroke-width="2" points="478.2982,-2074.7641 485.1914,-2066.7183 474.7853,-2068.7094 478.2982,-2074.7641"/>
</g>
<!-- VaultFacet.contractEntered -->
<g id="node21" class="node">
<title>VaultFacet.contractEntered</title>
<ellipse fill="#edad56" stroke="#edad56" stroke-width="3" cx="347.9426" cy="-2469.2469" rx="72.3284" ry="18"/>
<text text-anchor="middle" x="347.9426" y="-2465.0469" font-family="Times,serif" font-size="14.00" fill="#000000">contractEntered</text>
</g>
<!-- VaultFacet.increasePosition&#45;&gt;VaultFacet.contractEntered -->
<g id="edge1" class="edge">
<title>VaultFacet.increasePosition-&gt;VaultFacet.contractEntered</title>
<path fill="none" stroke="#1bc6a6" stroke-width="2" d="M194.2703,-2456.9175C217.9836,-2458.8201 244.5769,-2460.9537 268.8899,-2462.9044"/>
<polygon fill="#1bc6a6" stroke="#1bc6a6" stroke-width="2" points="268.9071,-2466.4169 279.155,-2463.7279 269.467,-2459.4393 268.9071,-2466.4169"/>
</g>
<!-- VaultFacet.contractExited -->
<g id="node22" class="node">
<title>VaultFacet.contractExited</title>
<ellipse fill="#edad56" stroke="#edad56" stroke-width="3" cx="347.9426" cy="-2375.2469" rx="67.1927" ry="18"/>
<text text-anchor="middle" x="347.9426" y="-2371.0469" font-family="Times,serif" font-size="14.00" fill="#000000">contractExited</text>
</g>
<!-- VaultFacet.increasePosition&#45;&gt;VaultFacet.contractExited -->
<g id="edge21" class="edge">
<title>VaultFacet.increasePosition-&gt;VaultFacet.contractExited</title>
<path fill="none" stroke="#1bc6a6" stroke-width="2" d="M179.7772,-2439.3442C196.5203,-2435.2111 214.7743,-2430.1171 231.1849,-2424.2469 247.8453,-2418.2873 250.9516,-2414.2874 267.1849,-2407.2469 277.672,-2402.6986 289.0285,-2398.0383 299.8204,-2393.7312"/>
<polygon fill="#1bc6a6" stroke="#1bc6a6" stroke-width="2" points="301.1131,-2396.9838 309.1227,-2390.0487 298.5365,-2390.4752 301.1131,-2396.9838"/>
</g>
<!-- VaultLib.validateTokens -->
<g id="node23" class="node">
<title>VaultLib.validateTokens</title>
<ellipse fill="#edad56" stroke="#edad56" stroke-width="3" cx="820.7312" cy="-213.2469" rx="70.0635" ry="18"/>
<text text-anchor="middle" x="820.7312" y="-209.0469" font-family="Times,serif" font-size="14.00" fill="#000000">validateTokens</text>
</g>
<!-- VaultFacet.increasePosition&#45;&gt;VaultLib.validateTokens -->
<g id="edge2" class="edge">
<title>VaultFacet.increasePosition-&gt;VaultLib.validateTokens</title>
<path fill="none" stroke="#ffffff" stroke-width="2" d="M195.6557,-2446.6859C209.3819,-2442.4342 222.2348,-2435.4606 231.1849,-2424.2469 287.1683,-2354.1047 210.6839,-878.9729 267.1849,-809.2469 313.6127,-751.9518 380.4793,-827.0412 428.7003,-771.2469 489.8093,-700.5406 409.1569,-427.4041 464.7003,-352.2469 518.3379,-279.6684 580.9731,-330.6251 652.9983,-276.2469 669.1753,-264.0334 663.7211,-250.8471 680.9983,-240.2469 699.179,-229.0923 720.988,-222.3905 741.9106,-218.4067"/>
<polygon fill="#ffffff" stroke="#ffffff" stroke-width="2" points="742.5046,-221.8561 751.7667,-216.7116 741.3181,-214.9573 742.5046,-221.8561"/>
</g>
<!-- VaultLib.updateCumulativeFundingRate -->
<g id="node24" class="node">
<title>VaultLib.updateCumulativeFundingRate</title>
<ellipse fill="#edad56" stroke="#edad56" stroke-width="3" cx="820.7312" cy="-321.2469" rx="131.9661" ry="18"/>
<text text-anchor="middle" x="820.7312" y="-317.0469" font-family="Times,serif" font-size="14.00" fill="#000000">updateCumulativeFundingRate</text>
</g>
<!-- VaultFacet.increasePosition&#45;&gt;VaultLib.updateCumulativeFundingRate -->
<g id="edge3" class="edge">
<title>VaultFacet.increasePosition-&gt;VaultLib.updateCumulativeFundingRate</title>
<path fill="none" stroke="#ffffff" stroke-width="2" d="M195.6464,-2446.6784C209.3731,-2442.4272 222.2286,-2435.4557 231.1849,-2424.2469 284.5719,-2357.4332 213.3049,-951.6637 267.1849,-885.2469 313.6442,-827.9774 370.2255,-892.1798 428.7003,-847.2469 439.1684,-839.2031 647.6866,-440.3328 652.9983,-428.2469 668.1552,-393.7602 652.4919,-372.873 680.9983,-348.2469 686.98,-343.0795 693.6488,-338.7819 700.7397,-335.2175"/>
<polygon fill="#ffffff" stroke="#ffffff" stroke-width="2" points="702.2435,-338.3789 709.9273,-331.0844 699.3717,-331.9951 702.2435,-338.3789"/>
</g>
<!-- VaultLib.getPositionKey -->
<g id="node25" class="node">
<title>VaultLib.getPositionKey</title>
<ellipse fill="#edad56" stroke="#edad56" stroke-width="3" cx="820.7312" cy="-429.2469" rx="70.6645" ry="18"/>
<text text-anchor="middle" x="820.7312" y="-425.0469" font-family="Times,serif" font-size="14.00" fill="#000000">getPositionKey</text>
</g>
<!-- VaultFacet.increasePosition&#45;&gt;VaultLib.getPositionKey -->
<g id="edge4" class="edge">
<title>VaultFacet.increasePosition-&gt;VaultLib.getPositionKey</title>
<path fill="none" stroke="#ffffff" stroke-width="2" d="M195.6414,-2446.6745C209.3684,-2442.4234 222.2253,-2435.453 231.1849,-2424.2469 335.3626,-2293.9479 162.0458,-1052.7714 267.1849,-923.2469 313.6612,-865.9911 369.4577,-929.1625 428.7003,-885.2469 454.2981,-866.2716 438.8028,-841.811 464.7003,-823.2469 534.0894,-773.5068 596.1736,-848.964 652.9983,-785.2469 701.8362,-730.4855 631.9347,-510.8062 680.9983,-456.2469 696.2534,-439.283 718.6825,-431.0439 741.1257,-427.4426"/>
<polygon fill="#ffffff" stroke="#ffffff" stroke-width="2" points="741.6088,-430.9093 751.0671,-426.1353 740.6961,-423.9691 741.6088,-430.9093"/>
</g>
<!-- VaultLib.getMaxPrice -->
<g id="node26" class="node">
<title>VaultLib.getMaxPrice</title>
<ellipse fill="#edad56" stroke="#edad56" stroke-width="3" cx="820.7312" cy="-969.2469" rx="60.2499" ry="18"/>
<text text-anchor="middle" x="820.7312" y="-965.0469" font-family="Times,serif" font-size="14.00" fill="#000000">getMaxPrice</text>
</g>
<!-- VaultFacet.increasePosition&#45;&gt;VaultLib.getMaxPrice -->
<g id="edge5" class="edge">
<title>VaultFacet.increasePosition-&gt;VaultLib.getMaxPrice</title>
<path fill="none" stroke="#ffffff" stroke-width="2" d="M195.5505,-2446.6013C209.2829,-2442.3547 222.1649,-2435.4045 231.1849,-2424.2469 303.5262,-2334.7609 199.5781,-1482.3614 267.1849,-1389.2469 322.0809,-1313.6389 374.7593,-1342.5601 464.7003,-1317.2469 546.8826,-1294.1173 595.7379,-1342.5727 652.9983,-1279.2469 695.3833,-1232.3722 638.4201,-1042.9462 680.9983,-996.2469 698.7071,-976.8241 725.8269,-968.881 751.4784,-966.2309"/>
<polygon fill="#ffffff" stroke="#ffffff" stroke-width="2" points="751.8935,-969.7093 761.5905,-965.4409 751.3483,-962.7305 751.8935,-969.7093"/>
</g>
<!-- VaultLib.getMinPrice -->
<g id="node27" class="node">
<title>VaultLib.getMinPrice</title>
<ellipse fill="#edad56" stroke="#edad56" stroke-width="3" cx="820.7312" cy="-861.2469" rx="58.5444" ry="18"/>
<text text-anchor="middle" x="820.7312" y="-857.0469" font-family="Times,serif" font-size="14.00" fill="#000000">getMinPrice</text>
</g>
<!-- VaultFacet.increasePosition&#45;&gt;VaultLib.getMinPrice -->
<g id="edge6" class="edge">
<title>VaultFacet.increasePosition-&gt;VaultLib.getMinPrice</title>
<path fill="none" stroke="#ffffff" stroke-width="2" d="M195.5847,-2446.6289C209.315,-2442.3806 222.1876,-2435.4228 231.1849,-2424.2469 312.885,-2322.7633 185.348,-1353.6202 267.1849,-1252.2469 323.9977,-1181.8714 376.4574,-1223.0866 464.7003,-1203.2469 547.9962,-1184.5195 595.6707,-1228.5119 652.9983,-1165.2469 736.086,-1073.5537 597.5326,-979.5962 680.9983,-888.2469 699.022,-868.5208 726.7539,-860.6426 752.7753,-858.1224"/>
<polygon fill="#ffffff" stroke="#ffffff" stroke-width="2" points="753.297,-861.5941 763.0207,-857.3869 752.7957,-854.6121 753.297,-861.5941"/>
</g>
<!-- VaultLib._collectMarginFees -->
<g id="node28" class="node">
<title>VaultLib._collectMarginFees</title>
<ellipse fill="#edad56" stroke="#edad56" stroke-width="3" cx="820.7312" cy="-753.2469" rx="87.9568" ry="18"/>
<text text-anchor="middle" x="820.7312" y="-749.0469" font-family="Times,serif" font-size="14.00" fill="#000000">_collectMarginFees</text>
</g>
<!-- VaultFacet.increasePosition&#45;&gt;VaultLib._collectMarginFees -->
<g id="edge8" class="edge">
<title>VaultFacet.increasePosition-&gt;VaultLib._collectMarginFees</title>
<path fill="none" stroke="#ffffff" stroke-width="2" d="M195.6052,-2446.6454C209.3343,-2442.3961 222.2012,-2435.4337 231.1849,-2424.2469 319.785,-2313.9176 177.7707,-1260.9175 267.1849,-1151.2469 313.7839,-1094.091 361.0539,-1142.6108 428.7003,-1113.2469 446.3397,-1105.59 447.6956,-1098.2257 464.7003,-1089.2469 544.5059,-1047.108 598.1387,-1084.9061 652.9983,-1013.2469 716.4005,-930.4292 609.9212,-856.5795 680.9983,-780.2469 692.2229,-768.1923 707.0771,-760.585 722.9093,-755.9263"/>
<polygon fill="#ffffff" stroke="#ffffff" stroke-width="2" points="724.041,-759.2499 732.8699,-753.3931 722.3157,-752.4659 724.041,-759.2499"/>
</g>
<!-- VaultLib.transferIn -->
<g id="node29" class="node">
<title>VaultLib.transferIn</title>
<ellipse fill="#edad56" stroke="#edad56" stroke-width="3" cx="820.7312" cy="-699.2469" rx="48.6307" ry="18"/>
<text text-anchor="middle" x="820.7312" y="-695.0469" font-family="Times,serif" font-size="14.00" fill="#000000">transferIn</text>
</g>
<!-- VaultFacet.increasePosition&#45;&gt;VaultLib.transferIn -->
<g id="edge9" class="edge">
<title>VaultFacet.increasePosition-&gt;VaultLib.transferIn</title>
<path fill="none" stroke="#ffffff" stroke-width="2" d="M195.6121,-2446.651C209.3408,-2442.4014 222.2058,-2435.4374 231.1849,-2424.2469 322.3812,-2310.5895 175.15,-1226.2263 267.1849,-1113.2469 313.7605,-1056.0719 369.4577,-1119.1625 428.7003,-1075.2469 454.2981,-1056.2716 438.8028,-1031.811 464.7003,-1013.2469 534.0894,-963.5068 595.3161,-1038.1888 652.9983,-975.2469 728.2395,-893.1449 605.4187,-808.0375 680.9983,-726.2469 701.4585,-704.1053 734.1582,-696.9365 762.7822,-695.4977"/>
<polygon fill="#ffffff" stroke="#ffffff" stroke-width="2" points="763.2147,-698.9871 773.1132,-695.2097 763.0196,-691.9898 763.2147,-698.9871"/>
</g>
<!-- VaultLib.tokenToUsdMin -->
<g id="node30" class="node">
<title>VaultLib.tokenToUsdMin</title>
<ellipse fill="#edad56" stroke="#edad56" stroke-width="3" cx="820.7312" cy="-645.2469" rx="74.7438" ry="18"/>
<text text-anchor="middle" x="820.7312" y="-641.0469" font-family="Times,serif" font-size="14.00" fill="#000000">tokenToUsdMin</text>
</g>
<!-- VaultFacet.increasePosition&#45;&gt;VaultLib.tokenToUsdMin -->
<g id="edge10" class="edge">
<title>VaultFacet.increasePosition-&gt;VaultLib.tokenToUsdMin</title>
<path fill="none" stroke="#ffffff" stroke-width="2" d="M195.6186,-2446.6562C209.347,-2442.4063 222.2101,-2435.4409 231.1849,-2424.2469 324.9774,-2307.2612 172.5292,-1191.5353 267.1849,-1075.2469 313.7384,-1018.0539 369.4577,-1081.1625 428.7003,-1037.2469 454.2981,-1018.2716 438.8028,-993.811 464.7003,-975.2469 534.0894,-925.5068 595.5276,-1000.382 652.9983,-937.2469 732.7223,-849.6652 600.9133,-759.4986 680.9983,-672.2469 695.2128,-656.7604 715.4124,-648.5853 736.0491,-644.5723"/>
<polygon fill="#ffffff" stroke="#ffffff" stroke-width="2" points="736.8822,-647.9828 746.1906,-642.9228 735.7584,-641.0736 736.8822,-647.9828"/>
</g>
<!-- VaultLib.validatePosition -->
<g id="node31" class="node">
<title>VaultLib.validatePosition</title>
<ellipse fill="#edad56" stroke="#edad56" stroke-width="3" cx="820.7312" cy="-915.2469" rx="73.0305" ry="18"/>
<text text-anchor="middle" x="820.7312" y="-911.0469" font-family="Times,serif" font-size="14.00" fill="#000000">validatePosition</text>
</g>
<!-- VaultFacet.increasePosition&#45;&gt;VaultLib.validatePosition -->
<g id="edge11" class="edge">
<title>VaultFacet.increasePosition-&gt;VaultLib.validatePosition</title>
<path fill="none" stroke="#ffffff" stroke-width="2" d="M195.5688,-2446.6161C209.3001,-2442.3686 222.1771,-2435.4143 231.1849,-2424.2469 308.2396,-2328.7185 192.4726,-1417.6183 267.1849,-1320.2469 376.262,-1178.0883 538.7183,-1341.2576 652.9983,-1203.2469 727.4054,-1113.3889 602.0399,-1028.1331 680.9983,-942.2469 695.6507,-926.3089 716.643,-918.1181 737.9186,-914.2385"/>
<polygon fill="#ffffff" stroke="#ffffff" stroke-width="2" points="738.662,-917.6658 748.0242,-912.7059 737.6124,-910.745 738.662,-917.6658"/>
</g>
<!-- VaultLib.usdToTokenMax -->
<g id="node32" class="node">
<title>VaultLib.usdToTokenMax</title>
<ellipse fill="#edad56" stroke="#edad56" stroke-width="3" cx="820.7312" cy="-591.2469" rx="77.5955" ry="18"/>
<text text-anchor="middle" x="820.7312" y="-587.0469" font-family="Times,serif" font-size="14.00" fill="#000000">usdToTokenMax</text>
</g>
<!-- VaultFacet.increasePosition&#45;&gt;VaultLib.usdToTokenMax -->
<g id="edge13" class="edge">
<title>VaultFacet.increasePosition-&gt;VaultLib.usdToTokenMax</title>
<path fill="none" stroke="#ffffff" stroke-width="2" d="M195.6248,-2446.6611C209.3528,-2442.4109 222.2142,-2435.4442 231.1849,-2424.2469 327.5736,-2303.933 169.9084,-1156.8442 267.1849,-1037.2469 313.7175,-980.0369 369.4577,-1043.1625 428.7003,-999.2469 454.2981,-980.2716 438.8028,-955.811 464.7003,-937.2469 534.0894,-887.5068 595.7158,-962.5528 652.9983,-899.2469 695.1029,-852.7149 638.7019,-664.6046 680.9983,-618.2469 694.6036,-603.3352 713.7561,-595.1913 733.5297,-591.0142"/>
<polygon fill="#ffffff" stroke="#ffffff" stroke-width="2" points="734.3504,-594.4232 743.5813,-589.2232 733.1224,-587.5317 734.3504,-594.4232"/>
</g>
<!-- VaultLib._increaseReservedAmount -->
<g id="node33" class="node">
<title>VaultLib._increaseReservedAmount</title>
<ellipse fill="#edad56" stroke="#edad56" stroke-width="3" cx="820.7312" cy="-537.2469" rx="115.1493" ry="18"/>
<text text-anchor="middle" x="820.7312" y="-533.0469" font-family="Times,serif" font-size="14.00" fill="#000000">_increaseReservedAmount</text>
</g>
<!-- VaultFacet.increasePosition&#45;&gt;VaultLib._increaseReservedAmount -->
<g id="edge14" class="edge">
<title>VaultFacet.increasePosition-&gt;VaultLib._increaseReservedAmount</title>
<path fill="none" stroke="#ffffff" stroke-width="2" d="M195.6306,-2446.6658C209.3583,-2442.4153 222.2181,-2435.4473 231.1849,-2424.2469 330.1699,-2300.6046 167.2876,-1122.1533 267.1849,-999.2469 313.6977,-942.0208 369.4577,-1005.1625 428.7003,-961.2469 454.2981,-942.2716 438.8028,-917.811 464.7003,-899.2469 534.0894,-849.5068 595.8844,-924.7048 652.9983,-861.2469 697.3465,-811.9726 636.447,-613.3376 680.9983,-564.2469 687.2783,-557.3271 694.7524,-551.8626 702.9309,-547.5744"/>
<polygon fill="#ffffff" stroke="#ffffff" stroke-width="2" points="704.4404,-550.7326 712.0587,-543.3698 701.5117,-544.3747 704.4404,-550.7326"/>
</g>
<!-- VaultLib._increaseGuaranteedUsd -->
<g id="node34" class="node">
<title>VaultLib._increaseGuaranteedUsd</title>
<ellipse fill="#edad56" stroke="#edad56" stroke-width="3" cx="820.7312" cy="-1023.2469" rx="107.6038" ry="18"/>
<text text-anchor="middle" x="820.7312" y="-1019.0469" font-family="Times,serif" font-size="14.00" fill="#000000">_increaseGuaranteedUsd</text>
</g>
<!-- VaultFacet.increasePosition&#45;&gt;VaultLib._increaseGuaranteedUsd -->
<g id="edge15" class="edge">
<title>VaultFacet.increasePosition-&gt;VaultLib._increaseGuaranteedUsd</title>
<path fill="none" stroke="#ffffff" stroke-width="2" d="M195.3349,-2446.4247C209.0802,-2442.1886 222.022,-2435.2874 231.1849,-2424.2469 273.4124,-2373.3663 252.2363,-1894.656 267.1849,-1830.2469 318.689,-1608.3306 289.3291,-1502.6583 464.7003,-1357.2469 530.5607,-1302.6379 595.7541,-1380.8301 652.9983,-1317.2469 732.8323,-1228.5724 600.3499,-1138.1814 680.9983,-1050.2469 688.2754,-1042.3124 697.1235,-1036.2967 706.7971,-1031.7765"/>
<polygon fill="#ffffff" stroke="#ffffff" stroke-width="2" points="708.3711,-1034.9142 716.3003,-1027.8872 705.7196,-1028.4357 708.3711,-1034.9142"/>
</g>
<!-- VaultLib._decreaseGuaranteedUsd -->
<g id="node35" class="node">
<title>VaultLib._decreaseGuaranteedUsd</title>
<ellipse fill="#edad56" stroke="#edad56" stroke-width="3" cx="820.7312" cy="-807.2469" rx="109.3101" ry="18"/>
<text text-anchor="middle" x="820.7312" y="-803.0469" font-family="Times,serif" font-size="14.00" fill="#000000">_decreaseGuaranteedUsd</text>
</g>
<!-- VaultFacet.increasePosition&#45;&gt;VaultLib._decreaseGuaranteedUsd -->
<g id="edge17" class="edge">
<title>VaultFacet.increasePosition-&gt;VaultLib._decreaseGuaranteedUsd</title>
<path fill="none" stroke="#ffffff" stroke-width="2" d="M195.5948,-2446.6371C209.3246,-2442.3883 222.1944,-2435.4282 231.1849,-2424.2469 316.1641,-2318.5595 184.5412,-1311.7706 267.1849,-1204.2469 294.4446,-1168.7806 624.3444,-1123.5966 652.9983,-1089.2469 726.0324,-1001.695 603.7295,-918.0851 680.9983,-834.2469 688.1678,-826.4678 696.8479,-820.5356 706.3326,-816.0501"/>
<polygon fill="#ffffff" stroke="#ffffff" stroke-width="2" points="707.7576,-819.2482 715.6498,-812.1797 705.0722,-812.7837 707.7576,-819.2482"/>
</g>
<!-- VaultLib._increasePoolAmount -->
<g id="node36" class="node">
<title>VaultLib._increasePoolAmount</title>
<ellipse fill="#edad56" stroke="#edad56" stroke-width="3" cx="820.7312" cy="-483.2469" rx="96.7119" ry="18"/>
<text text-anchor="middle" x="820.7312" y="-479.0469" font-family="Times,serif" font-size="14.00" fill="#000000">_increasePoolAmount</text>
</g>
<!-- VaultFacet.increasePosition&#45;&gt;VaultLib._increasePoolAmount -->
<g id="edge18" class="edge">
<title>VaultFacet.increasePosition-&gt;VaultLib._increasePoolAmount</title>
<path fill="none" stroke="#ffffff" stroke-width="2" d="M195.6362,-2446.6702C209.3635,-2442.4195 222.2218,-2435.4502 231.1849,-2424.2469 332.7662,-2297.2763 164.6667,-1087.4623 267.1849,-961.2469 313.679,-904.0056 369.4577,-967.1625 428.7003,-923.2469 454.2981,-904.2716 438.8028,-879.811 464.7003,-861.2469 534.0894,-811.5068 596.0361,-886.8411 652.9983,-823.2469 699.591,-771.2294 634.1912,-562.0715 680.9983,-510.2469 690.1042,-500.1649 701.7447,-493.1682 714.4108,-488.3965"/>
<polygon fill="#ffffff" stroke="#ffffff" stroke-width="2" points="715.8576,-491.6057 724.2716,-485.1671 713.679,-484.9534 715.8576,-491.6057"/>
</g>
<!-- VaultLib._decreasePoolAmount -->
<g id="node37" class="node">
<title>VaultLib._decreasePoolAmount</title>
<ellipse fill="#edad56" stroke="#edad56" stroke-width="3" cx="820.7312" cy="-267.2469" rx="98.4178" ry="18"/>
<text text-anchor="middle" x="820.7312" y="-263.0469" font-family="Times,serif" font-size="14.00" fill="#000000">_decreasePoolAmount</text>
</g>
<!-- VaultFacet.increasePosition&#45;&gt;VaultLib._decreasePoolAmount -->
<g id="edge19" class="edge">
<title>VaultFacet.increasePosition-&gt;VaultLib._decreasePoolAmount</title>
<path fill="none" stroke="#ffffff" stroke-width="2" d="M195.6512,-2446.6823C209.3776,-2442.4308 222.2317,-2435.4582 231.1849,-2424.2469 285.8701,-2355.7689 211.9944,-915.3183 267.1849,-847.2469 313.6281,-789.9643 380.2426,-864.8357 428.7003,-809.2469 484.5827,-745.1407 413.8653,-496.4249 464.7003,-428.2469 518.6459,-355.8971 587.1086,-413.9167 652.9983,-352.2469 673.897,-332.6867 658.3144,-311.7054 680.9983,-294.2469 691.6083,-286.081 703.9873,-280.1623 716.911,-275.9054"/>
<polygon fill="#ffffff" stroke="#ffffff" stroke-width="2" points="718.2789,-279.151 726.8797,-272.9643 716.298,-272.4371 718.2789,-279.151"/>
</g>
<!-- VaultLib.usdToTokenMin -->
<g id="node38" class="node">
<title>VaultLib.usdToTokenMin</title>
<ellipse fill="#edad56" stroke="#edad56" stroke-width="3" cx="820.7312" cy="-105.2469" rx="75.8894" ry="18"/>
<text text-anchor="middle" x="820.7312" y="-101.0469" font-family="Times,serif" font-size="14.00" fill="#000000">usdToTokenMin</text>
</g>
<!-- VaultFacet.increasePosition&#45;&gt;VaultLib.usdToTokenMin -->
<g id="edge20" class="edge">
<title>VaultFacet.increasePosition-&gt;VaultLib.usdToTokenMin</title>
<path fill="none" stroke="#ffffff" stroke-width="2" d="M195.6601,-2446.6893C209.3859,-2442.4374 222.2376,-2435.4629 231.1849,-2424.2469 288.4665,-2352.4404 207.2786,-840.8788 267.1849,-771.2469 314.6998,-716.018 379.6804,-797.1444 428.7003,-743.2469 498.7332,-666.2455 412.0651,-366.0431 464.7003,-276.2469 523.1015,-176.6138 574.1439,-176.06 680.9983,-132.2469 700.1532,-124.3929 721.7382,-118.7877 742.1107,-114.8007"/>
<polygon fill="#ffffff" stroke="#ffffff" stroke-width="2" points="742.8024,-118.2322 751.9984,-112.9706 741.5284,-111.3491 742.8024,-118.2322"/>
</g>
<!-- _sizeDelta.add -->
<g id="node47" class="node">
<title>_sizeDelta.add</title>
<ellipse fill="#edad56" stroke="#edad56" stroke-width="3" cx="347.9426" cy="-688.2469" rx="27" ry="18"/>
<text text-anchor="middle" x="347.9426" y="-684.0469" font-family="Times,serif" font-size="14.00" fill="#000000">add</text>
</g>
<!-- VaultFacet.increasePosition&#45;&gt;_sizeDelta.add -->
<g id="edge16" class="edge">
<title>VaultFacet.increasePosition-&gt;_sizeDelta.add</title>
<path fill="none" stroke="#ffffff" stroke-width="2" d="M195.6631,-2446.6918C209.3888,-2442.4397 222.2397,-2435.4645 231.1849,-2424.2469 289.4231,-2351.2141 222.6348,-825.3491 267.1849,-743.2469 277.4241,-724.3769 297.2775,-710.7221 314.7364,-701.738"/>
<polygon fill="#ffffff" stroke="#ffffff" stroke-width="2" points="316.6211,-704.7152 324.1131,-697.2239 313.5847,-698.408 316.6211,-704.7152"/>
</g>
<!-- VaultFacet.decreasePosition -->
<g id="node2" class="node">
<title>VaultFacet.decreasePosition</title>
<ellipse fill="#ffbdb9" stroke="#ffbdb9" stroke-width="3" cx="123.5924" cy="-2505.2469" rx="75.8586" ry="18"/>
<text text-anchor="middle" x="123.5924" y="-2501.0469" font-family="Times,serif" font-size="14.00" fill="#000000">decreasePosition</text>
</g>
<!-- VaultFacet._decreasePosition -->
<g id="node3" class="node">
<title>VaultFacet._decreasePosition</title>
<ellipse fill="#edad56" stroke="#edad56" stroke-width="3" cx="347.9426" cy="-1857.2469" rx="80.5162" ry="18"/>
<text text-anchor="middle" x="347.9426" y="-1853.0469" font-family="Times,serif" font-size="14.00" fill="#000000">_decreasePosition</text>
</g>
<!-- VaultFacet.decreasePosition&#45;&gt;VaultFacet._decreasePosition -->
<g id="edge24" class="edge">
<title>VaultFacet.decreasePosition-&gt;VaultFacet._decreasePosition</title>
<path fill="none" stroke="#1bc6a6" stroke-width="2" d="M195.4301,-2499.1846C208.8329,-2494.9844 221.6127,-2488.4116 231.1849,-2478.2469 252.0842,-2456.0539 324.7344,-2004.1004 343.4943,-1885.5286"/>
<polygon fill="#1bc6a6" stroke="#1bc6a6" stroke-width="2" points="346.9876,-1885.8452 345.0905,-1875.4216 340.0733,-1884.7532 346.9876,-1885.8452"/>
</g>
<!-- VaultFacet.decreasePosition&#45;&gt;VaultFacet.contractEntered -->
<g id="edge22" class="edge">
<title>VaultFacet.decreasePosition-&gt;VaultFacet.contractEntered</title>
<path fill="none" stroke="#1bc6a6" stroke-width="2" d="M186.6835,-2495.1231C214.7397,-2490.6211 247.8987,-2485.3003 276.83,-2480.6579"/>
<polygon fill="#1bc6a6" stroke="#1bc6a6" stroke-width="2" points="277.5527,-2484.0868 286.8718,-2479.0465 276.4435,-2477.1752 277.5527,-2484.0868"/>
</g>
<!-- VaultFacet.decreasePosition&#45;&gt;VaultFacet.contractExited -->
<g id="edge25" class="edge">
<title>VaultFacet.decreasePosition-&gt;VaultFacet.contractExited</title>
<path fill="none" stroke="#1bc6a6" stroke-width="2" d="M187.2247,-2495.2812C202.2479,-2491.3293 217.7813,-2485.8437 231.1849,-2478.2469 250.8703,-2467.0896 250.4596,-2457.4872 267.1849,-2442.2469 283.5455,-2427.3388 302.5673,-2411.4897 318.039,-2398.951"/>
<polygon fill="#1bc6a6" stroke="#1bc6a6" stroke-width="2" points="320.638,-2401.3517 326.2297,-2392.3526 316.2465,-2395.9005 320.638,-2401.3517"/>
</g>
<!-- VaultFacet.decreasePosition&#45;&gt;VaultLib.validateTokens -->
<g id="edge23" class="edge">
<title>VaultFacet.decreasePosition-&gt;VaultLib.validateTokens</title>
<path fill="none" stroke="#ffffff" stroke-width="2" d="M196.7804,-2500.3544C210.0888,-2496.0724 222.4887,-2489.1705 231.1849,-2478.2469 294.172,-2399.1262 227.796,-751.3918 267.1849,-658.2469 369.0027,-417.4731 450.4218,-363.427 680.9983,-240.2469 699.9059,-230.146 722.047,-223.7904 743.0582,-219.8018"/>
<polygon fill="#ffffff" stroke="#ffffff" stroke-width="2" points="743.6882,-223.2448 752.9385,-218.0793 742.486,-216.3488 743.6882,-223.2448"/>
</g>
<!-- VaultFacet._decreasePosition&#45;&gt;VaultFacet.validateLiquidation -->
<g id="edge31" class="edge">
<title>VaultFacet._decreasePosition-&gt;VaultFacet.validateLiquidation</title>
<path fill="none" stroke="#1bc6a6" stroke-width="2" d="M352.0719,-1875.2261C362.8151,-1917.8767 395.7256,-2025.8159 464.7003,-2082.2469 470.0942,-2086.6598 476.174,-2090.3518 482.582,-2093.4406"/>
<polygon fill="#1bc6a6" stroke="#1bc6a6" stroke-width="2" points="481.5935,-2096.8248 492.1636,-2097.548 484.3516,-2090.391 481.5935,-2096.8248"/>
</g>
<!-- VaultFacet._decreasePosition&#45;&gt;VaultLib.updateCumulativeFundingRate -->
<g id="edge26" class="edge">
<title>VaultFacet._decreasePosition-&gt;VaultLib.updateCumulativeFundingRate</title>
<path fill="none" stroke="#ffffff" stroke-width="2" d="M348.9401,-1839.0232C352.9135,-1785.7114 372.3028,-1629.1663 464.7003,-1555.2469 530.7677,-1502.392 596.9891,-1590.6623 652.9983,-1527.2469 696.3704,-1478.1395 638.6983,-398.2807 680.9983,-348.2469 685.3427,-343.1082 690.3442,-338.7573 695.8138,-335.0847"/>
<polygon fill="#ffffff" stroke="#ffffff" stroke-width="2" points="697.8968,-337.9214 704.767,-329.8561 694.3667,-331.8767 697.8968,-337.9214"/>
</g>
<!-- VaultFacet._decreasePosition&#45;&gt;VaultLib.getPositionKey -->
<g id="edge27" class="edge">
<title>VaultFacet._decreasePosition-&gt;VaultLib.getPositionKey</title>
<path fill="none" stroke="#ffffff" stroke-width="2" d="M351.6826,-1839.1421C361.654,-1795.7181 393.1432,-1685.2546 464.7003,-1631.2469 532.8447,-1579.8149 598.1195,-1658.6475 652.9983,-1593.2469 734.2294,-1496.4415 599.3681,-552.716 680.9983,-456.2469 695.9438,-438.5846 718.6522,-430.231 741.4444,-426.7393"/>
<polygon fill="#ffffff" stroke="#ffffff" stroke-width="2" points="742.047,-430.1916 751.5436,-425.4942 741.1905,-423.2442 742.047,-430.1916"/>
</g>
<!-- VaultFacet._decreasePosition&#45;&gt;VaultLib.getMaxPrice -->
<g id="edge36" class="edge">
<title>VaultFacet._decreasePosition-&gt;VaultLib.getMaxPrice</title>
<path fill="none" stroke="#ffffff" stroke-width="2" d="M397.0056,-1842.9425C479.0627,-1823.9895 636.8024,-1792.2282 652.9983,-1772.2469 707.9554,-1704.4449 624.2543,-1053.5606 680.9983,-987.2469 701.3315,-963.4846 735.718,-956.6196 765.29,-956.8396"/>
<polygon fill="#ffffff" stroke="#ffffff" stroke-width="2" points="765.4022,-960.3456 775.5183,-957.1968 765.6466,-953.3498 765.4022,-960.3456"/>
</g>
<!-- VaultFacet._decreasePosition&#45;&gt;VaultLib.getMaxPrice -->
<g id="edge41" class="edge">
<title>VaultFacet._decreasePosition-&gt;VaultLib.getMaxPrice</title>
<path fill="none" stroke="#ffffff" stroke-width="2" d="M422.018,-1849.9271C507.5146,-1836.1124 638.3275,-1808.3466 652.9983,-1790.2469 707.9554,-1722.4449 624.2543,-1071.5606 680.9983,-1005.2469 698.1579,-985.1934 725.3263,-977.1742 751.1632,-973.984"/>
<polygon fill="#ffffff" stroke="#ffffff" stroke-width="2" points="751.7588,-977.4417 761.3553,-972.9519 751.0536,-970.4773 751.7588,-977.4417"/>
</g>
<!-- VaultFacet._decreasePosition&#45;&gt;VaultLib.getMinPrice -->
<g id="edge35" class="edge">
<title>VaultFacet._decreasePosition-&gt;VaultLib.getMinPrice</title>
<path fill="none" stroke="#ffffff" stroke-width="2" d="M357.6789,-1838.9706C376.0157,-1811.6266 418.0477,-1761.6604 464.7003,-1734.2469 539.9768,-1690.0136 599.5787,-1747.3083 652.9983,-1678.2469 707.3489,-1607.9818 623.2646,-946.7598 680.9983,-879.2469 701.5395,-855.2263 736.4411,-848.4696 766.2232,-848.8442"/>
<polygon fill="#ffffff" stroke="#ffffff" stroke-width="2" points="766.3796,-852.3532 776.5121,-849.2575 766.6606,-845.3588 766.3796,-852.3532"/>
</g>
<!-- VaultFacet._decreasePosition&#45;&gt;VaultLib.getMinPrice -->
<g id="edge40" class="edge">
<title>VaultFacet._decreasePosition-&gt;VaultLib.getMinPrice</title>
<path fill="none" stroke="#ffffff" stroke-width="2" d="M366.8218,-1839.4135C387.9914,-1815.9507 424.6426,-1775.7852 464.7003,-1752.2469 539.9768,-1708.0136 599.5787,-1765.3083 652.9983,-1696.2469 707.3489,-1625.9818 623.2646,-964.7598 680.9983,-897.2469 698.5835,-876.683 726.6934,-868.7718 753.1057,-865.7467"/>
<polygon fill="#ffffff" stroke="#ffffff" stroke-width="2" points="753.4892,-869.2262 763.1199,-864.8103 752.8375,-862.2566 753.4892,-869.2262"/>
</g>
<!-- VaultFacet._decreasePosition&#45;&gt;VaultLib.validatePosition -->
<g id="edge30" class="edge">
<title>VaultFacet._decreasePosition-&gt;VaultLib.validatePosition</title>
<path fill="none" stroke="#ffffff" stroke-width="2" d="M369.3543,-1839.7043C391.7681,-1822.243 428.6558,-1795.9822 464.7003,-1781.2469 543.7268,-1748.9401 597.7828,-1808.3634 652.9983,-1743.2469 710.5933,-1675.3242 623.1233,-1009.9311 680.9983,-942.2469 695.4103,-925.3922 716.8928,-917.0371 738.7162,-913.2936"/>
<polygon fill="#ffffff" stroke="#ffffff" stroke-width="2" points="739.3277,-916.7422 748.7431,-911.8841 738.3532,-909.8103 739.3277,-916.7422"/>
</g>
<!-- VaultFacet._decreasePosition&#45;&gt;VaultLib._increaseGuaranteedUsd -->
<g id="edge32" class="edge">
<title>VaultFacet._decreasePosition-&gt;VaultLib._increaseGuaranteedUsd</title>
<path fill="none" stroke="#ffffff" stroke-width="2" d="M411.4765,-1868.4085C481.2554,-1881.079 591.5453,-1891.5656 652.9983,-1828.2469 713.938,-1765.457 624.1129,-1107.7319 680.9983,-1041.2469 688.9671,-1031.9333 699.0949,-1025.2155 710.2455,-1020.5026"/>
<polygon fill="#ffffff" stroke="#ffffff" stroke-width="2" points="711.6357,-1023.7211 719.8277,-1017.0024 709.2339,-1017.146 711.6357,-1023.7211"/>
</g>
<!-- VaultFacet._decreasePosition&#45;&gt;VaultLib._increaseGuaranteedUsd -->
<g id="edge38" class="edge">
<title>VaultFacet._decreasePosition-&gt;VaultLib._increaseGuaranteedUsd</title>
<path fill="none" stroke="#ffffff" stroke-width="2" d="M383.5522,-1873.4473C447.6883,-1894.3853 582.4891,-1918.8968 652.9983,-1846.2469 713.938,-1783.457 624.1129,-1125.7319 680.9983,-1059.2469 690.7215,-1047.8829 703.6589,-1040.3833 717.7468,-1035.4372"/>
<polygon fill="#ffffff" stroke="#ffffff" stroke-width="2" points="719.12,-1038.6773 727.6585,-1032.4047 717.072,-1031.9836 719.12,-1038.6773"/>
</g>
<!-- VaultFacet._decreasePosition&#45;&gt;VaultLib._decreaseGuaranteedUsd -->
<g id="edge34" class="edge">
<title>VaultFacet._decreasePosition-&gt;VaultLib._decreaseGuaranteedUsd</title>
<path fill="none" stroke="#ffffff" stroke-width="2" d="M353.4277,-1839.1199C367.1401,-1802.4467 406.0734,-1720.9051 464.7003,-1678.2469 535.2998,-1626.8772 599.5757,-1691.306 652.9983,-1622.2469 707.2161,-1552.1599 623.406,-892.5885 680.9983,-825.2469 687.935,-817.1359 696.5091,-810.9934 705.9705,-806.4292"/>
<polygon fill="#ffffff" stroke="#ffffff" stroke-width="2" points="707.419,-809.6172 715.2891,-802.5241 704.7134,-803.1612 707.419,-809.6172"/>
</g>
<!-- VaultFacet._decreasePosition&#45;&gt;VaultLib._decreaseGuaranteedUsd -->
<g id="edge39" class="edge">
<title>VaultFacet._decreasePosition-&gt;VaultLib._decreaseGuaranteedUsd</title>
<path fill="none" stroke="#ffffff" stroke-width="2" d="M357.8132,-1839.3256C374.4182,-1805.8722 411.4294,-1735.0079 464.7003,-1696.2469 535.2998,-1644.8772 599.5757,-1709.306 652.9983,-1640.2469 707.2161,-1570.1599 623.406,-910.5885 680.9983,-843.2469 690.5885,-832.0333 703.3083,-824.5821 717.1758,-819.634"/>
<polygon fill="#ffffff" stroke="#ffffff" stroke-width="2" points="718.4294,-822.9094 726.9353,-816.5928 716.3468,-816.2264 718.4294,-822.9094"/>
</g>
<!-- VaultLib._decreaseReservedAmount -->
<g id="node39" class="node">
<title>VaultLib._decreaseReservedAmount</title>
<ellipse fill="#edad56" stroke="#edad56" stroke-width="3" cx="820.7312" cy="-375.2469" rx="116.8556" ry="18"/>
<text text-anchor="middle" x="820.7312" y="-371.0469" font-family="Times,serif" font-size="14.00" fill="#000000">_decreaseReservedAmount</text>
</g>
<!-- VaultFacet._decreasePosition&#45;&gt;VaultLib._decreaseReservedAmount -->
<g id="edge28" class="edge">
<title>VaultFacet._decreasePosition-&gt;VaultLib._decreaseReservedAmount</title>
<path fill="none" stroke="#ffffff" stroke-width="2" d="M350.2488,-1839.0742C357.4011,-1790.7274 383.8246,-1658.2162 464.7003,-1593.2469 531.2591,-1539.7787 598.1307,-1620.6568 652.9983,-1555.2469 735.3551,-1457.0659 598.2368,-500.0869 680.9983,-402.2469 686.7328,-395.4676 693.611,-390.0596 701.1987,-385.7714"/>
<polygon fill="#ffffff" stroke="#ffffff" stroke-width="2" points="702.9813,-388.795 710.406,-381.2369 699.8885,-382.5153 702.9813,-388.795"/>
</g>
<!-- VaultLib._reduceCollateral -->
<g id="node40" class="node">
<title>VaultLib._reduceCollateral</title>
<ellipse fill="#edad56" stroke="#edad56" stroke-width="3" cx="820.7312" cy="-1131.2469" rx="79.8507" ry="18"/>
<text text-anchor="middle" x="820.7312" y="-1127.0469" font-family="Times,serif" font-size="14.00" fill="#000000">_reduceCollateral</text>
</g>
<!-- VaultFacet._decreasePosition&#45;&gt;VaultLib._reduceCollateral -->
<g id="edge29" class="edge">
<title>VaultFacet._decreasePosition-&gt;VaultLib._reduceCollateral</title>
<path fill="none" stroke="#ffffff" stroke-width="2" d="M370.6838,-1874.719C426.776,-1915.6089 572.9763,-2008.4228 652.9983,-1931.2469 714.8609,-1871.5845 625.1026,-1223.5328 680.9983,-1158.2469 693.8514,-1143.2345 712.3138,-1134.9675 731.6256,-1130.6962"/>
<polygon fill="#ffffff" stroke="#ffffff" stroke-width="2" points="732.2754,-1134.1354 741.4635,-1128.8602 730.9911,-1127.2542 732.2754,-1134.1354"/>
</g>
<!-- VaultLib._transferRemainingCollateral -->
<g id="node41" class="node">
<title>VaultLib._transferRemainingCollateral</title>
<ellipse fill="#edad56" stroke="#edad56" stroke-width="3" cx="820.7312" cy="-1077.2469" rx="125.615" ry="18"/>
<text text-anchor="middle" x="820.7312" y="-1073.0469" font-family="Times,serif" font-size="14.00" fill="#000000">_transferRemainingCollateral</text>
</g>
<!-- VaultFacet._decreasePosition&#45;&gt;VaultLib._transferRemainingCollateral -->
<g id="edge43" class="edge">
<title>VaultFacet._decreasePosition-&gt;VaultLib._transferRemainingCollateral</title>
<path fill="none" stroke="#ffffff" stroke-width="2" d="M377.9652,-1874.2145C438.9261,-1906.1696 577.7895,-1965.8341 652.9983,-1893.2469 716.1174,-1832.328 623.9715,-1170.9033 680.9983,-1104.2469 685.9124,-1098.503 691.6475,-1093.7465 697.9374,-1089.8232"/>
<polygon fill="#ffffff" stroke="#ffffff" stroke-width="2" points="699.7273,-1092.8338 706.8332,-1084.9753 696.3776,-1086.6872 699.7273,-1092.8338"/>
</g>
<!-- collateral.sub -->
<g id="node48" class="node">
<title>collateral.sub</title>
<ellipse fill="#edad56" stroke="#edad56" stroke-width="3" cx="558.8493" cy="-1472.2469" rx="27" ry="18"/>
<text text-anchor="middle" x="558.8493" y="-1468.0469" font-family="Times,serif" font-size="14.00" fill="#000000">sub</text>
</g>
<!-- VaultFacet._decreasePosition&#45;&gt;collateral.sub -->
<g id="edge33" class="edge">
<title>VaultFacet._decreasePosition-&gt;collateral.sub</title>
<path fill="none" stroke="#ffffff" stroke-width="2" d="M349.9695,-1839.0206C356.7747,-1785.4066 383.165,-1625.8206 464.7003,-1527.2469 480.6681,-1507.9423 505.2881,-1493.8984 525.3469,-1484.8351"/>
<polygon fill="#ffffff" stroke="#ffffff" stroke-width="2" points="526.9647,-1487.9495 534.7697,-1480.7848 524.2003,-1481.5184 526.9647,-1487.9495"/>
</g>
<!-- _usdOut.sub -->
<g id="node49" class="node">
<title>_usdOut.sub</title>
<ellipse fill="#edad56" stroke="#edad56" stroke-width="3" cx="558.8493" cy="-1387.2469" rx="27" ry="18"/>
<text text-anchor="middle" x="558.8493" y="-1383.0469" font-family="Times,serif" font-size="14.00" fill="#000000">sub</text>
</g>
<!-- VaultFacet._decreasePosition&#45;&gt;_usdOut.sub -->
<g id="edge37" class="edge">
<title>VaultFacet._decreasePosition-&gt;_usdOut.sub</title>
<path fill="none" stroke="#ffffff" stroke-width="2" d="M350.6365,-1839.0677C362.7164,-1766.365 413.54,-1499.4156 464.7003,-1433.2469 479.3603,-1414.2862 502.5482,-1400.6273 522.2429,-1392.7526"/>
<polygon fill="#ffffff" stroke="#ffffff" stroke-width="2" points="523.6623,-1395.9608 531.8681,-1389.2589 521.2739,-1389.3809 523.6623,-1395.9608"/>
</g>
<!-- VaultFacet._decreasePosition&#45;&gt;_usdOut.sub -->
<g id="edge42" class="edge">
<title>VaultFacet._decreasePosition-&gt;_usdOut.sub</title>
<path fill="none" stroke="#ffffff" stroke-width="2" d="M351.8844,-1838.7897C365.9003,-1767.8403 415.1423,-1515.3432 464.7003,-1451.2469 481.469,-1429.559 509.3951,-1414.8078 530.4887,-1404.4563"/>
<polygon fill="#ffffff" stroke="#ffffff" stroke-width="2" points="532.1778,-1407.5267 539.635,-1400.0007 529.1121,-1401.2337 532.1778,-1407.5267"/>
</g>
<!-- VaultFacet.liquidatePosition -->
<g id="node4" class="node">
<title>VaultFacet.liquidatePosition</title>
<ellipse fill="#ffbdb9" stroke="#ffbdb9" stroke-width="3" cx="123.5924" cy="-2343.2469" rx="76.4806" ry="18"/>
<text text-anchor="middle" x="123.5924" y="-2339.0469" font-family="Times,serif" font-size="14.00" fill="#000000">liquidatePosition</text>
</g>
<!-- VaultFacet.liquidatePosition&#45;&gt;VaultFacet._decreasePosition -->
<g id="edge49" class="edge">
<title>VaultFacet.liquidatePosition-&gt;VaultFacet._decreasePosition</title>
<path fill="none" stroke="#1bc6a6" stroke-width="2" d="M194.9421,-2336.7103C208.3791,-2332.5433 221.2961,-2326.1039 231.1849,-2316.2469 246.9543,-2300.5282 319.6417,-1982.7372 341.6262,-1885.3613"/>
<polygon fill="#1bc6a6" stroke="#1bc6a6" stroke-width="2" points="345.0944,-1885.8918 343.8792,-1875.3669 338.2658,-1884.3524 345.0944,-1885.8918"/>
</g>
<!-- VaultFacet.liquidatePosition&#45;&gt;VaultFacet.validateLiquidation -->
<g id="edge48" class="edge">
<title>VaultFacet.liquidatePosition-&gt;VaultFacet.validateLiquidation</title>
<path fill="none" stroke="#1bc6a6" stroke-width="2" d="M183.055,-2331.897C199.0216,-2327.8937 216.0487,-2322.7295 231.1849,-2316.2469 349.1445,-2265.7263 473.1963,-2175.5993 528.7998,-2132.9136"/>
<polygon fill="#1bc6a6" stroke="#1bc6a6" stroke-width="2" points="531.0361,-2135.6089 536.8118,-2126.7267 526.7577,-2130.0685 531.0361,-2135.6089"/>
</g>
<!-- VaultFacet.liquidatePosition&#45;&gt;VaultFacet.contractEntered -->
<g id="edge44" class="edge">
<title>VaultFacet.liquidatePosition-&gt;VaultFacet.contractEntered</title>
<path fill="none" stroke="#1bc6a6" stroke-width="2" d="M186.3531,-2353.6286C201.5583,-2357.5772 217.3937,-2362.957 231.1849,-2370.2469 250.1108,-2380.2509 250.9448,-2388.2994 267.1849,-2402.2469 283.9764,-2416.668 303.0201,-2432.4923 318.3958,-2445.1395"/>
<polygon fill="#1bc6a6" stroke="#1bc6a6" stroke-width="2" points="316.5725,-2448.171 326.5229,-2451.8098 321.0135,-2442.76 316.5725,-2448.171"/>
</g>
<!-- VaultFacet.liquidatePosition&#45;&gt;VaultFacet.contractExited -->
<g id="edge59" class="edge">
<title>VaultFacet.liquidatePosition-&gt;VaultFacet.contractExited</title>
<path fill="none" stroke="#1bc6a6" stroke-width="2" d="M189.0869,-2352.5886C217.078,-2356.5811 249.789,-2361.2468 278.2283,-2365.3032"/>
<polygon fill="#1bc6a6" stroke="#1bc6a6" stroke-width="2" points="278.102,-2368.8206 288.496,-2366.7678 279.0905,-2361.8907 278.102,-2368.8206"/>
</g>
<!-- VaultFacet.liquidatePosition&#45;&gt;VaultLib.validateTokens -->
<g id="edge45" class="edge">
<title>VaultFacet.liquidatePosition-&gt;VaultLib.validateTokens</title>
<path fill="none" stroke="#ffffff" stroke-width="2" d="M197.3503,-2338.1914C210.4484,-2333.8957 222.6214,-2327.0299 231.1849,-2316.2469 302.5767,-2226.3517 193.742,-338.4743 267.1849,-250.2469 326.3617,-179.1574 608.3336,-193.9128 745.478,-205.7162"/>
<polygon fill="#ffffff" stroke="#ffffff" stroke-width="2" points="745.2286,-209.2077 755.4963,-206.5954 745.8406,-202.2345 745.2286,-209.2077"/>
</g>
<!-- VaultFacet.liquidatePosition&#45;&gt;VaultLib.updateCumulativeFundingRate -->
<g id="edge46" class="edge">
<title>VaultFacet.liquidatePosition-&gt;VaultLib.updateCumulativeFundingRate</title>
<path fill="none" stroke="#ffffff" stroke-width="2" d="M197.3378,-2338.1815C210.4368,-2333.8865 222.6133,-2327.0235 231.1849,-2316.2469 297.0077,-2233.491 198.0583,-493.2638 267.1849,-413.2469 319.7,-352.4584 534.2771,-331.8104 680.3193,-324.8127"/>
<polygon fill="#ffffff" stroke="#ffffff" stroke-width="2" points="680.8851,-328.2904 690.7128,-324.3321 680.5617,-321.2978 680.8851,-328.2904"/>
</g>
<!-- VaultFacet.liquidatePosition&#45;&gt;VaultLib.getPositionKey -->
<g id="edge47" class="edge">
<title>VaultFacet.liquidatePosition-&gt;VaultLib.getPositionKey</title>
<path fill="none" stroke="#ffffff" stroke-width="2" d="M197.3323,-2338.1771C210.4318,-2333.8825 222.6098,-2327.0207 231.1849,-2316.2469 294.8553,-2236.2503 197.2817,-550.8587 267.1849,-476.2469 298.8195,-442.4814 594.0561,-432.9279 739.9339,-430.2605"/>
<polygon fill="#ffffff" stroke="#ffffff" stroke-width="2" points="740.2366,-433.7558 750.1733,-430.0801 740.1132,-426.7569 740.2366,-433.7558"/>
</g>
<!-- VaultFacet.liquidatePosition&#45;&gt;VaultLib.getMaxPrice -->
<g id="edge54" class="edge">
<title>VaultFacet.liquidatePosition-&gt;VaultLib.getMaxPrice</title>
<path fill="none" stroke="#ffffff" stroke-width="2" d="M197.3143,-2338.1628C210.4152,-2333.8693 222.5983,-2327.0115 231.1849,-2316.2469 288.6374,-2244.2214 201.3338,-722.6836 267.1849,-658.2469 318.4923,-608.0414 376.0343,-609.4686 428.7003,-658.2469 505.3896,-729.2752 388.011,-1056.2186 464.7003,-1127.2469 526.0994,-1184.1137 587.9307,-1179.8766 652.9983,-1127.2469 699.2887,-1089.8051 638.4865,-1037.9294 680.9983,-996.2469 699.2954,-978.3068 725.7007,-970.4712 750.6418,-967.4974"/>
<polygon fill="#ffffff" stroke="#ffffff" stroke-width="2" points="751.2169,-970.9586 760.8423,-966.5313 750.5568,-963.9898 751.2169,-970.9586"/>
</g>
<!-- VaultFacet.liquidatePosition&#45;&gt;VaultLib.getMinPrice -->
<g id="edge53" class="edge">
<title>VaultFacet.liquidatePosition-&gt;VaultLib.getMinPrice</title>
<path fill="none" stroke="#ffffff" stroke-width="2" d="M197.3188,-2338.1664C210.4193,-2333.8726 222.6012,-2327.0138 231.1849,-2316.2469 290.0723,-2242.3819 199.6842,-682.3333 267.1849,-616.2469 318.4788,-566.0277 375.8891,-567.6258 428.7003,-616.2469 500.06,-681.9449 393.3406,-985.5488 464.7003,-1051.2469 526.2686,-1107.9304 589.0085,-1105.1819 652.9983,-1051.2469 709.2024,-1003.8743 629.5642,-940.7597 680.9983,-888.2469 699.4663,-869.3915 726.8513,-861.5706 752.4962,-858.8584"/>
<polygon fill="#ffffff" stroke="#ffffff" stroke-width="2" points="752.9097,-862.3364 762.5919,-858.0345 752.3403,-855.3596 752.9097,-862.3364"/>
</g>
<!-- VaultFacet.liquidatePosition&#45;&gt;VaultLib._decreaseGuaranteedUsd -->
<g id="edge52" class="edge">
<title>VaultFacet.liquidatePosition-&gt;VaultLib._decreaseGuaranteedUsd</title>
<path fill="none" stroke="#ffffff" stroke-width="2" d="M197.3231,-2338.1698C210.4233,-2333.8757 222.6039,-2327.016 231.1849,-2316.2469 291.5072,-2240.5425 198.0345,-641.9829 267.1849,-574.2469 430.4105,-414.3596 675.9468,-777.8823 680.9983,-780.2469 693.6032,-786.1471 707.4262,-790.7581 721.321,-794.3614"/>
<polygon fill="#ffffff" stroke="#ffffff" stroke-width="2" points="720.8919,-797.8586 731.4348,-796.8112 722.5398,-791.0554 720.8919,-797.8586"/>
</g>
<!-- VaultFacet.liquidatePosition&#45;&gt;VaultLib._decreasePoolAmount -->
<g id="edge55" class="edge">
<title>VaultFacet.liquidatePosition-&gt;VaultLib._decreasePoolAmount</title>
<path fill="none" stroke="#ffffff" stroke-width="2" d="M197.3431,-2338.1857C210.4418,-2333.8904 222.6167,-2327.0262 231.1849,-2316.2469 299.2626,-2230.6003 194.8155,-429.2994 267.1849,-347.2469 386.9758,-211.4278 626.0291,-231.0467 746.9876,-251.7065"/>
<polygon fill="#ffffff" stroke="#ffffff" stroke-width="2" points="746.4489,-255.1654 756.9036,-253.4479 747.6598,-248.2709 746.4489,-255.1654"/>
</g>
<!-- VaultFacet.liquidatePosition&#45;&gt;VaultLib.usdToTokenMin -->
<g id="edge50" class="edge">
<title>VaultFacet.liquidatePosition-&gt;VaultLib.usdToTokenMin</title>
<path fill="none" stroke="#ffffff" stroke-width="2" d="M166.7095,-2328.3319C189.5933,-2324.1473 216.0422,-2317.3309 231.1849,-2298.2469 306.1984,-2203.709 184.1736,-213.8458 267.1849,-126.2469 333.0756,-56.7147 630.629,-71.6756 760.166,-90.2549"/>
<polygon fill="#ffffff" stroke="#ffffff" stroke-width="2" points="759.9051,-93.7546 770.3125,-91.7707 760.9394,-86.8315 759.9051,-93.7546"/>
</g>
<!-- VaultFacet.liquidatePosition&#45;&gt;VaultLib.usdToTokenMin -->
<g id="edge56" class="edge">
<title>VaultFacet.liquidatePosition-&gt;VaultLib.usdToTokenMin</title>
<path fill="none" stroke="#ffffff" stroke-width="2" d="M197.3575,-2338.1971C210.455,-2333.901 222.6259,-2327.0335 231.1849,-2316.2469 306.1984,-2221.709 184.1736,-231.8458 267.1849,-144.2469 329.7329,-78.2422 601.0347,-88.3751 739.2063,-98.2481"/>
<polygon fill="#ffffff" stroke="#ffffff" stroke-width="2" points="739.0955,-101.7493 749.324,-98.9877 739.6058,-94.7679 739.0955,-101.7493"/>
</g>
<!-- VaultFacet.liquidatePosition&#45;&gt;VaultLib.usdToTokenMin -->
<g id="edge58" class="edge">
<title>VaultFacet.liquidatePosition-&gt;VaultLib.usdToTokenMin</title>
<path fill="none" stroke="#ffffff" stroke-width="2" d="M156.9448,-2359.4874C181.6155,-2361.8786 213.8276,-2356.1219 231.1849,-2334.2469 306.1984,-2239.709 184.1736,-249.8458 267.1849,-162.2469 329.2884,-96.7112 597.1896,-106.2349 736.2407,-108.9728"/>
<polygon fill="#ffffff" stroke="#ffffff" stroke-width="2" points="736.3686,-112.4758 746.4327,-109.1643 736.5002,-105.477 736.3686,-112.4758"/>
</g>
<!-- VaultFacet.liquidatePosition&#45;&gt;VaultLib._decreaseReservedAmount -->
<g id="edge51" class="edge">
<title>VaultFacet.liquidatePosition-&gt;VaultLib._decreaseReservedAmount</title>
<path fill="none" stroke="#ffffff" stroke-width="2" d="M197.3355,-2338.1796C210.4347,-2333.8848 222.6119,-2327.0223 231.1849,-2316.2469 296.0853,-2234.6735 197.1624,-517.4681 267.1849,-440.2469 274.6084,-432.0602 553.4868,-402.4411 712.498,-386.1589"/>
<polygon fill="#ffffff" stroke="#ffffff" stroke-width="2" points="713.2022,-389.6052 722.7943,-385.106 712.4901,-382.6415 713.2022,-389.6052"/>
</g>
<!-- VaultLib.transferOut -->
<g id="node42" class="node">
<title>VaultLib.transferOut</title>
<ellipse fill="#edad56" stroke="#edad56" stroke-width="3" cx="820.7312" cy="-159.2469" rx="55.0111" ry="18"/>
<text text-anchor="middle" x="820.7312" y="-155.0469" font-family="Times,serif" font-size="14.00" fill="#000000">transferOut</text>
</g>
<!-- VaultFacet.liquidatePosition&#45;&gt;VaultLib.transferOut -->
<g id="edge57" class="edge">
<title>VaultFacet.liquidatePosition-&gt;VaultLib.transferOut</title>
<path fill="none" stroke="#ffffff" stroke-width="2" d="M197.354,-2338.1944C210.4519,-2333.8985 222.6238,-2327.0318 231.1849,-2316.2469 304.4217,-2223.9866 185.9894,-281.5868 267.1849,-196.2469 332.7135,-127.3734 626.3268,-142.7174 757.3042,-153.3499"/>
<polygon fill="#ffffff" stroke="#ffffff" stroke-width="2" points="757.3248,-156.8635 767.5797,-154.2016 757.903,-149.8874 757.3248,-156.8635"/>
</g>
<!-- VaultFacet.getDelta -->
<g id="node12" class="node">
<title>VaultFacet.getDelta</title>
<ellipse fill="#edad56" stroke="#edad56" stroke-width="3" cx="820.7312" cy="-2001.2469" rx="43.9964" ry="18"/>
<text text-anchor="middle" x="820.7312" y="-1997.0469" font-family="Times,serif" font-size="14.00" fill="#000000">getDelta</text>
</g>
<!-- VaultFacet.validateLiquidation&#45;&gt;VaultFacet.getDelta -->
<g id="edge61" class="edge">
<title>VaultFacet.validateLiquidation-&gt;VaultFacet.getDelta</title>
<path fill="none" stroke="#1bc6a6" stroke-width="2" d="M625.5368,-2097.5503C635.424,-2093.7879 644.9713,-2088.8163 652.9983,-2082.2469 673.9196,-2065.1248 659.3409,-2044.4277 680.9983,-2028.2469 705.414,-2010.0053 738.7427,-2003.0742 766.7265,-2000.789"/>
<polygon fill="#1bc6a6" stroke="#1bc6a6" stroke-width="2" points="767.0126,-2004.278 776.768,-2000.145 766.5645,-1997.2923 767.0126,-2004.278"/>
</g>
<!-- VaultFacet.getFundingFee -->
<g id="node13" class="node">
<title>VaultFacet.getFundingFee</title>
<ellipse fill="#edad56" stroke="#edad56" stroke-width="3" cx="820.7312" cy="-2055.2469" rx="68.9428" ry="18"/>
<text text-anchor="middle" x="820.7312" y="-2051.0469" font-family="Times,serif" font-size="14.00" fill="#000000">getFundingFee</text>
</g>
<!-- VaultFacet.validateLiquidation&#45;&gt;VaultFacet.getFundingFee -->
<g id="edge62" class="edge">
<title>VaultFacet.validateLiquidation-&gt;VaultFacet.getFundingFee</title>
<path fill="none" stroke="#1bc6a6" stroke-width="2" d="M617.4942,-2095.9514C637.6039,-2091.4808 660.2629,-2086.5411 680.9983,-2082.2469 704.9192,-2077.293 731.2053,-2072.1383 754.4617,-2067.6769"/>
<polygon fill="#1bc6a6" stroke="#1bc6a6" stroke-width="2" points="755.4048,-2071.0601 764.5697,-2065.7447 754.0904,-2064.1846 755.4048,-2071.0601"/>
</g>
<!-- VaultFacet.getPositionFee -->
<g id="node14" class="node">
<title>VaultFacet.getPositionFee</title>
<ellipse fill="#edad56" stroke="#edad56" stroke-width="3" cx="820.7312" cy="-2109.2469" rx="68.3748" ry="18"/>
<text text-anchor="middle" x="820.7312" y="-2105.0469" font-family="Times,serif" font-size="14.00" fill="#000000">getPositionFee</text>
</g>
<!-- VaultFacet.validateLiquidation&#45;&gt;VaultFacet.getPositionFee -->
<g id="edge64" class="edge">
<title>VaultFacet.validateLiquidation-&gt;VaultFacet.getPositionFee</title>
<path fill="none" stroke="#1bc6a6" stroke-width="2" d="M645.6884,-2109.2469C676.7226,-2109.2469 711.499,-2109.2469 741.8273,-2109.2469"/>
<polygon fill="#1bc6a6" stroke="#1bc6a6" stroke-width="2" points="741.9302,-2112.747 751.9301,-2109.2469 741.9301,-2105.747 741.9302,-2112.747"/>
</g>
<!-- VaultFacet.validateLiquidation&#45;&gt;VaultLib.getPositionKey -->
<g id="edge60" class="edge">
<title>VaultFacet.validateLiquidation-&gt;VaultLib.getPositionKey</title>
<path fill="none" stroke="#ffffff" stroke-width="2" d="M631.301,-2099.1736C639.7139,-2095.1455 647.306,-2089.6673 652.9983,-2082.2469 707.9884,-2010.5627 622.8942,-525.431 680.9983,-456.2469 695.8783,-438.5294 718.5691,-430.161 741.3654,-426.6727"/>
<polygon fill="#ffffff" stroke="#ffffff" stroke-width="2" points="741.9698,-430.1249 751.4677,-425.4303 741.1152,-423.1772 741.9698,-430.1249"/>
</g>
<!-- marginFees.add -->
<g id="node50" class="node">
<title>marginFees.add</title>
<ellipse fill="#edad56" stroke="#edad56" stroke-width="3" cx="820.7312" cy="-1772.2469" rx="27" ry="18"/>
<text text-anchor="middle" x="820.7312" y="-1768.0469" font-family="Times,serif" font-size="14.00" fill="#000000">add</text>
</g>
<!-- VaultFacet.validateLiquidation&#45;&gt;marginFees.add -->
<g id="edge63" class="edge">
<title>VaultFacet.validateLiquidation-&gt;marginFees.add</title>
<path fill="none" stroke="#ffffff" stroke-width="2" d="M615.7922,-2095.4733C629.8547,-2091.1432 643.5726,-2084.4275 652.9983,-2073.2469 726.4867,-1986.076 611.7635,-1908.833 680.9983,-1818.2469 705.569,-1786.0988 751.7065,-1772.7156 784.2295,-1769.166"/>
<polygon fill="#ffffff" stroke="#ffffff" stroke-width="2" points="784.5834,-1772.6489 794.2659,-1768.3478 784.0145,-1765.672 784.5834,-1772.6489"/>
</g>
<!-- VaultFacet.validateLiquidation&#45;&gt;marginFees.add -->
<g id="edge65" class="edge">
<title>VaultFacet.validateLiquidation-&gt;marginFees.add</title>
<path fill="none" stroke="#ffffff" stroke-width="2" d="M640.0503,-2102.5003C644.8746,-2099.3895 649.2719,-2095.6671 652.9983,-2091.2469 726.4867,-2004.076 611.7635,-1926.833 680.9983,-1836.2469 706.1405,-1803.3511 753.8641,-1790.1032 786.476,-1782.6368"/>
<polygon fill="#ffffff" stroke="#ffffff" stroke-width="2" points="787.4905,-1785.9965 796.4855,-1780.3982 785.9626,-1779.1652 787.4905,-1785.9965"/>
</g>
<!-- remainingCollateral.mul -->
<g id="node51" class="node">
<title>remainingCollateral.mul</title>
<ellipse fill="#edad56" stroke="#edad56" stroke-width="3" cx="820.7312" cy="-1687.2469" rx="27" ry="18"/>
<text text-anchor="middle" x="820.7312" y="-1683.0469" font-family="Times,serif" font-size="14.00" fill="#000000">mul</text>
</g>
<!-- VaultFacet.validateLiquidation&#45;&gt;remainingCollateral.mul -->
<g id="edge66" class="edge">
<title>VaultFacet.validateLiquidation-&gt;remainingCollateral.mul</title>
<path fill="none" stroke="#ffffff" stroke-width="2" d="M630.3977,-2099.04C639.0586,-2095.0439 646.9602,-2089.6101 652.9983,-2082.2469 701.07,-2023.6255 635.7856,-1803.1005 680.9983,-1742.2469 705.0594,-1709.862 751.0919,-1696.5324 783.7399,-1691.0542"/>
<polygon fill="#ffffff" stroke="#ffffff" stroke-width="2" points="784.4566,-1694.4859 793.8248,-1689.5373 783.4154,-1687.5637 784.4566,-1694.4859"/>
</g>
<!-- VaultFacet.getPosition -->
<g id="node6" class="node">
<title>VaultFacet.getPosition</title>
<ellipse fill="#ff9797" stroke="#ff9797" stroke-width="3" cx="123.5924" cy="-2397.2469" rx="54.4913" ry="18"/>
<text text-anchor="middle" x="123.5924" y="-2393.0469" font-family="Times,serif" font-size="14.00" fill="#000000">getPosition</text>
</g>
<!-- VaultFacet.getPosition&#45;&gt;VaultLib.getPositionKey -->
<g id="edge67" class="edge">
<title>VaultFacet.getPosition-&gt;VaultLib.getPositionKey</title>
<path fill="none" stroke="#ffffff" stroke-width="2" d="M178.2962,-2396.6972C198.0216,-2393.513 218.5206,-2386.1347 231.1849,-2370.2469 290.4822,-2295.8564 215.9405,-738.3976 267.1849,-658.2469 377.4279,-485.8171 486.8894,-521.1105 680.9983,-456.2469 702.4378,-449.0826 726.3997,-443.5907 748.343,-439.4907"/>
<polygon fill="#ffffff" stroke="#ffffff" stroke-width="2" points="749.0451,-442.9207 758.2666,-437.7039 747.8046,-436.0315 749.0451,-442.9207"/>
</g>
<!-- VaultFacet.getNextFundingRate -->
<g id="node7" class="node">
<title>VaultFacet.getNextFundingRate</title>
<ellipse fill="#ff9797" stroke="#ff9797" stroke-width="3" cx="123.5924" cy="-2289.2469" rx="91.4944" ry="18"/>
<text text-anchor="middle" x="123.5924" y="-2285.0469" font-family="Times,serif" font-size="14.00" fill="#000000">getNextFundingRate</text>
</g>
<!-- VaultLib._getNextFundingRate -->
<g id="node43" class="node">
<title>VaultLib._getNextFundingRate</title>
<ellipse fill="#edad56" stroke="#edad56" stroke-width="3" cx="820.7312" cy="-51.2469" rx="96.1517" ry="18"/>
<text text-anchor="middle" x="820.7312" y="-47.0469" font-family="Times,serif" font-size="14.00" fill="#000000">_getNextFundingRate</text>
</g>
<!-- VaultFacet.getNextFundingRate&#45;&gt;VaultLib._getNextFundingRate -->
<g id="edge68" class="edge">
<title>VaultFacet.getNextFundingRate-&gt;VaultLib._getNextFundingRate</title>
<path fill="none" stroke="#ffffff" stroke-width="2" d="M205.4534,-2281.1412C215.4026,-2276.847 224.4215,-2270.7705 231.1849,-2262.2469 306.13,-2167.7966 184.4067,-179.9134 267.1849,-92.2469 395.2732,43.4056 646.2252,-2.6737 760.9416,-33.1926"/>
<polygon fill="#ffffff" stroke="#ffffff" stroke-width="2" points="760.0511,-36.5774 770.6185,-35.8165 761.883,-29.8214 760.0511,-36.5774"/>
</g>
<!-- VaultFacet.getUtilisation -->
<g id="node8" class="node">
<title>VaultFacet.getUtilisation</title>
<ellipse fill="#ff9797" stroke="#ff9797" stroke-width="3" cx="123.5924" cy="-2235.2469" rx="63.7161" ry="18"/>
<text text-anchor="middle" x="123.5924" y="-2231.0469" font-family="Times,serif" font-size="14.00" fill="#000000">getUtilisation</text>
</g>
<!-- VaultFacet.getPositionLeverage -->
<g id="node9" class="node">
<title>VaultFacet.getPositionLeverage</title>
<ellipse fill="#ff9797" stroke="#ff9797" stroke-width="3" cx="123.5924" cy="-2181.2469" rx="90.3275" ry="18"/>
<text text-anchor="middle" x="123.5924" y="-2177.0469" font-family="Times,serif" font-size="14.00" fill="#000000">getPositionLeverage</text>
</g>
<!-- VaultFacet.getPositionLeverage&#45;&gt;VaultLib.getPositionKey -->
<g id="edge69" class="edge">
<title>VaultFacet.getPositionLeverage-&gt;VaultLib.getPositionKey</title>
<path fill="none" stroke="#ffffff" stroke-width="2" d="M204.89,-2173.3403C215.0532,-2169.0378 224.2827,-2162.9063 231.1849,-2154.2469 290.6189,-2079.6812 199.6003,-505.5133 267.1849,-438.2469 332.9976,-372.744 614.7932,-400.991 749.0548,-418.7859"/>
<polygon fill="#ffffff" stroke="#ffffff" stroke-width="2" points="748.8645,-422.2917 759.2413,-420.1536 749.796,-415.354 748.8645,-422.2917"/>
</g>
<!-- VaultFacet.getNextAveragePrice&#45;&gt;VaultFacet.getDelta -->
<g id="edge70" class="edge">
<title>VaultFacet.getNextAveragePrice-&gt;VaultFacet.getDelta</title>
<path fill="none" stroke="#1bc6a6" stroke-width="2" d="M619.6695,-2041.4682C639.2282,-2037.127 661.0073,-2032.3869 680.9983,-2028.2469 710.7117,-2022.0934 744.0745,-2015.6301 770.7469,-2010.5705"/>
<polygon fill="#1bc6a6" stroke="#1bc6a6" stroke-width="2" points="771.4446,-2014.0007 780.6202,-2008.7036 770.1441,-2007.1225 771.4446,-2014.0007"/>
</g>
<!-- _size.add -->
<g id="node52" class="node">
<title>_size.add</title>
<ellipse fill="#edad56" stroke="#edad56" stroke-width="3" cx="820.7312" cy="-1602.2469" rx="27" ry="18"/>
<text text-anchor="middle" x="820.7312" y="-1598.0469" font-family="Times,serif" font-size="14.00" fill="#000000">add</text>
</g>
<!-- VaultFacet.getNextAveragePrice&#45;&gt;_size.add -->
<g id="edge71" class="edge">
<title>VaultFacet.getNextAveragePrice-&gt;_size.add</title>
<path fill="none" stroke="#ffffff" stroke-width="2" d="M632.7428,-2043.971C640.4915,-2040.0882 647.5223,-2034.9714 652.9983,-2028.2469 705.2058,-1964.1362 631.9171,-1723.7813 680.9983,-1657.2469 704.9486,-1624.7799 751.0042,-1611.4674 783.6878,-1606.0157"/>
<polygon fill="#ffffff" stroke="#ffffff" stroke-width="2" points="784.4114,-1609.4465 793.7846,-1604.5076 783.3772,-1602.5234 784.4114,-1609.4465"/>
</g>
<!-- nextSize.add -->
<g id="node53" class="node">
<title>nextSize.add</title>
<ellipse fill="#edad56" stroke="#edad56" stroke-width="3" cx="820.7312" cy="-1463.2469" rx="27" ry="18"/>
<text text-anchor="middle" x="820.7312" y="-1459.0469" font-family="Times,serif" font-size="14.00" fill="#000000">add</text>
</g>
<!-- VaultFacet.getNextAveragePrice&#45;&gt;nextSize.add -->
<g id="edge72" class="edge">
<title>VaultFacet.getNextAveragePrice-&gt;nextSize.add</title>
<path fill="none" stroke="#ffffff" stroke-width="2" d="M618.1806,-2041.2045C631.5422,-2036.8532 644.3205,-2030.1608 652.9983,-2019.2469 727.5057,-1925.5404 602.4228,-1571.5693 680.9983,-1481.2469 706.9722,-1451.39 755.1415,-1448.3242 787.5661,-1452.417"/>
<polygon fill="#ffffff" stroke="#ffffff" stroke-width="2" points="787.0709,-1455.882 797.4922,-1453.9725 788.1546,-1448.9664 787.0709,-1455.882"/>
</g>
<!-- VaultFacet.getNextAveragePrice&#45;&gt;nextSize.add -->
<g id="edge75" class="edge">
<title>VaultFacet.getNextAveragePrice-&gt;nextSize.add</title>
<path fill="none" stroke="#ffffff" stroke-width="2" d="M642.8145,-2047.0017C646.5939,-2044.2081 650.0351,-2040.9736 652.9983,-2037.2469 727.5057,-1943.5404 602.4228,-1589.5693 680.9983,-1499.2469 705.9127,-1470.6079 751.2488,-1466.6189 783.5222,-1466.0627"/>
<polygon fill="#ffffff" stroke="#ffffff" stroke-width="2" points="783.9479,-1469.5594 793.918,-1465.9751 783.8888,-1462.5596 783.9479,-1469.5594"/>
</g>
<!-- nextSize.sub -->
<g id="node54" class="node">
<title>nextSize.sub</title>
<ellipse fill="#edad56" stroke="#edad56" stroke-width="3" cx="820.7312" cy="-1517.2469" rx="27" ry="18"/>
<text text-anchor="middle" x="820.7312" y="-1513.0469" font-family="Times,serif" font-size="14.00" fill="#000000">sub</text>
</g>
<!-- VaultFacet.getNextAveragePrice&#45;&gt;nextSize.sub -->
<g id="edge73" class="edge">
<title>VaultFacet.getNextAveragePrice-&gt;nextSize.sub</title>
<path fill="none" stroke="#ffffff" stroke-width="2" d="M618.1102,-2041.1483C631.4731,-2036.7981 644.2697,-2030.1202 652.9983,-2019.2469 716.5529,-1940.0764 621.3033,-1645.3667 680.9983,-1563.2469 704.859,-1530.4228 751.3623,-1517.1812 784.1525,-1513.8668"/>
<polygon fill="#ffffff" stroke="#ffffff" stroke-width="2" points="784.5526,-1517.347 794.2708,-1513.1273 784.0422,-1510.3656 784.5526,-1517.347"/>
</g>
<!-- VaultFacet.getNextAveragePrice&#45;&gt;nextSize.sub -->
<g id="edge74" class="edge">
<title>VaultFacet.getNextAveragePrice-&gt;nextSize.sub</title>
<path fill="none" stroke="#ffffff" stroke-width="2" d="M642.7733,-2046.9687C646.563,-2044.1834 650.0178,-2040.9597 652.9983,-2037.2469 716.5529,-1958.0764 621.3033,-1663.3667 680.9983,-1581.2469 705.3431,-1547.7568 753.2587,-1534.652 786.1312,-1527.3798"/>
<polygon fill="#ffffff" stroke="#ffffff" stroke-width="2" points="787.1878,-1530.7326 796.2266,-1525.2053 785.7138,-1523.8896 787.1878,-1530.7326"/>
</g>
<!-- _nextPrice.mul -->
<g id="node55" class="node">
<title>_nextPrice.mul</title>
<ellipse fill="#edad56" stroke="#edad56" stroke-width="3" cx="820.7312" cy="-1378.2469" rx="27" ry="18"/>
<text text-anchor="middle" x="820.7312" y="-1374.0469" font-family="Times,serif" font-size="14.00" fill="#000000">mul</text>
</g>
<!-- VaultFacet.getNextAveragePrice&#45;&gt;_nextPrice.mul -->
<g id="edge76" class="edge">
<title>VaultFacet.getNextAveragePrice-&gt;_nextPrice.mul</title>
<path fill="none" stroke="#ffffff" stroke-width="2" d="M632.927,-2044.1188C640.6448,-2040.2112 647.618,-2035.0482 652.9983,-2028.2469 694.0598,-1976.3402 642.4666,-1487.0583 680.9983,-1433.2469 704.5552,-1400.3486 750.9081,-1387.1248 783.7579,-1381.8116"/>
<polygon fill="#ffffff" stroke="#ffffff" stroke-width="2" points="784.5045,-1385.2403 793.903,-1380.3496 783.5059,-1378.3119 784.5045,-1385.2403"/>
</g>
<!-- VaultFacet.getPositionDelta -->
<g id="node11" class="node">
<title>VaultFacet.getPositionDelta</title>
<ellipse fill="#ff9797" stroke="#ff9797" stroke-width="3" cx="558.8493" cy="-2001.2469" rx="75.3157" ry="18"/>
<text text-anchor="middle" x="558.8493" y="-1997.0469" font-family="Times,serif" font-size="14.00" fill="#000000">getPositionDelta</text>
</g>
<!-- VaultFacet.getPositionDelta&#45;&gt;VaultFacet.getDelta -->
<g id="edge78" class="edge">
<title>VaultFacet.getPositionDelta-&gt;VaultFacet.getDelta</title>
<path fill="none" stroke="#1bc6a6" stroke-width="2" d="M634.5964,-2001.2469C676.7108,-2001.2469 728.1491,-2001.2469 766.2708,-2001.2469"/>
<polygon fill="#1bc6a6" stroke="#1bc6a6" stroke-width="2" points="766.6512,-2004.747 776.6511,-2001.2469 766.6511,-1997.747 766.6512,-2004.747"/>
</g>
<!-- VaultFacet.getPositionDelta&#45;&gt;VaultLib.getPositionKey -->
<g id="edge77" class="edge">
<title>VaultFacet.getPositionDelta-&gt;VaultLib.getPositionKey</title>
<path fill="none" stroke="#ffffff" stroke-width="2" d="M565.0417,-1983.0583C582.8374,-1929.7823 634.0576,-1769.1467 652.9983,-1631.2469 661.8834,-1566.5579 638.8398,-506.1093 680.9983,-456.2469 695.9368,-438.5786 718.6432,-430.2235 741.436,-426.7322"/>
<polygon fill="#ffffff" stroke="#ffffff" stroke-width="2" points="742.0388,-430.1844 751.5355,-425.4873 741.1824,-423.237 742.0388,-430.1844"/>
</g>
<!-- VaultLib._getDelta -->
<g id="node44" class="node">
<title>VaultLib._getDelta</title>
<ellipse fill="#edad56" stroke="#edad56" stroke-width="3" cx="820.7312" cy="-1293.2469" rx="48.652" ry="18"/>
<text text-anchor="middle" x="820.7312" y="-1289.0469" font-family="Times,serif" font-size="14.00" fill="#000000">_getDelta</text>
</g>
<!-- VaultFacet.getDelta&#45;&gt;VaultLib._getDelta -->
<g id="edge79" class="edge">
<title>VaultFacet.getDelta-&gt;VaultLib._getDelta</title>
<path fill="none" stroke="#ffffff" stroke-width="2" d="M800.1685,-1985.3452C764.8426,-1956.5627 693.8416,-1891.9329 666.9983,-1818.2469 658.2319,-1794.1828 654.7258,-1379.7261 666.9983,-1357.2469 685.7854,-1322.8353 727.809,-1306.9221 763.1785,-1299.5654"/>
<polygon fill="#ffffff" stroke="#ffffff" stroke-width="2" points="764.2538,-1302.9242 773.4295,-1297.6274 762.9533,-1296.046 764.2538,-1302.9242"/>
</g>
<!-- VaultLib._getFundingFee -->
<g id="node45" class="node">
<title>VaultLib._getFundingFee</title>
<ellipse fill="#edad56" stroke="#edad56" stroke-width="3" cx="820.7312" cy="-1239.2469" rx="73.6003" ry="18"/>
<text text-anchor="middle" x="820.7312" y="-1235.0469" font-family="Times,serif" font-size="14.00" fill="#000000">_getFundingFee</text>
</g>
<!-- VaultFacet.getFundingFee&#45;&gt;VaultLib._getFundingFee -->
<g id="edge80" class="edge">
<title>VaultFacet.getFundingFee-&gt;VaultLib._getFundingFee</title>
<path fill="none" stroke="#ffffff" stroke-width="2" d="M754.4644,-2060.259C720.7518,-2058.6833 683.4832,-2049.4417 666.9983,-2019.2469 657.0951,-2001.1075 657.0951,-1293.3863 666.9983,-1275.2469 680.9808,-1249.6356 709.916,-1239.099 738.9511,-1235.5287"/>
<polygon fill="#ffffff" stroke="#ffffff" stroke-width="2" points="739.5819,-1238.9843 749.201,-1234.5431 738.9119,-1232.0165 739.5819,-1238.9843"/>
</g>
<!-- VaultLib._getPositionFee -->
<g id="node46" class="node">
<title>VaultLib._getPositionFee</title>
<ellipse fill="#edad56" stroke="#edad56" stroke-width="3" cx="820.7312" cy="-1185.2469" rx="73.0325" ry="18"/>
<text text-anchor="middle" x="820.7312" y="-1181.0469" font-family="Times,serif" font-size="14.00" fill="#000000">_getPositionFee</text>
</g>
<!-- VaultFacet.getPositionFee&#45;&gt;VaultLib._getPositionFee -->
<g id="edge81" class="edge">
<title>VaultFacet.getPositionFee-&gt;VaultLib._getPositionFee</title>
<path fill="none" stroke="#ffffff" stroke-width="2" d="M754.8672,-2114.2775C721.0491,-2112.7567 683.5489,-2103.562 666.9983,-2073.2469 655.6575,-2052.4744 655.6575,-1242.0194 666.9983,-1221.2469 681.0983,-1195.4204 710.4034,-1184.923 739.6831,-1181.4402"/>
<polygon fill="#ffffff" stroke="#ffffff" stroke-width="2" points="740.3775,-1184.8911 750.0137,-1180.4872 739.7344,-1177.9207 740.3775,-1184.8911"/>
</g>
<!-- VaultFacet.liquidationFeeUsd -->
<g id="node15" class="node">
<title>VaultFacet.liquidationFeeUsd</title>
<ellipse fill="#ff9797" stroke="#ff9797" stroke-width="3" cx="123.5924" cy="-2127.2469" rx="82.2623" ry="18"/>
<text text-anchor="middle" x="123.5924" y="-2123.0469" font-family="Times,serif" font-size="14.00" fill="#000000">liquidationFeeUsd</text>
</g>
<!-- VaultFacet.fundingRateFactor -->
<g id="node16" class="node">
<title>VaultFacet.fundingRateFactor</title>
<ellipse fill="#ff9797" stroke="#ff9797" stroke-width="3" cx="123.5924" cy="-2073.2469" rx="83.3867" ry="18"/>
<text text-anchor="middle" x="123.5924" y="-2069.0469" font-family="Times,serif" font-size="14.00" fill="#000000">fundingRateFactor</text>
</g>
<!-- VaultFacet.fundingInterval -->
<g id="node17" class="node">
<title>VaultFacet.fundingInterval</title>
<ellipse fill="#ff9797" stroke="#ff9797" stroke-width="3" cx="123.5924" cy="-2019.2469" rx="71.2094" ry="18"/>
<text text-anchor="middle" x="123.5924" y="-2015.0469" font-family="Times,serif" font-size="14.00" fill="#000000">fundingInterval</text>
</g>
<!-- VaultFacet.marginFeeBasisPoints -->
<g id="node18" class="node">
<title>VaultFacet.marginFeeBasisPoints</title>
<ellipse fill="#ff9797" stroke="#ff9797" stroke-width="3" cx="123.5924" cy="-1965.2469" rx="97.305" ry="18"/>
<text text-anchor="middle" x="123.5924" y="-1961.0469" font-family="Times,serif" font-size="14.00" fill="#000000">marginFeeBasisPoints</text>
</g>
<!-- VaultFacet.cumulativeFundingRates -->
<g id="node19" class="node">
<title>VaultFacet.cumulativeFundingRates</title>
<ellipse fill="#ff9797" stroke="#ff9797" stroke-width="3" cx="123.5924" cy="-1911.2469" rx="107.6849" ry="18"/>
<text text-anchor="middle" x="123.5924" y="-1907.0469" font-family="Times,serif" font-size="14.00" fill="#000000">cumulativeFundingRates</text>
</g>
<!-- VaultFacet.lastFundingTimes -->
<g id="node20" class="node">
<title>VaultFacet.lastFundingTimes</title>
<ellipse fill="#ff9797" stroke="#ff9797" stroke-width="3" cx="123.5924" cy="-1857.2469" rx="80.5566" ry="18"/>
<text text-anchor="middle" x="123.5924" y="-1853.0469" font-family="Times,serif" font-size="14.00" fill="#000000">lastFundingTimes</text>
</g>
<!-- key -->
<g id="node56" class="node">
<title>key</title>
<polygon fill="#edad56" stroke="transparent" stroke-width="3" points="188.5924,-2660.2469 58.5924,-2660.2469 58.5924,-2572.2469 188.5924,-2572.2469 188.5924,-2660.2469"/>
<text text-anchor="start" x="108.2284" y="-2641.6469" font-family="Times,serif" font-size="14.00" fill="#000000">Internal Call</text>
<text text-anchor="start" x="104.3364" y="-2621.6469" font-family="Times,serif" font-size="14.00" fill="#000000">External Call</text>
<text text-anchor="start" x="81.7978" y="-2601.6469" font-family="Times,serif" font-size="14.00" fill="#000000">Defined Contract</text>
<text text-anchor="start" x="68.1951" y="-2581.6469" font-family="Times,serif" font-size="14.00" fill="#000000">Undefined Contract</text>
</g>
<!-- key2 -->
<g id="node57" class="node">
<title>key2</title>
<polygon fill="#edad56" stroke="transparent" stroke-width="3" points="374.9426,-2660.2469 320.9426,-2660.2469 320.9426,-2572.2469 374.9426,-2572.2469 374.9426,-2660.2469"/>
<text text-anchor="start" x="335.7017" y="-2641.6469" font-family="Times,serif" font-size="14.00" fill="#000000"></text>
<text text-anchor="start" x="335.7017" y="-2621.6469" font-family="Times,serif" font-size="14.00" fill="#000000"></text>
<polygon fill="#445773" stroke="transparent" points="333.9426,-2596.2469 333.9426,-2616.2469 361.9426,-2616.2469 361.9426,-2596.2469 333.9426,-2596.2469"/>
<text text-anchor="start" x="335.7017" y="-2601.6469" font-family="Times,serif" font-size="14.00" fill="#000000"></text>
<polygon fill="none" stroke="#e8726d" points="335.9426,-2578.2469 335.9426,-2594.2469 359.9426,-2594.2469 359.9426,-2578.2469 335.9426,-2578.2469"/>
</g>
<!-- key&#45;&gt;key2 -->
<g id="edge82" class="edge">
<title>key:e-&gt;key2:w</title>
<path fill="none" stroke="#1bc6a6" stroke-width="2" d="M180.5924,-2646.2469C245.287,-2646.2469 263.9246,-2646.2469 323.9416,-2646.2469"/>
<polygon fill="#1bc6a6" stroke="#1bc6a6" stroke-width="2" points="323.9426,-2649.747 333.9426,-2646.2469 323.9426,-2642.747 323.9426,-2649.747"/>
</g>
<!-- key&#45;&gt;key2 -->
<g id="edge83" class="edge">
<title>key:e-&gt;key2:w</title>
<path fill="none" stroke="#ffffff" stroke-width="2" d="M180.5924,-2626.2469C245.287,-2626.2469 263.9246,-2626.2469 323.9416,-2626.2469"/>
<polygon fill="#ffffff" stroke="#ffffff" stroke-width="2" points="323.9426,-2629.747 333.9426,-2626.2469 323.9426,-2622.747 323.9426,-2629.747"/>
</g>
</g>
</svg>